<?xml version="1.0" encoding="utf-8" standalone="no"?>
<!DOCTYPE svg PUBLIC "-//W3C//DTD SVG 1.1//EN"
  "http://www.w3.org/Graphics/SVG/1.1/DTD/svg11.dtd">
<!-- Created with matplotlib (https://matplotlib.org/) -->
<svg height="655.2pt" version="1.1" viewBox="0 0 1382.4 655.2" width="1382.4pt" xmlns="http://www.w3.org/2000/svg" xmlns:xlink="http://www.w3.org/1999/xlink">
 <defs>
  <style type="text/css">
*{stroke-linecap:butt;stroke-linejoin:round;}
  </style>
 </defs>
 <g id="figure_1">
  <g id="patch_1">
   <path d="M 0 655.2 
L 1382.4 655.2 
L 1382.4 0 
L 0 0 
z
" style="fill:#ffffff;"/>
  </g>
  <g id="axes_1">
   <g id="patch_2">
    <path d="M 62.3 605.32 
L 1371.6 605.32 
L 1371.6 10.8 
L 62.3 10.8 
z
" style="fill:#ffffff;"/>
   </g>
   <g id="matplotlib.axis_1">
    <g id="xtick_1">
     <g id="line2d_1">
      <defs>
       <path d="M 0 0 
L 0 3.5 
" id="m0fb2ce6f5d" style="stroke:#000000;stroke-width:0.8;"/>
      </defs>
      <g>
       <use style="stroke:#000000;stroke-width:0.8;" x="312.880143" xlink:href="#m0fb2ce6f5d" y="605.32"/>
      </g>
     </g>
     <g id="text_1">
      <!-- 0.2 -->
      <defs>
       <path d="M 31.78125 66.40625 
Q 24.171875 66.40625 20.328125 58.90625 
Q 16.5 51.421875 16.5 36.375 
Q 16.5 21.390625 20.328125 13.890625 
Q 24.171875 6.390625 31.78125 6.390625 
Q 39.453125 6.390625 43.28125 13.890625 
Q 47.125 21.390625 47.125 36.375 
Q 47.125 51.421875 43.28125 58.90625 
Q 39.453125 66.40625 31.78125 66.40625 
z
M 31.78125 74.21875 
Q 44.046875 74.21875 50.515625 64.515625 
Q 56.984375 54.828125 56.984375 36.375 
Q 56.984375 17.96875 50.515625 8.265625 
Q 44.046875 -1.421875 31.78125 -1.421875 
Q 19.53125 -1.421875 13.0625 8.265625 
Q 6.59375 17.96875 6.59375 36.375 
Q 6.59375 54.828125 13.0625 64.515625 
Q 19.53125 74.21875 31.78125 74.21875 
z
" id="DejaVuSans-48"/>
       <path d="M 10.6875 12.40625 
L 21 12.40625 
L 21 0 
L 10.6875 0 
z
" id="DejaVuSans-46"/>
       <path d="M 19.1875 8.296875 
L 53.609375 8.296875 
L 53.609375 0 
L 7.328125 0 
L 7.328125 8.296875 
Q 12.9375 14.109375 22.625 23.890625 
Q 32.328125 33.6875 34.8125 36.53125 
Q 39.546875 41.84375 41.421875 45.53125 
Q 43.3125 49.21875 43.3125 52.78125 
Q 43.3125 58.59375 39.234375 62.25 
Q 35.15625 65.921875 28.609375 65.921875 
Q 23.96875 65.921875 18.8125 64.3125 
Q 13.671875 62.703125 7.8125 59.421875 
L 7.8125 69.390625 
Q 13.765625 71.78125 18.9375 73 
Q 24.125 74.21875 28.421875 74.21875 
Q 39.75 74.21875 46.484375 68.546875 
Q 53.21875 62.890625 53.21875 53.421875 
Q 53.21875 48.921875 51.53125 44.890625 
Q 49.859375 40.875 45.40625 35.40625 
Q 44.1875 33.984375 37.640625 27.21875 
Q 31.109375 20.453125 19.1875 8.296875 
z
" id="DejaVuSans-50"/>
      </defs>
      <g transform="translate(304.928581 619.918437)scale(0.1 -0.1)">
       <use xlink:href="#DejaVuSans-48"/>
       <use x="63.623047" xlink:href="#DejaVuSans-46"/>
       <use x="95.410156" xlink:href="#DejaVuSans-50"/>
      </g>
     </g>
    </g>
    <g id="xtick_2">
     <g id="line2d_2">
      <g>
       <use style="stroke:#000000;stroke-width:0.8;" x="573.583423" xlink:href="#m0fb2ce6f5d" y="605.32"/>
      </g>
     </g>
     <g id="text_2">
      <!-- 0.4 -->
      <defs>
       <path d="M 37.796875 64.3125 
L 12.890625 25.390625 
L 37.796875 25.390625 
z
M 35.203125 72.90625 
L 47.609375 72.90625 
L 47.609375 25.390625 
L 58.015625 25.390625 
L 58.015625 17.1875 
L 47.609375 17.1875 
L 47.609375 0 
L 37.796875 0 
L 37.796875 17.1875 
L 4.890625 17.1875 
L 4.890625 26.703125 
z
" id="DejaVuSans-52"/>
      </defs>
      <g transform="translate(565.63186 619.918437)scale(0.1 -0.1)">
       <use xlink:href="#DejaVuSans-48"/>
       <use x="63.623047" xlink:href="#DejaVuSans-46"/>
       <use x="95.410156" xlink:href="#DejaVuSans-52"/>
      </g>
     </g>
    </g>
    <g id="xtick_3">
     <g id="line2d_3">
      <g>
       <use style="stroke:#000000;stroke-width:0.8;" x="834.286703" xlink:href="#m0fb2ce6f5d" y="605.32"/>
      </g>
     </g>
     <g id="text_3">
      <!-- 0.6 -->
      <defs>
       <path d="M 33.015625 40.375 
Q 26.375 40.375 22.484375 35.828125 
Q 18.609375 31.296875 18.609375 23.390625 
Q 18.609375 15.53125 22.484375 10.953125 
Q 26.375 6.390625 33.015625 6.390625 
Q 39.65625 6.390625 43.53125 10.953125 
Q 47.40625 15.53125 47.40625 23.390625 
Q 47.40625 31.296875 43.53125 35.828125 
Q 39.65625 40.375 33.015625 40.375 
z
M 52.59375 71.296875 
L 52.59375 62.3125 
Q 48.875 64.0625 45.09375 64.984375 
Q 41.3125 65.921875 37.59375 65.921875 
Q 27.828125 65.921875 22.671875 59.328125 
Q 17.53125 52.734375 16.796875 39.40625 
Q 19.671875 43.65625 24.015625 45.921875 
Q 28.375 48.1875 33.59375 48.1875 
Q 44.578125 48.1875 50.953125 41.515625 
Q 57.328125 34.859375 57.328125 23.390625 
Q 57.328125 12.15625 50.6875 5.359375 
Q 44.046875 -1.421875 33.015625 -1.421875 
Q 20.359375 -1.421875 13.671875 8.265625 
Q 6.984375 17.96875 6.984375 36.375 
Q 6.984375 53.65625 15.1875 63.9375 
Q 23.390625 74.21875 37.203125 74.21875 
Q 40.921875 74.21875 44.703125 73.484375 
Q 48.484375 72.75 52.59375 71.296875 
z
" id="DejaVuSans-54"/>
      </defs>
      <g transform="translate(826.33514 619.918437)scale(0.1 -0.1)">
       <use xlink:href="#DejaVuSans-48"/>
       <use x="63.623047" xlink:href="#DejaVuSans-46"/>
       <use x="95.410156" xlink:href="#DejaVuSans-54"/>
      </g>
     </g>
    </g>
    <g id="xtick_4">
     <g id="line2d_4">
      <g>
       <use style="stroke:#000000;stroke-width:0.8;" x="1094.989983" xlink:href="#m0fb2ce6f5d" y="605.32"/>
      </g>
     </g>
     <g id="text_4">
      <!-- 0.8 -->
      <defs>
       <path d="M 31.78125 34.625 
Q 24.75 34.625 20.71875 30.859375 
Q 16.703125 27.09375 16.703125 20.515625 
Q 16.703125 13.921875 20.71875 10.15625 
Q 24.75 6.390625 31.78125 6.390625 
Q 38.8125 6.390625 42.859375 10.171875 
Q 46.921875 13.96875 46.921875 20.515625 
Q 46.921875 27.09375 42.890625 30.859375 
Q 38.875 34.625 31.78125 34.625 
z
M 21.921875 38.8125 
Q 15.578125 40.375 12.03125 44.71875 
Q 8.5 49.078125 8.5 55.328125 
Q 8.5 64.0625 14.71875 69.140625 
Q 20.953125 74.21875 31.78125 74.21875 
Q 42.671875 74.21875 48.875 69.140625 
Q 55.078125 64.0625 55.078125 55.328125 
Q 55.078125 49.078125 51.53125 44.71875 
Q 48 40.375 41.703125 38.8125 
Q 48.828125 37.15625 52.796875 32.3125 
Q 56.78125 27.484375 56.78125 20.515625 
Q 56.78125 9.90625 50.3125 4.234375 
Q 43.84375 -1.421875 31.78125 -1.421875 
Q 19.734375 -1.421875 13.25 4.234375 
Q 6.78125 9.90625 6.78125 20.515625 
Q 6.78125 27.484375 10.78125 32.3125 
Q 14.796875 37.15625 21.921875 38.8125 
z
M 18.3125 54.390625 
Q 18.3125 48.734375 21.84375 45.5625 
Q 25.390625 42.390625 31.78125 42.390625 
Q 38.140625 42.390625 41.71875 45.5625 
Q 45.3125 48.734375 45.3125 54.390625 
Q 45.3125 60.0625 41.71875 63.234375 
Q 38.140625 66.40625 31.78125 66.40625 
Q 25.390625 66.40625 21.84375 63.234375 
Q 18.3125 60.0625 18.3125 54.390625 
z
" id="DejaVuSans-56"/>
      </defs>
      <g transform="translate(1087.03842 619.918437)scale(0.1 -0.1)">
       <use xlink:href="#DejaVuSans-48"/>
       <use x="63.623047" xlink:href="#DejaVuSans-46"/>
       <use x="95.410156" xlink:href="#DejaVuSans-56"/>
      </g>
     </g>
    </g>
    <g id="xtick_5">
     <g id="line2d_5">
      <g>
       <use style="stroke:#000000;stroke-width:0.8;" x="1355.693263" xlink:href="#m0fb2ce6f5d" y="605.32"/>
      </g>
     </g>
     <g id="text_5">
      <!-- 1.0 -->
      <defs>
       <path d="M 12.40625 8.296875 
L 28.515625 8.296875 
L 28.515625 63.921875 
L 10.984375 60.40625 
L 10.984375 69.390625 
L 28.421875 72.90625 
L 38.28125 72.90625 
L 38.28125 8.296875 
L 54.390625 8.296875 
L 54.390625 0 
L 12.40625 0 
z
" id="DejaVuSans-49"/>
      </defs>
      <g transform="translate(1347.7417 619.918437)scale(0.1 -0.1)">
       <use xlink:href="#DejaVuSans-49"/>
       <use x="63.623047" xlink:href="#DejaVuSans-46"/>
       <use x="95.410156" xlink:href="#DejaVuSans-48"/>
      </g>
     </g>
    </g>
    <g id="text_6">
     <!-- Time [$s$] -->
     <defs>
      <path d="M -0.296875 72.90625 
L 61.375 72.90625 
L 61.375 64.59375 
L 35.5 64.59375 
L 35.5 0 
L 25.59375 0 
L 25.59375 64.59375 
L -0.296875 64.59375 
z
" id="DejaVuSans-84"/>
      <path d="M 9.421875 54.6875 
L 18.40625 54.6875 
L 18.40625 0 
L 9.421875 0 
z
M 9.421875 75.984375 
L 18.40625 75.984375 
L 18.40625 64.59375 
L 9.421875 64.59375 
z
" id="DejaVuSans-105"/>
      <path d="M 52 44.1875 
Q 55.375 50.25 60.0625 53.125 
Q 64.75 56 71.09375 56 
Q 79.640625 56 84.28125 50.015625 
Q 88.921875 44.046875 88.921875 33.015625 
L 88.921875 0 
L 79.890625 0 
L 79.890625 32.71875 
Q 79.890625 40.578125 77.09375 44.375 
Q 74.3125 48.1875 68.609375 48.1875 
Q 61.625 48.1875 57.5625 43.546875 
Q 53.515625 38.921875 53.515625 30.90625 
L 53.515625 0 
L 44.484375 0 
L 44.484375 32.71875 
Q 44.484375 40.625 41.703125 44.40625 
Q 38.921875 48.1875 33.109375 48.1875 
Q 26.21875 48.1875 22.15625 43.53125 
Q 18.109375 38.875 18.109375 30.90625 
L 18.109375 0 
L 9.078125 0 
L 9.078125 54.6875 
L 18.109375 54.6875 
L 18.109375 46.1875 
Q 21.1875 51.21875 25.484375 53.609375 
Q 29.78125 56 35.6875 56 
Q 41.65625 56 45.828125 52.96875 
Q 50 49.953125 52 44.1875 
z
" id="DejaVuSans-109"/>
      <path d="M 56.203125 29.59375 
L 56.203125 25.203125 
L 14.890625 25.203125 
Q 15.484375 15.921875 20.484375 11.0625 
Q 25.484375 6.203125 34.421875 6.203125 
Q 39.59375 6.203125 44.453125 7.46875 
Q 49.3125 8.734375 54.109375 11.28125 
L 54.109375 2.78125 
Q 49.265625 0.734375 44.1875 -0.34375 
Q 39.109375 -1.421875 33.890625 -1.421875 
Q 20.796875 -1.421875 13.15625 6.1875 
Q 5.515625 13.8125 5.515625 26.8125 
Q 5.515625 40.234375 12.765625 48.109375 
Q 20.015625 56 32.328125 56 
Q 43.359375 56 49.78125 48.890625 
Q 56.203125 41.796875 56.203125 29.59375 
z
M 47.21875 32.234375 
Q 47.125 39.59375 43.09375 43.984375 
Q 39.0625 48.390625 32.421875 48.390625 
Q 24.90625 48.390625 20.390625 44.140625 
Q 15.875 39.890625 15.1875 32.171875 
z
" id="DejaVuSans-101"/>
      <path id="DejaVuSans-32"/>
      <path d="M 8.59375 75.984375 
L 29.296875 75.984375 
L 29.296875 69 
L 17.578125 69 
L 17.578125 -6.203125 
L 29.296875 -6.203125 
L 29.296875 -13.1875 
L 8.59375 -13.1875 
z
" id="DejaVuSans-91"/>
      <path d="M 50 53.078125 
L 48.296875 44.578125 
Q 44.734375 46.53125 40.765625 47.5 
Q 36.8125 48.484375 32.625 48.484375 
Q 25.53125 48.484375 21.453125 46.0625 
Q 17.390625 43.65625 17.390625 39.5 
Q 17.390625 34.671875 26.859375 32.078125 
Q 27.59375 31.890625 27.9375 31.78125 
L 30.8125 30.90625 
Q 39.796875 28.421875 42.796875 25.6875 
Q 45.796875 22.953125 45.796875 18.21875 
Q 45.796875 9.515625 38.890625 4.046875 
Q 31.984375 -1.421875 20.796875 -1.421875 
Q 16.453125 -1.421875 11.671875 -0.578125 
Q 6.890625 0.25 1.125 2 
L 2.875 11.28125 
Q 7.8125 8.734375 12.59375 7.421875 
Q 17.390625 6.109375 21.78125 6.109375 
Q 28.375 6.109375 32.5 8.9375 
Q 36.625 11.765625 36.625 16.109375 
Q 36.625 20.796875 25.78125 23.6875 
L 24.859375 23.921875 
L 21.78125 24.703125 
Q 14.9375 26.515625 11.765625 29.46875 
Q 8.59375 32.421875 8.59375 37.015625 
Q 8.59375 45.75 15.15625 50.875 
Q 21.734375 56 33.015625 56 
Q 37.453125 56 41.671875 55.265625 
Q 45.90625 54.546875 50 53.078125 
z
" id="DejaVuSans-Oblique-115"/>
      <path d="M 30.421875 75.984375 
L 30.421875 -13.1875 
L 9.71875 -13.1875 
L 9.71875 -6.203125 
L 21.390625 -6.203125 
L 21.390625 69 
L 9.71875 69 
L 9.71875 75.984375 
z
" id="DejaVuSans-93"/>
     </defs>
     <g transform="translate(684.15 638.155625)scale(0.16 -0.16)">
      <use transform="translate(0 0.015625)" xlink:href="#DejaVuSans-84"/>
      <use transform="translate(61.083984 0.015625)" xlink:href="#DejaVuSans-105"/>
      <use transform="translate(88.867188 0.015625)" xlink:href="#DejaVuSans-109"/>
      <use transform="translate(186.279297 0.015625)" xlink:href="#DejaVuSans-101"/>
      <use transform="translate(247.802734 0.015625)" xlink:href="#DejaVuSans-32"/>
      <use transform="translate(279.589844 0.015625)" xlink:href="#DejaVuSans-91"/>
      <use transform="translate(318.603516 0.015625)" xlink:href="#DejaVuSans-Oblique-115"/>
      <use transform="translate(370.703125 0.015625)" xlink:href="#DejaVuSans-93"/>
     </g>
    </g>
    <g id="text_7">
     <!-- 1e−4 -->
     <defs>
      <path d="M 10.59375 35.5 
L 73.1875 35.5 
L 73.1875 27.203125 
L 10.59375 27.203125 
z
" id="DejaVuSans-8722"/>
     </defs>
     <g transform="translate(1344.342187 632.596562)scale(0.1 -0.1)">
      <use xlink:href="#DejaVuSans-49"/>
      <use x="63.623047" xlink:href="#DejaVuSans-101"/>
      <use x="125.146484" xlink:href="#DejaVuSans-8722"/>
      <use x="208.935547" xlink:href="#DejaVuSans-52"/>
     </g>
    </g>
   </g>
   <g id="matplotlib.axis_2">
    <g id="ytick_1">
     <g id="line2d_6">
      <defs>
       <path d="M 0 0 
L -3.5 0 
" id="m8fce89553d" style="stroke:#000000;stroke-width:0.8;"/>
      </defs>
      <g>
       <use style="stroke:#000000;stroke-width:0.8;" x="62.3" xlink:href="#m8fce89553d" y="599.394678"/>
      </g>
     </g>
     <g id="text_8">
      <!-- −10 -->
      <g transform="translate(34.195312 603.193897)scale(0.1 -0.1)">
       <use xlink:href="#DejaVuSans-8722"/>
       <use x="83.789062" xlink:href="#DejaVuSans-49"/>
       <use x="147.412109" xlink:href="#DejaVuSans-48"/>
      </g>
     </g>
    </g>
    <g id="ytick_2">
     <g id="line2d_7">
      <g>
       <use style="stroke:#000000;stroke-width:0.8;" x="62.3" xlink:href="#m8fce89553d" y="498.010389"/>
      </g>
     </g>
     <g id="text_9">
      <!-- −8 -->
      <g transform="translate(40.557812 501.809608)scale(0.1 -0.1)">
       <use xlink:href="#DejaVuSans-8722"/>
       <use x="83.789062" xlink:href="#DejaVuSans-56"/>
      </g>
     </g>
    </g>
    <g id="ytick_3">
     <g id="line2d_8">
      <g>
       <use style="stroke:#000000;stroke-width:0.8;" x="62.3" xlink:href="#m8fce89553d" y="396.6261"/>
      </g>
     </g>
     <g id="text_10">
      <!-- −6 -->
      <g transform="translate(40.557812 400.425319)scale(0.1 -0.1)">
       <use xlink:href="#DejaVuSans-8722"/>
       <use x="83.789062" xlink:href="#DejaVuSans-54"/>
      </g>
     </g>
    </g>
    <g id="ytick_4">
     <g id="line2d_9">
      <g>
       <use style="stroke:#000000;stroke-width:0.8;" x="62.3" xlink:href="#m8fce89553d" y="295.241811"/>
      </g>
     </g>
     <g id="text_11">
      <!-- −4 -->
      <g transform="translate(40.557812 299.041029)scale(0.1 -0.1)">
       <use xlink:href="#DejaVuSans-8722"/>
       <use x="83.789062" xlink:href="#DejaVuSans-52"/>
      </g>
     </g>
    </g>
    <g id="ytick_5">
     <g id="line2d_10">
      <g>
       <use style="stroke:#000000;stroke-width:0.8;" x="62.3" xlink:href="#m8fce89553d" y="193.857521"/>
      </g>
     </g>
     <g id="text_12">
      <!-- −2 -->
      <g transform="translate(40.557812 197.65674)scale(0.1 -0.1)">
       <use xlink:href="#DejaVuSans-8722"/>
       <use x="83.789062" xlink:href="#DejaVuSans-50"/>
      </g>
     </g>
    </g>
    <g id="ytick_6">
     <g id="line2d_11">
      <g>
       <use style="stroke:#000000;stroke-width:0.8;" x="62.3" xlink:href="#m8fce89553d" y="92.473232"/>
      </g>
     </g>
     <g id="text_13">
      <!-- 0 -->
      <g transform="translate(48.9375 96.272451)scale(0.1 -0.1)">
       <use xlink:href="#DejaVuSans-48"/>
      </g>
     </g>
    </g>
    <g id="text_14">
     <!-- Voltage [$V$] -->
     <defs>
      <path d="M 28.609375 0 
L 0.78125 72.90625 
L 11.078125 72.90625 
L 34.1875 11.53125 
L 57.328125 72.90625 
L 67.578125 72.90625 
L 39.796875 0 
z
" id="DejaVuSans-86"/>
      <path d="M 30.609375 48.390625 
Q 23.390625 48.390625 19.1875 42.75 
Q 14.984375 37.109375 14.984375 27.296875 
Q 14.984375 17.484375 19.15625 11.84375 
Q 23.34375 6.203125 30.609375 6.203125 
Q 37.796875 6.203125 41.984375 11.859375 
Q 46.1875 17.53125 46.1875 27.296875 
Q 46.1875 37.015625 41.984375 42.703125 
Q 37.796875 48.390625 30.609375 48.390625 
z
M 30.609375 56 
Q 42.328125 56 49.015625 48.375 
Q 55.71875 40.765625 55.71875 27.296875 
Q 55.71875 13.875 49.015625 6.21875 
Q 42.328125 -1.421875 30.609375 -1.421875 
Q 18.84375 -1.421875 12.171875 6.21875 
Q 5.515625 13.875 5.515625 27.296875 
Q 5.515625 40.765625 12.171875 48.375 
Q 18.84375 56 30.609375 56 
z
" id="DejaVuSans-111"/>
      <path d="M 9.421875 75.984375 
L 18.40625 75.984375 
L 18.40625 0 
L 9.421875 0 
z
" id="DejaVuSans-108"/>
      <path d="M 18.3125 70.21875 
L 18.3125 54.6875 
L 36.8125 54.6875 
L 36.8125 47.703125 
L 18.3125 47.703125 
L 18.3125 18.015625 
Q 18.3125 11.328125 20.140625 9.421875 
Q 21.96875 7.515625 27.59375 7.515625 
L 36.8125 7.515625 
L 36.8125 0 
L 27.59375 0 
Q 17.1875 0 13.234375 3.875 
Q 9.28125 7.765625 9.28125 18.015625 
L 9.28125 47.703125 
L 2.6875 47.703125 
L 2.6875 54.6875 
L 9.28125 54.6875 
L 9.28125 70.21875 
z
" id="DejaVuSans-116"/>
      <path d="M 34.28125 27.484375 
Q 23.390625 27.484375 19.1875 25 
Q 14.984375 22.515625 14.984375 16.5 
Q 14.984375 11.71875 18.140625 8.90625 
Q 21.296875 6.109375 26.703125 6.109375 
Q 34.1875 6.109375 38.703125 11.40625 
Q 43.21875 16.703125 43.21875 25.484375 
L 43.21875 27.484375 
z
M 52.203125 31.203125 
L 52.203125 0 
L 43.21875 0 
L 43.21875 8.296875 
Q 40.140625 3.328125 35.546875 0.953125 
Q 30.953125 -1.421875 24.3125 -1.421875 
Q 15.921875 -1.421875 10.953125 3.296875 
Q 6 8.015625 6 15.921875 
Q 6 25.140625 12.171875 29.828125 
Q 18.359375 34.515625 30.609375 34.515625 
L 43.21875 34.515625 
L 43.21875 35.40625 
Q 43.21875 41.609375 39.140625 45 
Q 35.0625 48.390625 27.6875 48.390625 
Q 23 48.390625 18.546875 47.265625 
Q 14.109375 46.140625 10.015625 43.890625 
L 10.015625 52.203125 
Q 14.9375 54.109375 19.578125 55.046875 
Q 24.21875 56 28.609375 56 
Q 40.484375 56 46.34375 49.84375 
Q 52.203125 43.703125 52.203125 31.203125 
z
" id="DejaVuSans-97"/>
      <path d="M 45.40625 27.984375 
Q 45.40625 37.75 41.375 43.109375 
Q 37.359375 48.484375 30.078125 48.484375 
Q 22.859375 48.484375 18.828125 43.109375 
Q 14.796875 37.75 14.796875 27.984375 
Q 14.796875 18.265625 18.828125 12.890625 
Q 22.859375 7.515625 30.078125 7.515625 
Q 37.359375 7.515625 41.375 12.890625 
Q 45.40625 18.265625 45.40625 27.984375 
z
M 54.390625 6.78125 
Q 54.390625 -7.171875 48.1875 -13.984375 
Q 42 -20.796875 29.203125 -20.796875 
Q 24.46875 -20.796875 20.265625 -20.09375 
Q 16.0625 -19.390625 12.109375 -17.921875 
L 12.109375 -9.1875 
Q 16.0625 -11.328125 19.921875 -12.34375 
Q 23.78125 -13.375 27.78125 -13.375 
Q 36.625 -13.375 41.015625 -8.765625 
Q 45.40625 -4.15625 45.40625 5.171875 
L 45.40625 9.625 
Q 42.625 4.78125 38.28125 2.390625 
Q 33.9375 0 27.875 0 
Q 17.828125 0 11.671875 7.65625 
Q 5.515625 15.328125 5.515625 27.984375 
Q 5.515625 40.671875 11.671875 48.328125 
Q 17.828125 56 27.875 56 
Q 33.9375 56 38.28125 53.609375 
Q 42.625 51.21875 45.40625 46.390625 
L 45.40625 54.6875 
L 54.390625 54.6875 
z
" id="DejaVuSans-103"/>
      <path d="M 20.609375 0 
L 7.8125 72.90625 
L 17.484375 72.90625 
L 28.078125 10.203125 
L 63.484375 72.90625 
L 74.21875 72.90625 
L 32.078125 0 
z
" id="DejaVuSans-Oblique-86"/>
     </defs>
     <g transform="translate(26.835312 353.02)rotate(-90)scale(0.16 -0.16)">
      <use transform="translate(0 0.015625)" xlink:href="#DejaVuSans-86"/>
      <use transform="translate(68.408203 0.015625)" xlink:href="#DejaVuSans-111"/>
      <use transform="translate(129.589844 0.015625)" xlink:href="#DejaVuSans-108"/>
      <use transform="translate(157.373047 0.015625)" xlink:href="#DejaVuSans-116"/>
      <use transform="translate(196.582031 0.015625)" xlink:href="#DejaVuSans-97"/>
      <use transform="translate(257.861328 0.015625)" xlink:href="#DejaVuSans-103"/>
      <use transform="translate(321.337891 0.015625)" xlink:href="#DejaVuSans-101"/>
      <use transform="translate(382.861328 0.015625)" xlink:href="#DejaVuSans-32"/>
      <use transform="translate(414.648438 0.015625)" xlink:href="#DejaVuSans-91"/>
      <use transform="translate(453.662109 0.015625)" xlink:href="#DejaVuSans-Oblique-86"/>
      <use transform="translate(522.070312 0.015625)" xlink:href="#DejaVuSans-93"/>
     </g>
    </g>
   </g>
   <g id="line2d_12">
    <path clip-path="url(#pe18546d2cc)" d="M 65.212027 546.034667 
L 78.247191 498.292045 
L 91.282355 455.576013 
L 104.317519 417.357908 
L 117.352683 383.164666 
L 130.387847 352.572978 
L 143.423011 325.204055 
L 156.458175 300.718948 
L 169.493339 278.814353 
L 182.528503 259.218868 
L 195.563667 241.689633 
L 208.598831 226.00933 
L 221.633995 211.9835 
L 234.669159 199.438131 
L 247.704323 188.217514 
L 260.739487 178.182317 
L 273.774651 169.20786 
L 286.809815 161.182576 
L 299.844979 154.006632 
L 312.880143 147.590694 
L 325.915307 141.854822 
L 338.950471 136.727486 
L 351.985635 132.144674 
L 365.020799 128.049111 
L 378.055963 124.389542 
L 391.091127 121.120102 
L 404.126291 118.199751 
L 417.161455 115.591765 
L 430.196619 113.26328 
L 443.231783 111.184889 
L 456.266947 109.330277 
L 469.302111 107.675898 
L 482.337275 106.200678 
L 495.372439 104.885763 
L 508.407603 103.714278 
L 521.442767 102.671126 
L 534.477931 101.742794 
L 547.513095 100.917191 
L 560.548259 100.183498 
L 573.583423 99.532031 
L 586.618587 98.954127 
L 599.653751 98.442031 
L 612.688915 97.988805 
L 625.724079 97.588239 
L 638.759243 97.234776 
L 651.794407 96.923443 
L 664.829571 96.649791 
L 677.864735 96.409835 
L 690.899899 96.200011 
L 703.935063 96.01713 
L 716.970227 95.858336 
L 730.005391 95.721074 
L 743.040555 95.603057 
L 756.075719 95.502239 
L 769.110883 95.416786 
L 782.146047 95.34506 
L 795.181211 95.285591 
L 808.216375 95.237067 
L 821.251539 95.198311 
L 834.286703 95.168269 
L 847.321867 95.146 
L 860.357031 95.130659 
L 873.392195 95.121491 
L 886.427359 95.117818 
L 899.462523 95.119035 
L 912.497687 95.124599 
L 925.532851 95.134025 
L 938.568015 95.146875 
L 951.603179 95.162762 
L 964.638343 95.181335 
L 977.673507 95.202281 
L 990.708671 95.225319 
L 1003.743835 95.250198 
L 1016.778999 95.276693 
L 1029.814163 95.304601 
L 1042.849327 95.333741 
L 1055.884491 95.36395 
L 1068.919655 95.395082 
L 1081.954819 95.427007 
L 1094.989983 95.459606 
L 1108.025147 95.492773 
L 1121.060311 95.526415 
L 1134.095475 95.560445 
L 1147.130639 95.594786 
L 1160.165803 95.62937 
L 1173.200967 95.664135 
L 1186.236131 95.699023 
L 1199.271295 95.733986 
L 1212.306459 95.768977 
L 1225.341623 95.803954 
L 1238.376787 95.838882 
L 1251.411951 95.873726 
L 1264.447115 95.908455 
L 1277.482279 95.943043 
L 1290.517443 95.977464 
L 1303.552607 96.011695 
L 1316.587771 96.045715 
L 1329.622935 96.079507 
L 1342.658099 96.113052 
L 1355.693263 96.146335 
L 1368.728427 96.179341 
L 1381.763591 96.212057 
" style="fill:none;stroke:#1f77b4;stroke-linecap:square;stroke-width:1.5;"/>
   </g>
   <g id="line2d_13">
    <path clip-path="url(#pe18546d2cc)" d="M 65.212027 97.8091 
L 78.247191 102.582709 
L 91.282355 106.852661 
L 104.317519 110.671394 
L 117.352683 114.08583 
L 130.387847 117.137959 
L 143.423011 119.865353 
L 156.458175 122.301634 
L 169.493339 124.476887 
L 182.528503 126.418034 
L 195.563667 128.149168 
L 208.598831 129.691845 
L 221.633995 131.065357 
L 234.669159 132.286968 
L 247.704323 133.372125 
L 260.739487 134.334654 
L 273.774651 135.186926 
L 286.809815 135.940011 
L 299.844979 136.603818 
L 312.880143 137.187213 
L 325.915307 137.698132 
L 338.950471 138.143676 
L 351.985635 138.530203 
L 365.020799 138.8634 
L 378.055963 139.14836 
L 391.091127 139.389641 
L 404.126291 139.591322 
L 417.161455 139.757055 
L 430.196619 139.890112 
L 443.231783 139.993417 
L 456.266947 140.069594 
L 469.302111 140.120988 
L 482.337275 140.149702 
L 495.372439 140.157618 
L 508.407603 140.146424 
L 521.442767 140.117629 
L 534.477931 140.072589 
L 547.513095 140.012515 
L 560.548259 139.938498 
L 573.583423 139.851511 
L 586.618587 139.752431 
L 599.653751 139.642042 
L 612.688915 139.521049 
L 625.724079 139.390086 
L 638.759243 139.249722 
L 651.794407 139.100466 
L 664.829571 138.942781 
L 677.864735 138.777079 
L 690.899899 138.603733 
L 703.935063 138.42308 
L 716.970227 138.235424 
L 730.005391 138.041039 
L 743.040555 137.840172 
L 756.075719 137.633049 
L 769.110883 137.419874 
L 782.146047 137.200831 
L 795.181211 136.97609 
L 808.216375 136.745805 
L 821.251539 136.510115 
L 834.286703 136.269151 
L 847.321867 136.02303 
L 860.357031 135.771861 
L 873.392195 135.515745 
L 886.427359 135.254776 
L 899.462523 134.989039 
L 912.497687 134.718616 
L 925.532851 134.443583 
L 938.568015 134.16401 
L 951.603179 133.879965 
L 964.638343 133.591511 
L 977.673507 133.298707 
L 990.708671 133.001612 
L 1003.743835 132.70028 
L 1016.778999 132.394764 
L 1029.814163 132.085115 
L 1042.849327 131.771381 
L 1055.884491 131.45361 
L 1068.919655 131.13185 
L 1081.954819 130.806144 
L 1094.989983 130.476538 
L 1108.025147 130.143074 
L 1121.060311 129.805797 
L 1134.095475 129.464747 
L 1147.130639 129.119967 
L 1160.165803 128.771499 
L 1173.200967 128.419382 
L 1186.236131 128.063659 
L 1199.271295 127.704369 
L 1212.306459 127.341553 
L 1225.341623 126.975252 
L 1238.376787 126.605506 
L 1251.411951 126.232355 
L 1264.447115 125.85584 
L 1277.482279 125.476 
L 1290.517443 125.092877 
L 1303.552607 124.706512 
L 1316.587771 124.316944 
L 1329.622935 123.924214 
L 1342.658099 123.528365 
L 1355.693263 123.129436 
L 1368.728427 122.727469 
L 1381.763591 122.322506 
" style="fill:none;stroke:#ff7f0e;stroke-linecap:square;stroke-width:1.5;"/>
   </g>
   <g id="line2d_14">
    <path clip-path="url(#pe18546d2cc)" d="M 65.212027 92.473232 
L 78.247191 92.473232 
L 91.282355 92.473232 
L 104.317519 92.473232 
L 117.352683 92.473232 
L 130.387847 92.473232 
L 143.423011 92.473232 
L 156.458175 92.473232 
L 169.493339 92.473232 
L 182.528503 92.473232 
L 195.563667 92.473232 
L 208.598831 92.473232 
L 221.633995 92.473232 
L 234.669159 92.473232 
L 247.704323 92.473232 
L 260.739487 92.473232 
L 273.774651 92.473232 
L 286.809815 92.473232 
L 299.844979 92.473232 
L 312.880143 92.473232 
L 325.915307 92.473232 
L 338.950471 92.473232 
L 351.985635 92.473232 
L 365.020799 92.473232 
L 378.055963 92.473232 
L 391.091127 92.473232 
L 404.126291 92.473232 
L 417.161455 92.473232 
L 430.196619 92.473232 
L 443.231783 92.473232 
L 456.266947 92.473232 
L 469.302111 92.473232 
L 482.337275 92.473232 
L 495.372439 92.473232 
L 508.407603 92.473232 
L 521.442767 92.473232 
L 534.477931 92.473232 
L 547.513095 92.473232 
L 560.548259 92.473232 
L 573.583423 92.473232 
L 586.618587 92.473232 
L 599.653751 92.473232 
L 612.688915 92.473232 
L 625.724079 92.473232 
L 638.759243 92.473232 
L 651.794407 92.473232 
L 664.829571 92.473232 
L 677.864735 92.473232 
L 690.899899 92.473232 
L 703.935063 92.473232 
L 716.970227 92.473232 
L 730.005391 92.473232 
L 743.040555 92.473232 
L 756.075719 92.473232 
L 769.110883 92.473232 
L 782.146047 92.473232 
L 795.181211 92.473232 
L 808.216375 92.473232 
L 821.251539 92.473232 
L 834.286703 92.473232 
L 847.321867 92.473232 
L 860.357031 92.473232 
L 873.392195 92.473232 
L 886.427359 92.473232 
L 899.462523 92.473232 
L 912.497687 92.473232 
L 925.532851 92.473232 
L 938.568015 92.473232 
L 951.603179 92.473232 
L 964.638343 92.473232 
L 977.673507 92.473232 
L 990.708671 92.473232 
L 1003.743835 92.473232 
L 1016.778999 92.473232 
L 1029.814163 92.473232 
L 1042.849327 92.473232 
L 1055.884491 92.473232 
L 1068.919655 92.473232 
L 1081.954819 92.473232 
L 1094.989983 92.473232 
L 1108.025147 92.473232 
L 1121.060311 92.473232 
L 1134.095475 92.473232 
L 1147.130639 92.473232 
L 1160.165803 92.473232 
L 1173.200967 92.473232 
L 1186.236131 92.473232 
L 1199.271295 92.473232 
L 1212.306459 92.473232 
L 1225.341623 92.473232 
L 1238.376787 92.473232 
L 1251.411951 92.473232 
L 1264.447115 92.473232 
L 1277.482279 92.473232 
L 1290.517443 92.473232 
L 1303.552607 92.473232 
L 1316.587771 92.473232 
L 1329.622935 92.473232 
L 1342.658099 92.473232 
L 1355.693263 92.473232 
L 1368.728427 92.473232 
L 1381.763591 92.473232 
" style="fill:none;stroke:#2ca02c;stroke-linecap:square;stroke-width:1.5;"/>
   </g>
   <g id="line2d_15">
    <path clip-path="url(#pe18546d2cc)" d="M 65.212027 140.497376 
L 78.247191 183.466388 
L 91.282355 221.912468 
L 104.317519 256.311841 
L 117.352683 287.090647 
L 130.387847 314.630205 
L 143.423011 339.271734 
L 156.458175 361.320561 
L 169.493339 381.049903 
L 182.528503 398.704241 
L 195.563667 414.502342 
L 208.598831 428.639967 
L 221.633995 441.292286 
L 234.669159 452.616044 
L 247.704323 462.751503 
L 260.739487 471.824171 
L 273.774651 479.946357 
L 286.809815 487.218556 
L 299.844979 493.730693 
L 312.880143 499.563236 
L 325.915307 504.788188 
L 338.950471 509.469981 
L 351.985635 513.666265 
L 365.020799 517.428632 
L 378.055963 520.803241 
L 391.091127 523.8314 
L 404.126291 526.550069 
L 417.161455 528.992322 
L 430.196619 531.187751 
L 443.231783 533.162836 
L 456.266947 534.941271 
L 469.302111 536.544257 
L 482.337275 537.990763 
L 495.372439 539.297761 
L 508.407603 540.48044 
L 521.442767 541.552387 
L 534.477931 542.52576 
L 547.513095 543.411436 
L 560.548259 544.219147 
L 573.583423 544.9576 
L 586.618587 545.634585 
L 599.653751 546.25707 
L 612.688915 546.831288 
L 625.724079 547.362817 
L 638.759243 547.856645 
L 651.794407 548.317233 
L 664.829571 548.748571 
L 677.864735 549.154229 
L 690.899899 549.537398 
L 703.935063 549.900932 
L 716.970227 550.247382 
L 730.005391 550.57903 
L 743.040555 550.897913 
L 756.075719 551.205855 
L 769.110883 551.504483 
L 782.146047 551.795252 
L 795.181211 552.079461 
L 808.216375 552.358271 
L 821.251539 552.632716 
L 834.286703 552.903722 
L 847.321867 553.172112 
L 860.357031 553.438622 
L 873.392195 553.703907 
L 886.427359 553.968549 
L 899.462523 554.233068 
L 912.497687 554.497927 
L 925.532851 554.763535 
L 938.568015 555.030257 
L 951.603179 555.298415 
L 964.638343 555.568297 
L 977.673507 555.840154 
L 990.708671 556.114211 
L 1003.743835 556.390664 
L 1016.778999 556.669685 
L 1029.814163 556.951427 
L 1042.849327 557.236021 
L 1055.884491 557.523582 
L 1068.919655 557.81421 
L 1081.954819 558.107992 
L 1094.989983 558.404999 
L 1108.025147 558.705295 
L 1121.060311 559.008931 
L 1134.095475 559.315951 
L 1147.130639 559.626389 
L 1160.165803 559.940274 
L 1173.200967 560.257626 
L 1186.236131 560.57846 
L 1199.271295 560.902788 
L 1212.306459 561.230613 
L 1225.341623 561.561936 
L 1238.376787 561.896755 
L 1251.411951 562.235062 
L 1264.447115 562.576848 
L 1277.482279 562.922099 
L 1290.517443 563.270801 
L 1303.552607 563.622936 
L 1316.587771 563.978483 
L 1329.622935 564.337421 
L 1342.658099 564.699726 
L 1355.693263 565.065372 
L 1368.728427 565.434333 
L 1381.763591 565.806579 
" style="fill:none;stroke:#d62728;stroke-linecap:square;stroke-width:1.5;"/>
   </g>
   <g id="line2d_16">
    <path clip-path="url(#pe18546d2cc)" d="M 65.212027 97.8091 
L 78.247191 102.582709 
L 91.282355 106.852661 
L 104.317519 110.671394 
L 117.352683 114.08583 
L 130.387847 117.137959 
L 143.423011 119.865353 
L 156.458175 122.301634 
L 169.493339 124.476887 
L 182.528503 126.418034 
L 195.563667 128.149168 
L 208.598831 129.691845 
L 221.633995 131.065357 
L 234.669159 132.286968 
L 247.704323 133.372125 
L 260.739487 134.334654 
L 273.774651 135.186926 
L 286.809815 135.940011 
L 299.844979 136.603818 
L 312.880143 137.187213 
L 325.915307 137.698132 
L 338.950471 138.143676 
L 351.985635 138.530203 
L 365.020799 138.8634 
L 378.055963 139.14836 
L 391.091127 139.389641 
L 404.126291 139.591322 
L 417.161455 139.757055 
L 430.196619 139.890112 
L 443.231783 139.993417 
L 456.266947 140.069594 
L 469.302111 140.120988 
L 482.337275 140.149702 
L 495.372439 140.157618 
L 508.407603 140.146424 
L 521.442767 140.117629 
L 534.477931 140.072589 
L 547.513095 140.012515 
L 560.548259 139.938498 
L 573.583423 139.851511 
L 586.618587 139.752431 
L 599.653751 139.642042 
L 612.688915 139.521049 
L 625.724079 139.390086 
L 638.759243 139.249722 
L 651.794407 139.100466 
L 664.829571 138.942781 
L 677.864735 138.777079 
L 690.899899 138.603733 
L 703.935063 138.42308 
L 716.970227 138.235424 
L 730.005391 138.041039 
L 743.040555 137.840172 
L 756.075719 137.633049 
L 769.110883 137.419874 
L 782.146047 137.200831 
L 795.181211 136.97609 
L 808.216375 136.745805 
L 821.251539 136.510115 
L 834.286703 136.269151 
L 847.321867 136.02303 
L 860.357031 135.771861 
L 873.392195 135.515745 
L 886.427359 135.254776 
L 899.462523 134.989039 
L 912.497687 134.718616 
L 925.532851 134.443583 
L 938.568015 134.16401 
L 951.603179 133.879965 
L 964.638343 133.591511 
L 977.673507 133.298707 
L 990.708671 133.001612 
L 1003.743835 132.70028 
L 1016.778999 132.394764 
L 1029.814163 132.085115 
L 1042.849327 131.771381 
L 1055.884491 131.45361 
L 1068.919655 131.13185 
L 1081.954819 130.806144 
L 1094.989983 130.476538 
L 1108.025147 130.143074 
L 1121.060311 129.805797 
L 1134.095475 129.464747 
L 1147.130639 129.119967 
L 1160.165803 128.771499 
L 1173.200967 128.419382 
L 1186.236131 128.063659 
L 1199.271295 127.704369 
L 1212.306459 127.341553 
L 1225.341623 126.975252 
L 1238.376787 126.605506 
L 1251.411951 126.232355 
L 1264.447115 125.85584 
L 1277.482279 125.476 
L 1290.517443 125.092877 
L 1303.552607 124.706512 
L 1316.587771 124.316944 
L 1329.622935 123.924214 
L 1342.658099 123.528365 
L 1355.693263 123.129436 
L 1368.728427 122.727469 
L 1381.763591 122.322506 
" style="fill:none;stroke:#9467bd;stroke-linecap:square;stroke-width:1.5;"/>
   </g>
   <g id="line2d_17">
    <path clip-path="url(#pe18546d2cc)" d="M 65.212027 92.473232 
L 78.247191 92.473232 
L 91.282355 92.473232 
L 104.317519 92.473232 
L 117.352683 92.473232 
L 130.387847 92.473232 
L 143.423011 92.473232 
L 156.458175 92.473232 
L 169.493339 92.473232 
L 182.528503 92.473232 
L 195.563667 92.473232 
L 208.598831 92.473232 
L 221.633995 92.473232 
L 234.669159 92.473232 
L 247.704323 92.473232 
L 260.739487 92.473232 
L 273.774651 92.473232 
L 286.809815 92.473232 
L 299.844979 92.473232 
L 312.880143 92.473232 
L 325.915307 92.473232 
L 338.950471 92.473232 
L 351.985635 92.473232 
L 365.020799 92.473232 
L 378.055963 92.473232 
L 391.091127 92.473232 
L 404.126291 92.473232 
L 417.161455 92.473232 
L 430.196619 92.473232 
L 443.231783 92.473232 
L 456.266947 92.473232 
L 469.302111 92.473232 
L 482.337275 92.473232 
L 495.372439 92.473232 
L 508.407603 92.473232 
L 521.442767 92.473232 
L 534.477931 92.473232 
L 547.513095 92.473232 
L 560.548259 92.473232 
L 573.583423 92.473232 
L 586.618587 92.473232 
L 599.653751 92.473232 
L 612.688915 92.473232 
L 625.724079 92.473232 
L 638.759243 92.473232 
L 651.794407 92.473232 
L 664.829571 92.473232 
L 677.864735 92.473232 
L 690.899899 92.473232 
L 703.935063 92.473232 
L 716.970227 92.473232 
L 730.005391 92.473232 
L 743.040555 92.473232 
L 756.075719 92.473232 
L 769.110883 92.473232 
L 782.146047 92.473232 
L 795.181211 92.473232 
L 808.216375 92.473232 
L 821.251539 92.473232 
L 834.286703 92.473232 
L 847.321867 92.473232 
L 860.357031 92.473232 
L 873.392195 92.473232 
L 886.427359 92.473232 
L 899.462523 92.473232 
L 912.497687 92.473232 
L 925.532851 92.473232 
L 938.568015 92.473232 
L 951.603179 92.473232 
L 964.638343 92.473232 
L 977.673507 92.473232 
L 990.708671 92.473232 
L 1003.743835 92.473232 
L 1016.778999 92.473232 
L 1029.814163 92.473232 
L 1042.849327 92.473232 
L 1055.884491 92.473232 
L 1068.919655 92.473232 
L 1081.954819 92.473232 
L 1094.989983 92.473232 
L 1108.025147 92.473232 
L 1121.060311 92.473232 
L 1134.095475 92.473232 
L 1147.130639 92.473232 
L 1160.165803 92.473232 
L 1173.200967 92.473232 
L 1186.236131 92.473232 
L 1199.271295 92.473232 
L 1212.306459 92.473232 
L 1225.341623 92.473232 
L 1238.376787 92.473232 
L 1251.411951 92.473232 
L 1264.447115 92.473232 
L 1277.482279 92.473232 
L 1290.517443 92.473232 
L 1303.552607 92.473232 
L 1316.587771 92.473232 
L 1329.622935 92.473232 
L 1342.658099 92.473232 
L 1355.693263 92.473232 
L 1368.728427 92.473232 
L 1381.763591 92.473232 
" style="fill:none;stroke:#8c564b;stroke-linecap:square;stroke-width:1.5;"/>
   </g>
   <g id="line2d_18">
    <path clip-path="url(#pe18546d2cc)" style="fill:none;stroke:#e377c2;stroke-linecap:square;stroke-width:1.5;"/>
   </g>
   <g id="patch_3">
    <path d="M 62.3 605.32 
L 62.3 10.8 
" style="fill:none;stroke:#000000;stroke-linecap:square;stroke-linejoin:miter;stroke-width:0.8;"/>
   </g>
   <g id="patch_4">
    <path d="M 1371.6 605.32 
L 1371.6 10.8 
" style="fill:none;stroke:#000000;stroke-linecap:square;stroke-linejoin:miter;stroke-width:0.8;"/>
   </g>
   <g id="patch_5">
    <path d="M 62.3 605.32 
L 1371.6 605.32 
" style="fill:none;stroke:#000000;stroke-linecap:square;stroke-linejoin:miter;stroke-width:0.8;"/>
   </g>
   <g id="patch_6">
    <path d="M 62.3 10.8 
L 1371.6 10.8 
" style="fill:none;stroke:#000000;stroke-linecap:square;stroke-linejoin:miter;stroke-width:0.8;"/>
   </g>
   <g id="legend_1">
    <g id="patch_7">
     <path d="M 1265.8925 392.6575 
L 1360.4 392.6575 
Q 1363.6 392.6575 1363.6 389.4575 
L 1363.6 226.6625 
Q 1363.6 223.4625 1360.4 223.4625 
L 1265.8925 223.4625 
Q 1262.6925 223.4625 1262.6925 226.6625 
L 1262.6925 389.4575 
Q 1262.6925 392.6575 1265.8925 392.6575 
z
" style="fill:#ffffff;opacity:0.8;stroke:#cccccc;stroke-linejoin:miter;"/>
    </g>
    <g id="line2d_19">
     <path d="M 1269.0925 236.42 
L 1301.0925 236.42 
" style="fill:none;stroke:#1f77b4;stroke-linecap:square;stroke-width:1.5;"/>
    </g>
    <g id="line2d_20"/>
    <g id="text_15">
     <!-- v(R1) -->
     <defs>
      <path d="M 2.984375 54.6875 
L 12.5 54.6875 
L 29.59375 8.796875 
L 46.6875 54.6875 
L 56.203125 54.6875 
L 35.6875 0 
L 23.484375 0 
z
" id="DejaVuSans-118"/>
      <path d="M 31 75.875 
Q 24.46875 64.65625 21.28125 53.65625 
Q 18.109375 42.671875 18.109375 31.390625 
Q 18.109375 20.125 21.3125 9.0625 
Q 24.515625 -2 31 -13.1875 
L 23.1875 -13.1875 
Q 15.875 -1.703125 12.234375 9.375 
Q 8.59375 20.453125 8.59375 31.390625 
Q 8.59375 42.28125 12.203125 53.3125 
Q 15.828125 64.359375 23.1875 75.875 
z
" id="DejaVuSans-40"/>
      <path d="M 44.390625 34.1875 
Q 47.5625 33.109375 50.5625 29.59375 
Q 53.5625 26.078125 56.59375 19.921875 
L 66.609375 0 
L 56 0 
L 46.6875 18.703125 
Q 43.0625 26.03125 39.671875 28.421875 
Q 36.28125 30.8125 30.421875 30.8125 
L 19.671875 30.8125 
L 19.671875 0 
L 9.8125 0 
L 9.8125 72.90625 
L 32.078125 72.90625 
Q 44.578125 72.90625 50.734375 67.671875 
Q 56.890625 62.453125 56.890625 51.90625 
Q 56.890625 45.015625 53.6875 40.46875 
Q 50.484375 35.9375 44.390625 34.1875 
z
M 19.671875 64.796875 
L 19.671875 38.921875 
L 32.078125 38.921875 
Q 39.203125 38.921875 42.84375 42.21875 
Q 46.484375 45.515625 46.484375 51.90625 
Q 46.484375 58.296875 42.84375 61.546875 
Q 39.203125 64.796875 32.078125 64.796875 
z
" id="DejaVuSans-82"/>
      <path d="M 8.015625 75.875 
L 15.828125 75.875 
Q 23.140625 64.359375 26.78125 53.3125 
Q 30.421875 42.28125 30.421875 31.390625 
Q 30.421875 20.453125 26.78125 9.375 
Q 23.140625 -1.703125 15.828125 -13.1875 
L 8.015625 -13.1875 
Q 14.5 -2 17.703125 9.0625 
Q 20.90625 20.125 20.90625 31.390625 
Q 20.90625 42.671875 17.703125 53.65625 
Q 14.5 64.65625 8.015625 75.875 
z
" id="DejaVuSans-41"/>
     </defs>
     <g transform="translate(1313.8925 242.02)scale(0.16 -0.16)">
      <use xlink:href="#DejaVuSans-118"/>
      <use x="59.179688" xlink:href="#DejaVuSans-40"/>
      <use x="98.193359" xlink:href="#DejaVuSans-82"/>
      <use x="167.675781" xlink:href="#DejaVuSans-49"/>
      <use x="231.298828" xlink:href="#DejaVuSans-41"/>
     </g>
    </g>
    <g id="line2d_21">
     <path d="M 1269.0925 259.905 
L 1301.0925 259.905 
" style="fill:none;stroke:#ff7f0e;stroke-linecap:square;stroke-width:1.5;"/>
    </g>
    <g id="line2d_22"/>
    <g id="text_16">
     <!-- v(L1) -->
     <defs>
      <path d="M 9.8125 72.90625 
L 19.671875 72.90625 
L 19.671875 8.296875 
L 55.171875 8.296875 
L 55.171875 0 
L 9.8125 0 
z
" id="DejaVuSans-76"/>
     </defs>
     <g transform="translate(1313.8925 265.505)scale(0.16 -0.16)">
      <use xlink:href="#DejaVuSans-118"/>
      <use x="59.179688" xlink:href="#DejaVuSans-40"/>
      <use x="98.193359" xlink:href="#DejaVuSans-76"/>
      <use x="153.90625" xlink:href="#DejaVuSans-49"/>
      <use x="217.529297" xlink:href="#DejaVuSans-41"/>
     </g>
    </g>
    <g id="line2d_23">
     <path d="M 1269.0925 283.39 
L 1301.0925 283.39 
" style="fill:none;stroke:#2ca02c;stroke-linecap:square;stroke-width:1.5;"/>
    </g>
    <g id="line2d_24"/>
    <g id="text_17">
     <!-- v(L2) -->
     <g transform="translate(1313.8925 288.99)scale(0.16 -0.16)">
      <use xlink:href="#DejaVuSans-118"/>
      <use x="59.179688" xlink:href="#DejaVuSans-40"/>
      <use x="98.193359" xlink:href="#DejaVuSans-76"/>
      <use x="153.90625" xlink:href="#DejaVuSans-50"/>
      <use x="217.529297" xlink:href="#DejaVuSans-41"/>
     </g>
    </g>
    <g id="line2d_25">
     <path d="M 1269.0925 306.875 
L 1301.0925 306.875 
" style="fill:none;stroke:#d62728;stroke-linecap:square;stroke-width:1.5;"/>
    </g>
    <g id="line2d_26"/>
    <g id="text_18">
     <!-- v(C1) -->
     <defs>
      <path d="M 64.40625 67.28125 
L 64.40625 56.890625 
Q 59.421875 61.53125 53.78125 63.8125 
Q 48.140625 66.109375 41.796875 66.109375 
Q 29.296875 66.109375 22.65625 58.46875 
Q 16.015625 50.828125 16.015625 36.375 
Q 16.015625 21.96875 22.65625 14.328125 
Q 29.296875 6.6875 41.796875 6.6875 
Q 48.140625 6.6875 53.78125 8.984375 
Q 59.421875 11.28125 64.40625 15.921875 
L 64.40625 5.609375 
Q 59.234375 2.09375 53.4375 0.328125 
Q 47.65625 -1.421875 41.21875 -1.421875 
Q 24.65625 -1.421875 15.125 8.703125 
Q 5.609375 18.84375 5.609375 36.375 
Q 5.609375 53.953125 15.125 64.078125 
Q 24.65625 74.21875 41.21875 74.21875 
Q 47.75 74.21875 53.53125 72.484375 
Q 59.328125 70.75 64.40625 67.28125 
z
" id="DejaVuSans-67"/>
     </defs>
     <g transform="translate(1313.8925 312.475)scale(0.16 -0.16)">
      <use xlink:href="#DejaVuSans-118"/>
      <use x="59.179688" xlink:href="#DejaVuSans-40"/>
      <use x="98.193359" xlink:href="#DejaVuSans-67"/>
      <use x="168.017578" xlink:href="#DejaVuSans-49"/>
      <use x="231.640625" xlink:href="#DejaVuSans-41"/>
     </g>
    </g>
    <g id="line2d_27">
     <path d="M 1269.0925 330.36 
L 1301.0925 330.36 
" style="fill:none;stroke:#9467bd;stroke-linecap:square;stroke-width:1.5;"/>
    </g>
    <g id="line2d_28"/>
    <g id="text_19">
     <!-- v(C2) -->
     <g transform="translate(1313.8925 335.96)scale(0.16 -0.16)">
      <use xlink:href="#DejaVuSans-118"/>
      <use x="59.179688" xlink:href="#DejaVuSans-40"/>
      <use x="98.193359" xlink:href="#DejaVuSans-67"/>
      <use x="168.017578" xlink:href="#DejaVuSans-50"/>
      <use x="231.640625" xlink:href="#DejaVuSans-41"/>
     </g>
    </g>
    <g id="line2d_29">
     <path d="M 1269.0925 353.845 
L 1301.0925 353.845 
" style="fill:none;stroke:#8c564b;stroke-linecap:square;stroke-width:1.5;"/>
    </g>
    <g id="line2d_30"/>
    <g id="text_20">
     <!-- v(C3) -->
     <defs>
      <path d="M 40.578125 39.3125 
Q 47.65625 37.796875 51.625 33 
Q 55.609375 28.21875 55.609375 21.1875 
Q 55.609375 10.40625 48.1875 4.484375 
Q 40.765625 -1.421875 27.09375 -1.421875 
Q 22.515625 -1.421875 17.65625 -0.515625 
Q 12.796875 0.390625 7.625 2.203125 
L 7.625 11.71875 
Q 11.71875 9.328125 16.59375 8.109375 
Q 21.484375 6.890625 26.8125 6.890625 
Q 36.078125 6.890625 40.9375 10.546875 
Q 45.796875 14.203125 45.796875 21.1875 
Q 45.796875 27.640625 41.28125 31.265625 
Q 36.765625 34.90625 28.71875 34.90625 
L 20.21875 34.90625 
L 20.21875 43.015625 
L 29.109375 43.015625 
Q 36.375 43.015625 40.234375 45.921875 
Q 44.09375 48.828125 44.09375 54.296875 
Q 44.09375 59.90625 40.109375 62.90625 
Q 36.140625 65.921875 28.71875 65.921875 
Q 24.65625 65.921875 20.015625 65.03125 
Q 15.375 64.15625 9.8125 62.3125 
L 9.8125 71.09375 
Q 15.4375 72.65625 20.34375 73.4375 
Q 25.25 74.21875 29.59375 74.21875 
Q 40.828125 74.21875 47.359375 69.109375 
Q 53.90625 64.015625 53.90625 55.328125 
Q 53.90625 49.265625 50.4375 45.09375 
Q 46.96875 40.921875 40.578125 39.3125 
z
" id="DejaVuSans-51"/>
     </defs>
     <g transform="translate(1313.8925 359.445)scale(0.16 -0.16)">
      <use xlink:href="#DejaVuSans-118"/>
      <use x="59.179688" xlink:href="#DejaVuSans-40"/>
      <use x="98.193359" xlink:href="#DejaVuSans-67"/>
      <use x="168.017578" xlink:href="#DejaVuSans-51"/>
      <use x="231.640625" xlink:href="#DejaVuSans-41"/>
     </g>
    </g>
    <g id="line2d_31">
     <path d="M 1269.0925 377.33 
L 1301.0925 377.33 
" style="fill:none;stroke:#e377c2;stroke-linecap:square;stroke-width:1.5;"/>
    </g>
    <g id="line2d_32"/>
    <g id="text_21">
     <!-- v(V1) -->
     <g transform="translate(1313.8925 382.93)scale(0.16 -0.16)">
      <use xlink:href="#DejaVuSans-118"/>
      <use x="59.179688" xlink:href="#DejaVuSans-40"/>
      <use x="98.193359" xlink:href="#DejaVuSans-86"/>
      <use x="166.601562" xlink:href="#DejaVuSans-49"/>
      <use x="230.224609" xlink:href="#DejaVuSans-41"/>
     </g>
    </g>
   </g>
  </g>
 </g>
 <defs>
  <clipPath id="pe18546d2cc">
   <rect height="594.52" width="1309.3" x="62.3" y="10.8"/>
  </clipPath>
 </defs>
</svg>
