<?xml version="1.0" encoding="utf-8" standalone="no"?>
<!DOCTYPE svg PUBLIC "-//W3C//DTD SVG 1.1//EN"
  "http://www.w3.org/Graphics/SVG/1.1/DTD/svg11.dtd">
<!-- Created with matplotlib (https://matplotlib.org/) -->
<svg height="655.2pt" version="1.1" viewBox="0 0 1382.4 655.2" width="1382.4pt" xmlns="http://www.w3.org/2000/svg" xmlns:xlink="http://www.w3.org/1999/xlink">
 <defs>
  <style type="text/css">
*{stroke-linecap:butt;stroke-linejoin:round;}
  </style>
 </defs>
 <g id="figure_1">
  <g id="patch_1">
   <path d="M 0 655.2 
L 1382.4 655.2 
L 1382.4 0 
L 0 0 
z
" style="fill:#ffffff;"/>
  </g>
  <g id="axes_1">
   <g id="patch_2">
    <path d="M 168 560.635833 
L 1350 560.635833 
L 1350 41.1775 
L 168 41.1775 
z
" style="fill:#ffffff;"/>
   </g>
   <g id="matplotlib.axis_1">
    <g id="xtick_1">
     <g id="line2d_1">
      <defs>
       <path d="M 0 0 
L 0 3.5 
" id="m9b601adb0a" style="stroke:#000000;stroke-width:0.8;"/>
      </defs>
      <g>
       <use style="stroke:#000000;stroke-width:0.8;" x="356.542163" xlink:href="#m9b601adb0a" y="560.635833"/>
      </g>
     </g>
     <g id="text_1">
      <!-- 0.5 -->
      <defs>
       <path d="M 31.78125 66.40625 
Q 24.171875 66.40625 20.328125 58.90625 
Q 16.5 51.421875 16.5 36.375 
Q 16.5 21.390625 20.328125 13.890625 
Q 24.171875 6.390625 31.78125 6.390625 
Q 39.453125 6.390625 43.28125 13.890625 
Q 47.125 21.390625 47.125 36.375 
Q 47.125 51.421875 43.28125 58.90625 
Q 39.453125 66.40625 31.78125 66.40625 
z
M 31.78125 74.21875 
Q 44.046875 74.21875 50.515625 64.515625 
Q 56.984375 54.828125 56.984375 36.375 
Q 56.984375 17.96875 50.515625 8.265625 
Q 44.046875 -1.421875 31.78125 -1.421875 
Q 19.53125 -1.421875 13.0625 8.265625 
Q 6.59375 17.96875 6.59375 36.375 
Q 6.59375 54.828125 13.0625 64.515625 
Q 19.53125 74.21875 31.78125 74.21875 
z
" id="DejaVuSans-48"/>
       <path d="M 10.6875 12.40625 
L 21 12.40625 
L 21 0 
L 10.6875 0 
z
" id="DejaVuSans-46"/>
       <path d="M 10.796875 72.90625 
L 49.515625 72.90625 
L 49.515625 64.59375 
L 19.828125 64.59375 
L 19.828125 46.734375 
Q 21.96875 47.46875 24.109375 47.828125 
Q 26.265625 48.1875 28.421875 48.1875 
Q 40.625 48.1875 47.75 41.5 
Q 54.890625 34.8125 54.890625 23.390625 
Q 54.890625 11.625 47.5625 5.09375 
Q 40.234375 -1.421875 26.90625 -1.421875 
Q 22.3125 -1.421875 17.546875 -0.640625 
Q 12.796875 0.140625 7.71875 1.703125 
L 7.71875 11.625 
Q 12.109375 9.234375 16.796875 8.0625 
Q 21.484375 6.890625 26.703125 6.890625 
Q 35.15625 6.890625 40.078125 11.328125 
Q 45.015625 15.765625 45.015625 23.390625 
Q 45.015625 31 40.078125 35.4375 
Q 35.15625 39.890625 26.703125 39.890625 
Q 22.75 39.890625 18.8125 39.015625 
Q 14.890625 38.140625 10.796875 36.28125 
z
" id="DejaVuSans-53"/>
      </defs>
      <g transform="translate(348.590601 575.234271)scale(0.1 -0.1)">
       <use xlink:href="#DejaVuSans-48"/>
       <use x="63.623047" xlink:href="#DejaVuSans-46"/>
       <use x="95.410156" xlink:href="#DejaVuSans-53"/>
      </g>
     </g>
    </g>
    <g id="xtick_2">
     <g id="line2d_2">
      <g>
       <use style="stroke:#000000;stroke-width:0.8;" x="545.462167" xlink:href="#m9b601adb0a" y="560.635833"/>
      </g>
     </g>
     <g id="text_2">
      <!-- 1.0 -->
      <defs>
       <path d="M 12.40625 8.296875 
L 28.515625 8.296875 
L 28.515625 63.921875 
L 10.984375 60.40625 
L 10.984375 69.390625 
L 28.421875 72.90625 
L 38.28125 72.90625 
L 38.28125 8.296875 
L 54.390625 8.296875 
L 54.390625 0 
L 12.40625 0 
z
" id="DejaVuSans-49"/>
      </defs>
      <g transform="translate(537.510604 575.234271)scale(0.1 -0.1)">
       <use xlink:href="#DejaVuSans-49"/>
       <use x="63.623047" xlink:href="#DejaVuSans-46"/>
       <use x="95.410156" xlink:href="#DejaVuSans-48"/>
      </g>
     </g>
    </g>
    <g id="xtick_3">
     <g id="line2d_3">
      <g>
       <use style="stroke:#000000;stroke-width:0.8;" x="734.38217" xlink:href="#m9b601adb0a" y="560.635833"/>
      </g>
     </g>
     <g id="text_3">
      <!-- 1.5 -->
      <g transform="translate(726.430608 575.234271)scale(0.1 -0.1)">
       <use xlink:href="#DejaVuSans-49"/>
       <use x="63.623047" xlink:href="#DejaVuSans-46"/>
       <use x="95.410156" xlink:href="#DejaVuSans-53"/>
      </g>
     </g>
    </g>
    <g id="xtick_4">
     <g id="line2d_4">
      <g>
       <use style="stroke:#000000;stroke-width:0.8;" x="923.302173" xlink:href="#m9b601adb0a" y="560.635833"/>
      </g>
     </g>
     <g id="text_4">
      <!-- 2.0 -->
      <defs>
       <path d="M 19.1875 8.296875 
L 53.609375 8.296875 
L 53.609375 0 
L 7.328125 0 
L 7.328125 8.296875 
Q 12.9375 14.109375 22.625 23.890625 
Q 32.328125 33.6875 34.8125 36.53125 
Q 39.546875 41.84375 41.421875 45.53125 
Q 43.3125 49.21875 43.3125 52.78125 
Q 43.3125 58.59375 39.234375 62.25 
Q 35.15625 65.921875 28.609375 65.921875 
Q 23.96875 65.921875 18.8125 64.3125 
Q 13.671875 62.703125 7.8125 59.421875 
L 7.8125 69.390625 
Q 13.765625 71.78125 18.9375 73 
Q 24.125 74.21875 28.421875 74.21875 
Q 39.75 74.21875 46.484375 68.546875 
Q 53.21875 62.890625 53.21875 53.421875 
Q 53.21875 48.921875 51.53125 44.890625 
Q 49.859375 40.875 45.40625 35.40625 
Q 44.1875 33.984375 37.640625 27.21875 
Q 31.109375 20.453125 19.1875 8.296875 
z
" id="DejaVuSans-50"/>
      </defs>
      <g transform="translate(915.350611 575.234271)scale(0.1 -0.1)">
       <use xlink:href="#DejaVuSans-50"/>
       <use x="63.623047" xlink:href="#DejaVuSans-46"/>
       <use x="95.410156" xlink:href="#DejaVuSans-48"/>
      </g>
     </g>
    </g>
    <g id="xtick_5">
     <g id="line2d_5">
      <g>
       <use style="stroke:#000000;stroke-width:0.8;" x="1112.222177" xlink:href="#m9b601adb0a" y="560.635833"/>
      </g>
     </g>
     <g id="text_5">
      <!-- 2.5 -->
      <g transform="translate(1104.270614 575.234271)scale(0.1 -0.1)">
       <use xlink:href="#DejaVuSans-50"/>
       <use x="63.623047" xlink:href="#DejaVuSans-46"/>
       <use x="95.410156" xlink:href="#DejaVuSans-53"/>
      </g>
     </g>
    </g>
    <g id="xtick_6">
     <g id="line2d_6">
      <g>
       <use style="stroke:#000000;stroke-width:0.8;" x="1301.14218" xlink:href="#m9b601adb0a" y="560.635833"/>
      </g>
     </g>
     <g id="text_6">
      <!-- 3.0 -->
      <defs>
       <path d="M 40.578125 39.3125 
Q 47.65625 37.796875 51.625 33 
Q 55.609375 28.21875 55.609375 21.1875 
Q 55.609375 10.40625 48.1875 4.484375 
Q 40.765625 -1.421875 27.09375 -1.421875 
Q 22.515625 -1.421875 17.65625 -0.515625 
Q 12.796875 0.390625 7.625 2.203125 
L 7.625 11.71875 
Q 11.71875 9.328125 16.59375 8.109375 
Q 21.484375 6.890625 26.8125 6.890625 
Q 36.078125 6.890625 40.9375 10.546875 
Q 45.796875 14.203125 45.796875 21.1875 
Q 45.796875 27.640625 41.28125 31.265625 
Q 36.765625 34.90625 28.71875 34.90625 
L 20.21875 34.90625 
L 20.21875 43.015625 
L 29.109375 43.015625 
Q 36.375 43.015625 40.234375 45.921875 
Q 44.09375 48.828125 44.09375 54.296875 
Q 44.09375 59.90625 40.109375 62.90625 
Q 36.140625 65.921875 28.71875 65.921875 
Q 24.65625 65.921875 20.015625 65.03125 
Q 15.375 64.15625 9.8125 62.3125 
L 9.8125 71.09375 
Q 15.4375 72.65625 20.34375 73.4375 
Q 25.25 74.21875 29.59375 74.21875 
Q 40.828125 74.21875 47.359375 69.109375 
Q 53.90625 64.015625 53.90625 55.328125 
Q 53.90625 49.265625 50.4375 45.09375 
Q 46.96875 40.921875 40.578125 39.3125 
z
" id="DejaVuSans-51"/>
      </defs>
      <g transform="translate(1293.190618 575.234271)scale(0.1 -0.1)">
       <use xlink:href="#DejaVuSans-51"/>
       <use x="63.623047" xlink:href="#DejaVuSans-46"/>
       <use x="95.410156" xlink:href="#DejaVuSans-48"/>
      </g>
     </g>
    </g>
    <g id="text_7">
     <!-- Time [$s$] -->
     <defs>
      <path d="M -0.296875 72.90625 
L 61.375 72.90625 
L 61.375 64.59375 
L 35.5 64.59375 
L 35.5 0 
L 25.59375 0 
L 25.59375 64.59375 
L -0.296875 64.59375 
z
" id="DejaVuSans-84"/>
      <path d="M 9.421875 54.6875 
L 18.40625 54.6875 
L 18.40625 0 
L 9.421875 0 
z
M 9.421875 75.984375 
L 18.40625 75.984375 
L 18.40625 64.59375 
L 9.421875 64.59375 
z
" id="DejaVuSans-105"/>
      <path d="M 52 44.1875 
Q 55.375 50.25 60.0625 53.125 
Q 64.75 56 71.09375 56 
Q 79.640625 56 84.28125 50.015625 
Q 88.921875 44.046875 88.921875 33.015625 
L 88.921875 0 
L 79.890625 0 
L 79.890625 32.71875 
Q 79.890625 40.578125 77.09375 44.375 
Q 74.3125 48.1875 68.609375 48.1875 
Q 61.625 48.1875 57.5625 43.546875 
Q 53.515625 38.921875 53.515625 30.90625 
L 53.515625 0 
L 44.484375 0 
L 44.484375 32.71875 
Q 44.484375 40.625 41.703125 44.40625 
Q 38.921875 48.1875 33.109375 48.1875 
Q 26.21875 48.1875 22.15625 43.53125 
Q 18.109375 38.875 18.109375 30.90625 
L 18.109375 0 
L 9.078125 0 
L 9.078125 54.6875 
L 18.109375 54.6875 
L 18.109375 46.1875 
Q 21.1875 51.21875 25.484375 53.609375 
Q 29.78125 56 35.6875 56 
Q 41.65625 56 45.828125 52.96875 
Q 50 49.953125 52 44.1875 
z
" id="DejaVuSans-109"/>
      <path d="M 56.203125 29.59375 
L 56.203125 25.203125 
L 14.890625 25.203125 
Q 15.484375 15.921875 20.484375 11.0625 
Q 25.484375 6.203125 34.421875 6.203125 
Q 39.59375 6.203125 44.453125 7.46875 
Q 49.3125 8.734375 54.109375 11.28125 
L 54.109375 2.78125 
Q 49.265625 0.734375 44.1875 -0.34375 
Q 39.109375 -1.421875 33.890625 -1.421875 
Q 20.796875 -1.421875 13.15625 6.1875 
Q 5.515625 13.8125 5.515625 26.8125 
Q 5.515625 40.234375 12.765625 48.109375 
Q 20.015625 56 32.328125 56 
Q 43.359375 56 49.78125 48.890625 
Q 56.203125 41.796875 56.203125 29.59375 
z
M 47.21875 32.234375 
Q 47.125 39.59375 43.09375 43.984375 
Q 39.0625 48.390625 32.421875 48.390625 
Q 24.90625 48.390625 20.390625 44.140625 
Q 15.875 39.890625 15.1875 32.171875 
z
" id="DejaVuSans-101"/>
      <path id="DejaVuSans-32"/>
      <path d="M 8.59375 75.984375 
L 29.296875 75.984375 
L 29.296875 69 
L 17.578125 69 
L 17.578125 -6.203125 
L 29.296875 -6.203125 
L 29.296875 -13.1875 
L 8.59375 -13.1875 
z
" id="DejaVuSans-91"/>
      <path d="M 50 53.078125 
L 48.296875 44.578125 
Q 44.734375 46.53125 40.765625 47.5 
Q 36.8125 48.484375 32.625 48.484375 
Q 25.53125 48.484375 21.453125 46.0625 
Q 17.390625 43.65625 17.390625 39.5 
Q 17.390625 34.671875 26.859375 32.078125 
Q 27.59375 31.890625 27.9375 31.78125 
L 30.8125 30.90625 
Q 39.796875 28.421875 42.796875 25.6875 
Q 45.796875 22.953125 45.796875 18.21875 
Q 45.796875 9.515625 38.890625 4.046875 
Q 31.984375 -1.421875 20.796875 -1.421875 
Q 16.453125 -1.421875 11.671875 -0.578125 
Q 6.890625 0.25 1.125 2 
L 2.875 11.28125 
Q 7.8125 8.734375 12.59375 7.421875 
Q 17.390625 6.109375 21.78125 6.109375 
Q 28.375 6.109375 32.5 8.9375 
Q 36.625 11.765625 36.625 16.109375 
Q 36.625 20.796875 25.78125 23.6875 
L 24.859375 23.921875 
L 21.78125 24.703125 
Q 14.9375 26.515625 11.765625 29.46875 
Q 8.59375 32.421875 8.59375 37.015625 
Q 8.59375 45.75 15.15625 50.875 
Q 21.734375 56 33.015625 56 
Q 37.453125 56 41.671875 55.265625 
Q 45.90625 54.546875 50 53.078125 
z
" id="DejaVuSans-Oblique-115"/>
      <path d="M 30.421875 75.984375 
L 30.421875 -13.1875 
L 9.71875 -13.1875 
L 9.71875 -6.203125 
L 21.390625 -6.203125 
L 21.390625 69 
L 9.71875 69 
L 9.71875 75.984375 
z
" id="DejaVuSans-93"/>
     </defs>
     <g transform="translate(726.2 593.471458)scale(0.16 -0.16)">
      <use transform="translate(0 0.015625)" xlink:href="#DejaVuSans-84"/>
      <use transform="translate(61.083984 0.015625)" xlink:href="#DejaVuSans-105"/>
      <use transform="translate(88.867188 0.015625)" xlink:href="#DejaVuSans-109"/>
      <use transform="translate(186.279297 0.015625)" xlink:href="#DejaVuSans-101"/>
      <use transform="translate(247.802734 0.015625)" xlink:href="#DejaVuSans-32"/>
      <use transform="translate(279.589844 0.015625)" xlink:href="#DejaVuSans-91"/>
      <use transform="translate(318.603516 0.015625)" xlink:href="#DejaVuSans-Oblique-115"/>
      <use transform="translate(370.703125 0.015625)" xlink:href="#DejaVuSans-93"/>
     </g>
    </g>
    <g id="text_8">
     <!-- 1e−3 -->
     <defs>
      <path d="M 10.59375 35.5 
L 73.1875 35.5 
L 73.1875 27.203125 
L 10.59375 27.203125 
z
" id="DejaVuSans-8722"/>
     </defs>
     <g transform="translate(1322.742187 587.912396)scale(0.1 -0.1)">
      <use xlink:href="#DejaVuSans-49"/>
      <use x="63.623047" xlink:href="#DejaVuSans-101"/>
      <use x="125.146484" xlink:href="#DejaVuSans-8722"/>
      <use x="208.935547" xlink:href="#DejaVuSans-51"/>
     </g>
    </g>
   </g>
   <g id="matplotlib.axis_2">
    <g id="ytick_1">
     <g id="line2d_7">
      <defs>
       <path d="M 0 0 
L -3.5 0 
" id="m87e70f1117" style="stroke:#000000;stroke-width:0.8;"/>
      </defs>
      <g>
       <use style="stroke:#000000;stroke-width:0.8;" x="168" xlink:href="#m87e70f1117" y="480.529766"/>
      </g>
     </g>
     <g id="text_9">
      <!-- −2 -->
      <g transform="translate(146.257812 484.328985)scale(0.1 -0.1)">
       <use xlink:href="#DejaVuSans-8722"/>
       <use x="83.789062" xlink:href="#DejaVuSans-50"/>
      </g>
     </g>
    </g>
    <g id="ytick_2">
     <g id="line2d_8">
      <g>
       <use style="stroke:#000000;stroke-width:0.8;" x="168" xlink:href="#m87e70f1117" y="382.166839"/>
      </g>
     </g>
     <g id="text_10">
      <!-- −1 -->
      <g transform="translate(146.257812 385.966058)scale(0.1 -0.1)">
       <use xlink:href="#DejaVuSans-8722"/>
       <use x="83.789062" xlink:href="#DejaVuSans-49"/>
      </g>
     </g>
    </g>
    <g id="ytick_3">
     <g id="line2d_9">
      <g>
       <use style="stroke:#000000;stroke-width:0.8;" x="168" xlink:href="#m87e70f1117" y="283.803912"/>
      </g>
     </g>
     <g id="text_11">
      <!-- 0 -->
      <g transform="translate(154.6375 287.603131)scale(0.1 -0.1)">
       <use xlink:href="#DejaVuSans-48"/>
      </g>
     </g>
    </g>
    <g id="ytick_4">
     <g id="line2d_10">
      <g>
       <use style="stroke:#000000;stroke-width:0.8;" x="168" xlink:href="#m87e70f1117" y="185.440985"/>
      </g>
     </g>
     <g id="text_12">
      <!-- 1 -->
      <g transform="translate(154.6375 189.240204)scale(0.1 -0.1)">
       <use xlink:href="#DejaVuSans-49"/>
      </g>
     </g>
    </g>
    <g id="ytick_5">
     <g id="line2d_11">
      <g>
       <use style="stroke:#000000;stroke-width:0.8;" x="168" xlink:href="#m87e70f1117" y="87.078058"/>
      </g>
     </g>
     <g id="text_13">
      <!-- 2 -->
      <g transform="translate(154.6375 90.877277)scale(0.1 -0.1)">
       <use xlink:href="#DejaVuSans-50"/>
      </g>
     </g>
    </g>
    <g id="text_14">
     <!-- Voltage [$V$] -->
     <defs>
      <path d="M 28.609375 0 
L 0.78125 72.90625 
L 11.078125 72.90625 
L 34.1875 11.53125 
L 57.328125 72.90625 
L 67.578125 72.90625 
L 39.796875 0 
z
" id="DejaVuSans-86"/>
      <path d="M 30.609375 48.390625 
Q 23.390625 48.390625 19.1875 42.75 
Q 14.984375 37.109375 14.984375 27.296875 
Q 14.984375 17.484375 19.15625 11.84375 
Q 23.34375 6.203125 30.609375 6.203125 
Q 37.796875 6.203125 41.984375 11.859375 
Q 46.1875 17.53125 46.1875 27.296875 
Q 46.1875 37.015625 41.984375 42.703125 
Q 37.796875 48.390625 30.609375 48.390625 
z
M 30.609375 56 
Q 42.328125 56 49.015625 48.375 
Q 55.71875 40.765625 55.71875 27.296875 
Q 55.71875 13.875 49.015625 6.21875 
Q 42.328125 -1.421875 30.609375 -1.421875 
Q 18.84375 -1.421875 12.171875 6.21875 
Q 5.515625 13.875 5.515625 27.296875 
Q 5.515625 40.765625 12.171875 48.375 
Q 18.84375 56 30.609375 56 
z
" id="DejaVuSans-111"/>
      <path d="M 9.421875 75.984375 
L 18.40625 75.984375 
L 18.40625 0 
L 9.421875 0 
z
" id="DejaVuSans-108"/>
      <path d="M 18.3125 70.21875 
L 18.3125 54.6875 
L 36.8125 54.6875 
L 36.8125 47.703125 
L 18.3125 47.703125 
L 18.3125 18.015625 
Q 18.3125 11.328125 20.140625 9.421875 
Q 21.96875 7.515625 27.59375 7.515625 
L 36.8125 7.515625 
L 36.8125 0 
L 27.59375 0 
Q 17.1875 0 13.234375 3.875 
Q 9.28125 7.765625 9.28125 18.015625 
L 9.28125 47.703125 
L 2.6875 47.703125 
L 2.6875 54.6875 
L 9.28125 54.6875 
L 9.28125 70.21875 
z
" id="DejaVuSans-116"/>
      <path d="M 34.28125 27.484375 
Q 23.390625 27.484375 19.1875 25 
Q 14.984375 22.515625 14.984375 16.5 
Q 14.984375 11.71875 18.140625 8.90625 
Q 21.296875 6.109375 26.703125 6.109375 
Q 34.1875 6.109375 38.703125 11.40625 
Q 43.21875 16.703125 43.21875 25.484375 
L 43.21875 27.484375 
z
M 52.203125 31.203125 
L 52.203125 0 
L 43.21875 0 
L 43.21875 8.296875 
Q 40.140625 3.328125 35.546875 0.953125 
Q 30.953125 -1.421875 24.3125 -1.421875 
Q 15.921875 -1.421875 10.953125 3.296875 
Q 6 8.015625 6 15.921875 
Q 6 25.140625 12.171875 29.828125 
Q 18.359375 34.515625 30.609375 34.515625 
L 43.21875 34.515625 
L 43.21875 35.40625 
Q 43.21875 41.609375 39.140625 45 
Q 35.0625 48.390625 27.6875 48.390625 
Q 23 48.390625 18.546875 47.265625 
Q 14.109375 46.140625 10.015625 43.890625 
L 10.015625 52.203125 
Q 14.9375 54.109375 19.578125 55.046875 
Q 24.21875 56 28.609375 56 
Q 40.484375 56 46.34375 49.84375 
Q 52.203125 43.703125 52.203125 31.203125 
z
" id="DejaVuSans-97"/>
      <path d="M 45.40625 27.984375 
Q 45.40625 37.75 41.375 43.109375 
Q 37.359375 48.484375 30.078125 48.484375 
Q 22.859375 48.484375 18.828125 43.109375 
Q 14.796875 37.75 14.796875 27.984375 
Q 14.796875 18.265625 18.828125 12.890625 
Q 22.859375 7.515625 30.078125 7.515625 
Q 37.359375 7.515625 41.375 12.890625 
Q 45.40625 18.265625 45.40625 27.984375 
z
M 54.390625 6.78125 
Q 54.390625 -7.171875 48.1875 -13.984375 
Q 42 -20.796875 29.203125 -20.796875 
Q 24.46875 -20.796875 20.265625 -20.09375 
Q 16.0625 -19.390625 12.109375 -17.921875 
L 12.109375 -9.1875 
Q 16.0625 -11.328125 19.921875 -12.34375 
Q 23.78125 -13.375 27.78125 -13.375 
Q 36.625 -13.375 41.015625 -8.765625 
Q 45.40625 -4.15625 45.40625 5.171875 
L 45.40625 9.625 
Q 42.625 4.78125 38.28125 2.390625 
Q 33.9375 0 27.875 0 
Q 17.828125 0 11.671875 7.65625 
Q 5.515625 15.328125 5.515625 27.984375 
Q 5.515625 40.671875 11.671875 48.328125 
Q 17.828125 56 27.875 56 
Q 33.9375 56 38.28125 53.609375 
Q 42.625 51.21875 45.40625 46.390625 
L 45.40625 54.6875 
L 54.390625 54.6875 
z
" id="DejaVuSans-103"/>
      <path d="M 20.609375 0 
L 7.8125 72.90625 
L 17.484375 72.90625 
L 28.078125 10.203125 
L 63.484375 72.90625 
L 74.21875 72.90625 
L 32.078125 0 
z
" id="DejaVuSans-Oblique-86"/>
     </defs>
     <g transform="translate(138.897812 345.866667)rotate(-90)scale(0.16 -0.16)">
      <use transform="translate(0 0.015625)" xlink:href="#DejaVuSans-86"/>
      <use transform="translate(68.408203 0.015625)" xlink:href="#DejaVuSans-111"/>
      <use transform="translate(129.589844 0.015625)" xlink:href="#DejaVuSans-108"/>
      <use transform="translate(157.373047 0.015625)" xlink:href="#DejaVuSans-116"/>
      <use transform="translate(196.582031 0.015625)" xlink:href="#DejaVuSans-97"/>
      <use transform="translate(257.861328 0.015625)" xlink:href="#DejaVuSans-103"/>
      <use transform="translate(321.337891 0.015625)" xlink:href="#DejaVuSans-101"/>
      <use transform="translate(382.861328 0.015625)" xlink:href="#DejaVuSans-32"/>
      <use transform="translate(414.648438 0.015625)" xlink:href="#DejaVuSans-91"/>
      <use transform="translate(453.662109 0.015625)" xlink:href="#DejaVuSans-Oblique-86"/>
      <use transform="translate(522.070312 0.015625)" xlink:href="#DejaVuSans-93"/>
     </g>
    </g>
    <g id="text_15">
     <!-- 1e4 -->
     <defs>
      <path d="M 37.796875 64.3125 
L 12.890625 25.390625 
L 37.796875 25.390625 
z
M 35.203125 72.90625 
L 47.609375 72.90625 
L 47.609375 25.390625 
L 58.015625 25.390625 
L 58.015625 17.1875 
L 47.609375 17.1875 
L 47.609375 0 
L 37.796875 0 
L 37.796875 17.1875 
L 4.890625 17.1875 
L 4.890625 26.703125 
z
" id="DejaVuSans-52"/>
     </defs>
     <g transform="translate(168 38.1775)scale(0.1 -0.1)">
      <use xlink:href="#DejaVuSans-49"/>
      <use x="63.623047" xlink:href="#DejaVuSans-101"/>
      <use x="125.146484" xlink:href="#DejaVuSans-52"/>
     </g>
    </g>
   </g>
   <g id="line2d_12">
    <path clip-path="url(#p5797954b82)" d="M 168 172.052235 
L 169.13352 176.393535 
L 170.64488 183.237458 
L 172.15624 191.144545 
L 174.04544 202.267281 
L 176.31248 216.972287 
L 180.46872 245.809274 
L 184.24712 271.485156 
L 186.51416 285.540545 
L 188.40336 296.06274 
L 190.29256 305.267904 
L 191.80392 311.565702 
L 193.31528 316.841625 
L 194.4488 320.098743 
L 195.58232 322.741408 
L 196.715841 324.763254 
L 197.471521 325.765895 
L 198.227201 326.493815 
L 198.982881 326.949591 
L 199.738561 327.136922 
L 200.494241 327.060595 
L 201.249921 326.726447 
L 202.005601 326.141317 
L 202.761281 325.313 
L 203.894801 323.633824 
L 205.028321 321.460171 
L 206.161841 318.828838 
L 207.673201 314.6784 
L 209.184561 309.889428 
L 211.073761 303.174153 
L 213.718641 292.819834 
L 221.275441 262.394139 
L 223.542481 254.4798 
L 225.431681 248.717701 
L 226.943041 244.750682 
L 228.454401 241.414523 
L 229.587921 239.351964 
L 230.721441 237.680828 
L 231.854961 236.409882 
L 232.988481 235.543834 
L 233.744161 235.191924 
L 234.499841 235.019608 
L 235.255521 235.025373 
L 236.011201 235.206974 
L 236.766881 235.561454 
L 237.900401 236.409167 
L 239.033921 237.622455 
L 240.167441 239.183171 
L 241.300961 241.07032 
L 242.812321 244.05324 
L 244.323681 247.512316 
L 246.212881 252.401849 
L 248.479921 258.910076 
L 251.880481 269.443432 
L 257.170242 285.813374 
L 259.815122 293.18748 
L 261.704322 297.88351 
L 263.593522 302.001194 
L 265.104882 304.831488 
L 266.616242 307.220224 
L 268.127602 309.149256 
L 269.261122 310.288143 
L 270.394642 311.161673 
L 271.528162 311.771296 
L 272.661682 312.120922 
L 273.795202 312.21682 
L 274.928722 312.067489 
L 276.062242 311.683523 
L 277.195762 311.07745 
L 278.707122 309.948783 
L 280.218482 308.488994 
L 281.729842 306.740392 
L 283.619042 304.218213 
L 285.886082 300.822969 
L 290.042322 294.087875 
L 293.820722 288.108227 
L 296.087762 284.883543 
L 297.976962 282.516437 
L 299.866162 280.503142 
L 301.377522 279.178681 
L 302.888882 278.128154 
L 304.400242 277.363896 
L 305.911602 276.892838 
L 307.422962 276.716578 
L 308.934322 276.831542 
L 310.445683 277.229228 
L 311.957043 277.896518 
L 313.468403 278.816069 
L 314.979763 279.966749 
L 316.868963 281.69264 
L 319.136003 284.113876 
L 321.780883 287.291787 
L 327.070643 294.123737 
L 330.471203 298.340765 
L 333.116083 301.277687 
L 335.383123 303.452385 
L 337.272323 304.976 
L 339.161523 306.209115 
L 341.050723 307.13426 
L 342.562083 307.646364 
L 344.073443 307.954832 
L 345.584803 308.062341 
L 347.096163 307.974746 
L 348.607523 307.700874 
L 350.496723 307.114408 
L 352.385923 306.282897 
L 354.652963 305.007986 
L 357.297843 303.21968 
L 360.698403 300.613885 
L 368.255204 294.712888 
L 370.900084 292.940853 
L 373.544964 291.447788 
L 375.812004 290.429515 
L 378.079044 289.674368 
L 380.346084 289.191025 
L 382.613124 288.977004 
L 384.880164 289.019354 
L 387.147204 289.295708 
L 389.792084 289.872908 
L 392.814804 290.795168 
L 396.971044 292.340061 
L 403.772164 294.891339 
L 406.794884 295.790587 
L 409.439764 296.371163 
L 412.084644 296.721997 
L 414.729524 296.821415 
L 416.996564 296.700139 
L 419.641444 296.321712 
L 422.286324 295.70379 
L 425.309045 294.739336 
L 428.709605 293.390849 
L 433.243685 291.316007 
L 442.311845 287.102185 
L 446.090245 285.634843 
L 449.490805 284.56313 
L 452.513525 283.833433 
L 455.536245 283.318131 
L 458.936805 282.981316 
L 462.337365 282.868989 
L 466.493605 282.964213 
L 473.294725 283.396519 
L 479.718006 283.736731 
L 484.252086 283.751087 
L 488.408326 283.53233 
L 492.564566 283.077391 
L 497.098646 282.335921 
L 502.388406 281.231799 
L 517.124166 278.007341 
L 521.658246 277.305293 
L 526.192326 276.831944 
L 530.726406 276.59245 
L 535.638326 276.568242 
L 541.683767 276.784566 
L 562.087127 277.737506 
L 569.266087 277.716317 
L 579.845607 277.421469 
L 589.669447 277.226855 
L 596.470568 277.316767 
L 602.893848 277.618694 
L 610.072808 278.179025 
L 621.408008 279.326708 
L 634.254568 280.56491 
L 644.456248 281.305113 
L 681.862409 283.742816 
L 704.154969 285.489346 
L 715.11233 286.082916 
L 727.58105 286.522358 
L 749.87361 287.037684 
L 769.899131 287.329806 
L 783.501371 287.299927 
L 797.859291 287.038193 
L 820.907532 286.357926 
L 854.157452 285.179341 
L 908.944253 283.098574 
L 934.259534 282.463856 
L 956.929934 282.11071 
L 978.088974 282.009797 
L 1001.892895 282.128594 
L 1030.230895 282.499497 
L 1069.526256 283.267659 
L 1120.534657 284.216169 
L 1152.651057 284.588391 
L 1183.256098 284.716936 
L 1216.506019 284.627805 
L 1258.824099 284.27369 
L 1350.261381 283.451862 
L 1350.261381 283.451862 
" style="fill:none;stroke:#1f77b4;stroke-linecap:square;stroke-width:1.5;"/>
   </g>
   <g id="line2d_13">
    <path clip-path="url(#p5797954b82)" d="M 168 400.444456 
L 169.8892 440.05504 
L 171.40056 467.59763 
L 172.91192 491.088975 
L 174.04544 505.893769 
L 175.17896 518.199457 
L 176.31248 527.955519 
L 177.06816 533.029812 
L 177.82384 536.958324 
L 178.57952 539.74489 
L 179.3352 541.398157 
L 179.71304 541.80379 
L 180.09088 541.931458 
L 180.46872 541.783536 
L 180.84656 541.362675 
L 181.2244 540.671795 
L 181.98008 538.492966 
L 182.73576 535.275574 
L 183.49144 531.052073 
L 184.62496 522.910453 
L 185.75848 512.723889 
L 186.892 500.644899 
L 188.40336 481.885463 
L 189.91472 460.486467 
L 191.80392 430.723858 
L 194.4488 385.115225 
L 202.383441 245.136154 
L 204.650481 210.645063 
L 206.539681 185.459192 
L 208.051041 168.021857 
L 209.562401 153.225794 
L 210.695921 143.959145 
L 211.829441 136.315315 
L 212.962961 130.324624 
L 213.718641 127.256671 
L 214.474321 124.929866 
L 215.230001 123.341043 
L 215.985681 122.483935 
L 216.363521 122.326987 
L 216.741361 122.349256 
L 217.119201 122.549122 
L 217.497041 122.924795 
L 218.252721 124.195521 
L 219.008401 126.143696 
L 219.764081 128.749001 
L 220.897601 133.838631 
L 222.031121 140.268601 
L 223.164641 147.941938 
L 224.676001 159.922259 
L 226.187361 173.649411 
L 228.076561 192.816056 
L 230.721441 222.309853 
L 239.033921 317.51477 
L 241.300961 339.73499 
L 243.190161 355.904094 
L 244.701521 367.059059 
L 246.212881 376.485632 
L 247.346401 382.360635 
L 248.479921 387.178235 
L 249.613441 390.920354 
L 250.369121 392.81356 
L 251.124801 394.225751 
L 251.880481 395.159421 
L 252.636161 395.61906 
L 253.014002 395.673054 
L 253.391842 395.611103 
L 254.147522 395.143867 
L 254.903202 394.22748 
L 255.658882 392.873808 
L 256.414562 391.096373 
L 257.548082 387.669079 
L 258.681602 383.379663 
L 259.815122 378.291898 
L 261.326482 370.387563 
L 263.215682 358.960237 
L 265.482722 343.478255 
L 268.505442 320.961563 
L 274.173042 278.271933 
L 276.440082 262.820109 
L 278.329282 251.255858 
L 280.218482 241.152924 
L 281.729842 234.258758 
L 283.241202 228.506929 
L 284.374722 224.977285 
L 285.508242 222.137627 
L 286.641762 219.996359 
L 287.397442 218.957856 
L 288.153122 218.229316 
L 288.908802 217.808204 
L 289.664482 217.690711 
L 290.420162 217.871801 
L 291.175842 218.345248 
L 291.931522 219.103685 
L 292.687202 220.138661 
L 293.820722 222.188614 
L 294.954242 224.803148 
L 296.087762 227.941757 
L 297.599122 232.864469 
L 299.110482 238.524907 
L 300.999682 246.449881 
L 303.644562 258.674556 
L 311.957043 298.243988 
L 314.224083 307.485404 
L 316.113283 314.206468 
L 317.624643 318.838903 
L 319.136003 322.747888 
L 320.269523 325.179109 
L 321.403043 327.167164 
L 322.536563 328.704266 
L 323.670083 329.787148 
L 324.425763 330.257123 
L 325.181443 330.527068 
L 325.937123 330.599226 
L 326.692803 330.476647 
L 327.448483 330.163159 
L 328.204163 329.663337 
L 329.337683 328.575987 
L 330.471203 327.102127 
L 331.604723 325.265588 
L 333.116083 322.299161 
L 334.627443 318.805649 
L 336.516643 313.814483 
L 338.783683 307.12152 
L 342.184243 296.247111 
L 347.096163 280.547961 
L 349.363203 273.959913 
L 351.252403 269.0194 
L 353.141603 264.69176 
L 354.652963 261.728458 
L 356.164323 259.245091 
L 357.675683 257.265544 
L 358.809203 256.120603 
L 359.942723 255.270116 
L 361.076243 254.713893 
L 362.209763 254.448937 
L 363.343283 254.469548 
L 364.476803 254.767447 
L 365.610323 255.33193 
L 366.743844 256.150027 
L 367.877364 257.206695 
L 369.388724 258.9572 
L 370.900084 261.056933 
L 372.789284 264.097812 
L 375.056324 268.220971 
L 378.456884 274.985361 
L 383.746644 285.547799 
L 386.013684 289.627627 
L 387.902884 292.666856 
L 389.792084 295.30609 
L 391.303444 297.093053 
L 392.814804 298.568692 
L 394.326164 299.718222 
L 395.837524 300.532917 
L 396.971044 300.922341 
L 398.104564 301.12278 
L 399.238084 301.137033 
L 400.371604 300.969616 
L 401.882964 300.47463 
L 403.394324 299.686482 
L 404.905684 298.628208 
L 406.417044 297.32663 
L 408.306244 295.403484 
L 410.573284 292.746612 
L 413.596004 288.807564 
L 421.152804 278.753326 
L 423.419845 276.135028 
L 425.686885 273.863759 
L 427.576085 272.284505 
L 429.465285 271.020959 
L 430.976645 270.250426 
L 432.488005 269.699435 
L 433.999365 269.369346 
L 435.510725 269.257752 
L 437.022085 269.358656 
L 438.533445 269.662698 
L 440.422645 270.309185 
L 442.311845 271.223137 
L 444.201045 272.368611 
L 446.468085 273.991664 
L 449.490805 276.45226 
L 458.936805 284.389783 
L 461.581685 286.192796 
L 463.848725 287.46664 
L 465.737925 288.309891 
L 467.627125 288.940543 
L 469.516325 289.351838 
L 471.405525 289.543125 
L 473.294725 289.519613 
L 475.183925 289.29197 
L 477.450965 288.771638 
L 479.718006 288.015099 
L 482.362886 286.890498 
L 485.763446 285.179094 
L 495.587286 280.04202 
L 498.610006 278.813488 
L 501.254886 277.988478 
L 503.521926 277.492252 
L 505.788966 277.201991 
L 508.056006 277.119757 
L 510.323046 277.239709 
L 512.967926 277.617329 
L 515.612806 278.220341 
L 518.635526 279.132307 
L 522.791766 280.645119 
L 532.237766 284.19955 
L 535.638326 285.208285 
L 538.661047 285.890627 
L 541.683767 286.343781 
L 544.706487 286.558851 
L 547.729207 286.543305 
L 551.129767 286.278286 
L 554.908167 285.73592 
L 559.820087 284.782956 
L 569.266087 282.899963 
L 573.422327 282.324542 
L 577.200727 282.026637 
L 580.979127 281.964965 
L 584.757527 282.13371 
L 588.913767 282.550036 
L 594.203528 283.32834 
L 608.183608 285.525968 
L 612.717688 285.95315 
L 617.251768 286.154482 
L 621.785848 286.131514 
L 627.075608 285.86679 
L 634.632408 285.225152 
L 644.834088 284.382715 
L 650.879529 284.123612 
L 656.547129 284.102195 
L 662.970409 284.307943 
L 673.927769 284.938537 
L 682.995929 285.354081 
L 689.797049 285.442993 
L 696.976009 285.305969 
L 706.42201 284.877028 
L 721.53561 284.189205 
L 730.22593 284.038063 
L 740.80545 284.093554 
L 760.45313 284.232473 
L 771.788331 284.040781 
L 803.904731 283.332374 
L 820.907532 283.354645 
L 842.444412 283.326932 
L 879.850573 283.153411 
L 967.887294 283.705041 
L 1007.182655 283.938081 
L 1077.460896 284.112999 
L 1151.517537 283.942441 
L 1258.068419 283.655788 
L 1338.548341 283.697098 
L 1350.261381 283.716666 
L 1350.261381 283.716666 
" style="fill:none;stroke:#ff7f0e;stroke-linecap:square;stroke-width:1.5;"/>
   </g>
   <g id="line2d_14">
    <path clip-path="url(#p5797954b82)" d="M 168 395.655406 
L 169.13352 391.903801 
L 170.26704 387.450905 
L 171.7784 380.542831 
L 173.6676 370.594966 
L 175.93464 357.210982 
L 179.3352 335.523914 
L 183.49144 309.193819 
L 185.75848 296.109175 
L 187.64768 286.363819 
L 189.15904 279.498617 
L 190.6704 273.5703 
L 192.18176 268.658689 
L 193.31528 265.678667 
L 194.4488 263.321704 
L 195.58232 261.598591 
L 196.338001 260.804367 
L 197.093681 260.293581 
L 197.849361 260.064685 
L 198.605041 260.114928 
L 199.360721 260.440383 
L 200.116401 261.035986 
L 200.872081 261.895581 
L 202.005601 263.66392 
L 203.139121 265.981314 
L 204.272641 268.814637 
L 205.784001 273.329881 
L 207.295361 278.596926 
L 209.184561 286.072183 
L 211.451601 296.047695 
L 214.852161 312.20084 
L 219.764081 335.487851 
L 222.031121 345.265991 
L 223.920321 352.606192 
L 225.809521 359.043963 
L 227.320881 363.458487 
L 228.832241 367.16378 
L 229.965761 369.454623 
L 231.099281 371.314923 
L 232.232801 372.738363 
L 233.366321 373.722839 
L 234.122001 374.136117 
L 234.877681 374.356702 
L 235.633361 374.386951 
L 236.389041 374.229968 
L 237.144721 373.889573 
L 237.900401 373.370276 
L 239.033921 372.267369 
L 240.167441 370.793751 
L 241.300961 368.972346 
L 242.812321 366.047242 
L 244.323681 362.616106 
L 246.212881 357.72639 
L 248.479921 351.17765 
L 251.880481 340.528999 
L 257.170242 323.928151 
L 259.815122 316.441173 
L 261.704322 311.670676 
L 263.593522 307.48441 
L 265.104882 304.603149 
L 266.616242 302.166118 
L 268.127602 300.190316 
L 269.261122 299.016463 
L 270.394642 298.107242 
L 271.528162 297.460367 
L 272.661682 297.071018 
L 273.795202 296.931957 
L 274.928722 297.033657 
L 276.062242 297.364464 
L 277.195762 297.910762 
L 278.707122 298.947533 
L 280.218482 300.299094 
L 282.107682 302.362538 
L 284.374722 305.261734 
L 287.397442 309.561629 
L 292.687202 317.129025 
L 294.954242 319.970149 
L 296.843442 322.004934 
L 298.354802 323.367339 
L 299.866162 324.463571 
L 301.377522 325.2714 
L 302.888882 325.774146 
L 304.022402 325.944149 
L 305.155922 325.933661 
L 306.289442 325.741882 
L 307.422962 325.369747 
L 308.934322 324.597754 
L 310.445683 323.52055 
L 311.957043 322.153463 
L 313.468403 320.516133 
L 315.357603 318.125527 
L 317.624643 314.823207 
L 320.269523 310.504291 
L 324.047923 303.804251 
L 330.471203 292.358048 
L 333.116083 288.084076 
L 335.383123 284.778762 
L 337.650163 281.869697 
L 339.539363 279.780269 
L 341.428563 278.012219 
L 343.317763 276.572132 
L 345.206963 275.457906 
L 346.718323 274.794461 
L 348.607523 274.235623 
L 350.496723 273.95516 
L 352.385923 273.923684 
L 354.275123 274.106866 
L 356.542163 274.55614 
L 359.564883 275.427851 
L 368.633044 278.301932 
L 371.277924 278.79718 
L 373.544964 278.989283 
L 375.812004 278.934995 
L 377.701204 278.688283 
L 379.968244 278.144458 
L 382.235284 277.334294 
L 384.502324 276.272408 
L 387.147204 274.748457 
L 390.169924 272.69693 
L 393.948324 269.812882 
L 403.394324 262.416717 
L 406.417044 260.387632 
L 409.061924 258.864523 
L 411.706804 257.6168 
L 413.973844 256.784703 
L 416.240884 256.178757 
L 418.507924 255.797659 
L 420.774964 255.632912 
L 423.042005 255.669519 
L 425.686885 255.938978 
L 428.709605 256.495929 
L 432.110165 257.356663 
L 437.777765 259.065197 
L 443.823205 260.820789 
L 447.601605 261.694928 
L 451.002165 262.270583 
L 454.402725 262.629019 
L 458.181125 262.783489 
L 462.337365 262.707716 
L 468.382805 262.327552 
L 475.561765 261.901885 
L 479.718006 261.87881 
L 483.496406 262.089392 
L 486.896966 262.499452 
L 490.297526 263.128427 
L 493.698086 263.969397 
L 497.476486 265.125984 
L 502.010566 266.758094 
L 508.811686 269.489715 
L 517.879846 273.103999 
L 523.169606 274.960111 
L 528.081526 276.446356 
L 532.993446 277.707179 
L 539.038887 279.01372 
L 561.709287 283.630058 
L 568.888247 285.48836 
L 590.425127 291.26584 
L 596.092728 292.450629 
L 601.760328 293.402672 
L 607.427928 294.128053 
L 613.851208 294.719483 
L 622.163688 295.236983 
L 636.521608 295.860486 
L 651.257369 296.324094 
L 659.947689 296.372994 
L 667.126649 296.199628 
L 674.305609 295.806189 
L 681.862409 295.169353 
L 690.930569 294.17626 
L 706.04417 292.258527 
L 741.18329 287.571808 
L 781.990011 281.870141 
L 793.325211 280.635792 
L 805.416091 279.546702 
L 818.262651 278.614291 
L 830.731372 277.925799 
L 842.444412 277.500777 
L 853.401772 277.321823 
L 864.736972 277.359707 
L 877.205693 277.631715 
L 891.185773 278.162433 
L 907.432893 279.00767 
L 925.569213 280.180357 
L 953.907214 282.278821 
L 980.733854 284.177664 
L 1000.381535 285.346538 
L 1017.762175 286.164187 
L 1034.009295 286.706858 
L 1049.878576 287.013569 
L 1066.125696 287.105833 
L 1083.506336 286.980488 
L 1102.398337 286.618866 
L 1124.690897 285.959721 
L 1160.585698 284.634917 
L 1199.125378 283.281622 
L 1224.062819 282.632826 
L 1246.733219 282.264412 
L 1269.403619 282.119568 
L 1293.20754 282.192543 
L 1320.41202 282.504743 
L 1350.261381 283.023893 
L 1350.261381 283.023893 
" style="fill:none;stroke:#2ca02c;stroke-linecap:square;stroke-width:1.5;"/>
   </g>
   <g id="line2d_15">
    <path clip-path="url(#p5797954b82)" d="M 168 283.803912 
L 1350.261381 283.803912 
L 1350.261381 283.803912 
" style="fill:none;stroke:#d62728;stroke-linecap:square;stroke-width:1.5;"/>
   </g>
   <g id="line2d_16">
    <path clip-path="url(#p5797954b82)" d="M 168 278.915046 
L 170.26704 222.687599 
L 172.15624 180.399783 
L 174.04544 143.250687 
L 175.5568 117.734916 
L 177.06816 96.278162 
L 178.20168 82.980915 
L 179.3352 72.149374 
L 180.46872 63.818927 
L 181.2244 59.660975 
L 181.98008 56.61684 
L 182.73576 54.678869 
L 183.1136 54.121043 
L 183.49144 53.83481 
L 183.86928 53.817945 
L 184.24712 54.067948 
L 184.62496 54.582058 
L 185.0028 55.357254 
L 185.75848 57.677553 
L 186.51416 60.999706 
L 187.26984 65.290806 
L 188.40336 73.463533 
L 189.53688 83.596608 
L 190.6704 95.537947 
L 192.18176 113.985084 
L 194.07096 140.503063 
L 196.338001 176.22543 
L 199.738561 234.44579 
L 204.650481 318.529206 
L 206.917521 353.708795 
L 208.806721 379.988591 
L 210.318081 398.597111 
L 211.829441 414.788821 
L 213.340801 428.367162 
L 214.474321 436.746475 
L 215.607841 443.530694 
L 216.741361 448.693987 
L 217.497041 451.23025 
L 218.252721 453.042569 
L 219.008401 454.135098 
L 219.386241 454.413561 
L 219.764081 454.51499 
L 220.141921 454.440735 
L 220.519761 454.192321 
L 220.897601 453.771448 
L 221.653281 452.419972 
L 222.408961 450.403238 
L 223.164641 447.740722 
L 224.298161 442.584612 
L 225.431681 436.108603 
L 226.565201 428.406447 
L 228.076561 416.408759 
L 229.587921 402.680997 
L 231.477121 383.524993 
L 234.122001 354.040117 
L 242.812321 254.498398 
L 245.079361 232.430173 
L 246.968561 216.388557 
L 248.479921 205.323425 
L 249.991281 195.966761 
L 251.124801 190.126444 
L 252.258321 185.324998 
L 253.391842 181.577798 
L 254.147522 179.668204 
L 254.903202 178.22847 
L 255.658882 177.255524 
L 256.414562 176.744361 
L 257.170242 176.688098 
L 257.925922 177.078035 
L 258.681602 177.903726 
L 259.437282 179.153054 
L 260.192962 180.812313 
L 261.326482 184.03617 
L 262.460002 188.090654 
L 263.593522 192.912196 
L 265.104882 200.413833 
L 266.994082 211.264125 
L 269.261122 225.953759 
L 272.283842 247.267982 
L 277.573602 284.86415 
L 279.840642 299.482732 
L 281.729842 310.412587 
L 283.619042 319.939001 
L 285.130402 326.414783 
L 286.641762 331.786565 
L 287.775282 335.056145 
L 288.908802 337.656779 
L 290.042322 339.579566 
L 290.798002 340.483514 
L 291.553682 341.086117 
L 292.309362 341.389659 
L 293.065042 341.397673 
L 293.820722 341.114895 
L 294.576402 340.547234 
L 295.332082 339.701715 
L 296.087762 338.586436 
L 297.221282 336.427921 
L 298.354802 333.717931 
L 299.488322 330.495613 
L 300.999682 325.477139 
L 302.888882 318.201604 
L 305.155922 308.313176 
L 308.178642 293.874024 
L 314.224083 264.56236 
L 316.491123 254.658035 
L 318.380323 247.255064 
L 320.269523 240.794462 
L 321.780883 236.390059 
L 323.292243 232.718921 
L 324.425763 230.468395 
L 325.559283 228.65992 
L 326.692803 227.298632 
L 327.826323 226.385296 
L 328.582003 226.023707 
L 329.337683 225.857675 
L 330.093363 225.884347 
L 330.849043 226.100105 
L 331.604723 226.500597 
L 332.738243 227.436467 
L 333.871763 228.756604 
L 335.005283 230.438047 
L 336.516643 233.197104 
L 338.028003 236.484596 
L 339.917203 241.223512 
L 342.184243 247.627165 
L 345.206963 256.917704 
L 350.874563 274.483456 
L 353.141603 280.831108 
L 355.030803 285.580031 
L 356.920003 289.729317 
L 358.431363 292.56261 
L 359.942723 294.929642 
L 361.454083 296.808542 
L 362.587603 297.889378 
L 363.721123 298.686258 
L 364.854643 299.199956 
L 365.988163 299.43396 
L 367.121684 299.394375 
L 368.255204 299.089791 
L 369.388724 298.531132 
L 370.522244 297.731494 
L 372.033604 296.31678 
L 373.544964 294.541266 
L 375.434164 291.883967 
L 377.323364 288.830765 
L 379.968244 284.0881 
L 388.658564 268.042671 
L 390.925604 264.546266 
L 392.814804 262.047876 
L 394.326164 260.361976 
L 395.837524 258.978485 
L 397.348884 257.913675 
L 398.860244 257.177897 
L 399.993764 256.844893 
L 401.127284 256.699344 
L 402.260804 256.739224 
L 403.394324 256.960796 
L 404.905684 257.529366 
L 406.417044 258.394329 
L 407.928404 259.534394 
L 409.439764 260.924396 
L 411.328964 262.969718 
L 413.596004 265.793757 
L 416.618724 269.996662 
L 425.309045 282.457237 
L 427.576085 285.261031 
L 429.843125 287.70936 
L 431.732325 289.434142 
L 433.621525 290.84509 
L 435.132885 291.737127 
L 436.644245 292.414529 
L 438.155605 292.877391 
L 439.666965 293.129423 
L 441.178325 293.177755 
L 442.689685 293.032693 
L 444.578885 292.599762 
L 446.468085 291.916769 
L 448.735125 290.818709 
L 451.380005 289.243176 
L 455.158405 286.671316 
L 460.826005 282.807809 
L 463.470885 281.264912 
L 465.737925 280.16968 
L 468.004965 279.328462 
L 469.894165 278.843118 
L 471.783365 278.565294 
L 473.672565 278.499388 
L 475.561765 278.643902 
L 477.450965 278.991735 
L 479.718006 279.659907 
L 481.985046 280.57307 
L 484.629926 281.897242 
L 487.652646 283.664986 
L 492.942406 287.071978 
L 497.476486 289.906038 
L 500.499206 291.565626 
L 503.144086 292.790325 
L 505.788966 293.761181 
L 508.056006 294.372337 
L 510.323046 294.772154 
L 512.590086 294.961984 
L 514.857126 294.950671 
L 517.502006 294.704401 
L 520.146886 294.240467 
L 523.547446 293.394005 
L 528.081526 291.997821 
L 536.016167 289.531371 
L 539.794567 288.628053 
L 543.195127 288.065268 
L 546.217847 287.79014 
L 549.240567 287.730915 
L 552.641127 287.906654 
L 556.419527 288.357437 
L 560.953607 289.148208 
L 573.044487 291.414288 
L 576.822887 291.84865 
L 580.601287 292.052832 
L 584.001847 292.022761 
L 587.780247 291.755903 
L 591.558647 291.269589 
L 596.092728 290.461177 
L 603.649528 288.837326 
L 610.828488 287.361622 
L 615.740408 286.565367 
L 620.274488 286.041574 
L 625.186408 285.707887 
L 630.476168 285.578468 
L 638.410808 285.640525 
L 647.856808 285.678235 
L 653.902249 285.477357 
L 659.569849 285.074262 
L 665.993129 284.393275 
L 677.706169 282.864412 
L 686.018649 281.899921 
L 692.441929 281.368297 
L 699.243049 281.03821 
L 707.17769 280.899073 
L 735.89353 280.633504 
L 761.96449 279.942459 
L 771.032651 280.016257 
L 781.990011 280.347759 
L 817.884811 281.61481 
L 838.666012 282.297538 
L 858.313692 283.212701 
L 878.717053 284.097873 
L 897.609053 284.669698 
L 931.992494 285.453364 
L 950.884494 285.673844 
L 970.532174 285.663458 
L 999.248015 285.400945 
L 1027.208175 284.939559 
L 1121.290337 283.141044 
L 1150.384017 282.895076 
L 1181.744738 282.860857 
L 1216.128179 283.051012 
L 1272.80418 283.636063 
L 1329.858021 284.14517 
L 1350.261381 284.243209 
L 1350.261381 284.243209 
" style="fill:none;stroke:#9467bd;stroke-linecap:square;stroke-width:1.5;"/>
   </g>
   <g id="line2d_17">
    <path clip-path="url(#p5797954b82)" d="M 168 283.704095 
L 172.91192 281.237726 
L 180.09088 277.620006 
L 183.86928 275.46645 
L 187.64768 273.047253 
L 191.42608 270.343757 
L 195.58232 267.071738 
L 200.872081 262.590811 
L 210.695921 254.215844 
L 214.474321 251.304383 
L 217.874881 248.953093 
L 220.897601 247.117698 
L 223.920321 245.544225 
L 226.943041 244.241444 
L 229.965761 243.206203 
L 232.988481 242.424489 
L 236.011201 241.873121 
L 239.411761 241.490388 
L 243.190161 241.301648 
L 247.724241 241.306403 
L 254.903202 241.569184 
L 269.638962 242.118907 
L 278.329282 242.491017 
L 283.619042 242.940006 
L 288.153122 243.55638 
L 292.309362 244.355288 
L 296.087762 245.295855 
L 300.244002 246.571199 
L 304.400242 248.087057 
L 308.934322 249.98244 
L 314.224083 252.444436 
L 321.780883 256.244439 
L 338.028003 264.479744 
L 347.474003 268.952524 
L 396.593204 291.529085 
L 403.016484 294.088299 
L 408.684084 296.118322 
L 414.351684 297.920734 
L 420.019284 299.499565 
L 426.064725 300.955483 
L 432.488005 302.273416 
L 439.289125 303.443904 
L 446.468085 304.451633 
L 453.647045 305.228337 
L 460.448165 305.736269 
L 466.871445 305.992445 
L 472.916885 306.020223 
L 478.962325 305.834397 
L 485.385606 305.406666 
L 491.808886 304.757569 
L 498.987846 303.802131 
L 506.922486 302.513864 
L 515.990646 300.81167 
L 526.570166 298.594454 
L 538.283207 295.913585 
L 551.885447 292.565434 
L 590.047287 283.006661 
L 600.626808 280.692395 
L 610.450648 278.765036 
L 620.274488 277.067823 
L 629.720488 275.665164 
L 638.788648 274.543257 
L 647.478968 273.687388 
L 656.169289 273.055876 
L 664.859609 272.652322 
L 673.549929 272.472553 
L 682.618089 272.511193 
L 692.064089 272.777424 
L 701.887929 273.274132 
L 712.46745 274.03029 
L 724.18049 275.097759 
L 737.40489 276.538446 
L 754.02985 278.591541 
L 801.259851 284.564548 
L 815.995611 286.1347 
L 829.220012 287.328451 
L 841.688732 288.236238 
L 853.779612 288.897826 
L 865.870492 289.338234 
L 877.961373 289.560478 
L 890.430093 289.571562 
L 903.654493 289.359777 
L 918.012413 288.899707 
L 933.881694 288.162356 
L 953.529374 287.01317 
L 1027.963855 282.417875 
L 1046.100176 281.662389 
L 1063.102976 281.17277 
L 1080.105776 280.904743 
L 1097.486416 280.853965 
L 1116.000577 281.025063 
L 1136.781777 281.445208 
L 1162.852738 282.206983 
L 1240.309939 284.614599 
L 1264.869539 285.069158 
L 1288.67346 285.287402 
L 1313.23306 285.287613 
L 1340.815381 285.057789 
L 1350.261381 284.935982 
L 1350.261381 284.935982 
" style="fill:none;stroke:#8c564b;stroke-linecap:square;stroke-width:1.5;"/>
   </g>
   <g id="line2d_18">
    <path clip-path="url(#p5797954b82)" d="M 168 283.803912 
L 1350.261381 283.803912 
L 1350.261381 283.803912 
" style="fill:none;stroke:#e377c2;stroke-linecap:square;stroke-width:1.5;"/>
   </g>
   <g id="patch_3">
    <path d="M 168 560.635833 
L 168 41.1775 
" style="fill:none;stroke:#000000;stroke-linecap:square;stroke-linejoin:miter;stroke-width:0.8;"/>
   </g>
   <g id="patch_4">
    <path d="M 1350 560.635833 
L 1350 41.1775 
" style="fill:none;stroke:#000000;stroke-linecap:square;stroke-linejoin:miter;stroke-width:0.8;"/>
   </g>
   <g id="patch_5">
    <path d="M 168 560.635833 
L 1350 560.635833 
" style="fill:none;stroke:#000000;stroke-linecap:square;stroke-linejoin:miter;stroke-width:0.8;"/>
   </g>
   <g id="patch_6">
    <path d="M 168 41.1775 
L 1350 41.1775 
" style="fill:none;stroke:#000000;stroke-linecap:square;stroke-linejoin:miter;stroke-width:0.8;"/>
   </g>
   <g id="legend_1">
    <g id="patch_7">
     <path d="M 1244.2925 218.3725 
L 1338.8 218.3725 
Q 1342 218.3725 1342 215.1725 
L 1342 52.3775 
Q 1342 49.1775 1338.8 49.1775 
L 1244.2925 49.1775 
Q 1241.0925 49.1775 1241.0925 52.3775 
L 1241.0925 215.1725 
Q 1241.0925 218.3725 1244.2925 218.3725 
z
" style="fill:#ffffff;opacity:0.8;stroke:#cccccc;stroke-linejoin:miter;"/>
    </g>
    <g id="line2d_19">
     <path d="M 1247.4925 62.135 
L 1279.4925 62.135 
" style="fill:none;stroke:#1f77b4;stroke-linecap:square;stroke-width:1.5;"/>
    </g>
    <g id="line2d_20"/>
    <g id="text_16">
     <!-- v(R1) -->
     <defs>
      <path d="M 2.984375 54.6875 
L 12.5 54.6875 
L 29.59375 8.796875 
L 46.6875 54.6875 
L 56.203125 54.6875 
L 35.6875 0 
L 23.484375 0 
z
" id="DejaVuSans-118"/>
      <path d="M 31 75.875 
Q 24.46875 64.65625 21.28125 53.65625 
Q 18.109375 42.671875 18.109375 31.390625 
Q 18.109375 20.125 21.3125 9.0625 
Q 24.515625 -2 31 -13.1875 
L 23.1875 -13.1875 
Q 15.875 -1.703125 12.234375 9.375 
Q 8.59375 20.453125 8.59375 31.390625 
Q 8.59375 42.28125 12.203125 53.3125 
Q 15.828125 64.359375 23.1875 75.875 
z
" id="DejaVuSans-40"/>
      <path d="M 44.390625 34.1875 
Q 47.5625 33.109375 50.5625 29.59375 
Q 53.5625 26.078125 56.59375 19.921875 
L 66.609375 0 
L 56 0 
L 46.6875 18.703125 
Q 43.0625 26.03125 39.671875 28.421875 
Q 36.28125 30.8125 30.421875 30.8125 
L 19.671875 30.8125 
L 19.671875 0 
L 9.8125 0 
L 9.8125 72.90625 
L 32.078125 72.90625 
Q 44.578125 72.90625 50.734375 67.671875 
Q 56.890625 62.453125 56.890625 51.90625 
Q 56.890625 45.015625 53.6875 40.46875 
Q 50.484375 35.9375 44.390625 34.1875 
z
M 19.671875 64.796875 
L 19.671875 38.921875 
L 32.078125 38.921875 
Q 39.203125 38.921875 42.84375 42.21875 
Q 46.484375 45.515625 46.484375 51.90625 
Q 46.484375 58.296875 42.84375 61.546875 
Q 39.203125 64.796875 32.078125 64.796875 
z
" id="DejaVuSans-82"/>
      <path d="M 8.015625 75.875 
L 15.828125 75.875 
Q 23.140625 64.359375 26.78125 53.3125 
Q 30.421875 42.28125 30.421875 31.390625 
Q 30.421875 20.453125 26.78125 9.375 
Q 23.140625 -1.703125 15.828125 -13.1875 
L 8.015625 -13.1875 
Q 14.5 -2 17.703125 9.0625 
Q 20.90625 20.125 20.90625 31.390625 
Q 20.90625 42.671875 17.703125 53.65625 
Q 14.5 64.65625 8.015625 75.875 
z
" id="DejaVuSans-41"/>
     </defs>
     <g transform="translate(1292.2925 67.735)scale(0.16 -0.16)">
      <use xlink:href="#DejaVuSans-118"/>
      <use x="59.179688" xlink:href="#DejaVuSans-40"/>
      <use x="98.193359" xlink:href="#DejaVuSans-82"/>
      <use x="167.675781" xlink:href="#DejaVuSans-49"/>
      <use x="231.298828" xlink:href="#DejaVuSans-41"/>
     </g>
    </g>
    <g id="line2d_21">
     <path d="M 1247.4925 85.62 
L 1279.4925 85.62 
" style="fill:none;stroke:#ff7f0e;stroke-linecap:square;stroke-width:1.5;"/>
    </g>
    <g id="line2d_22"/>
    <g id="text_17">
     <!-- v(L1) -->
     <defs>
      <path d="M 9.8125 72.90625 
L 19.671875 72.90625 
L 19.671875 8.296875 
L 55.171875 8.296875 
L 55.171875 0 
L 9.8125 0 
z
" id="DejaVuSans-76"/>
     </defs>
     <g transform="translate(1292.2925 91.22)scale(0.16 -0.16)">
      <use xlink:href="#DejaVuSans-118"/>
      <use x="59.179688" xlink:href="#DejaVuSans-40"/>
      <use x="98.193359" xlink:href="#DejaVuSans-76"/>
      <use x="153.90625" xlink:href="#DejaVuSans-49"/>
      <use x="217.529297" xlink:href="#DejaVuSans-41"/>
     </g>
    </g>
    <g id="line2d_23">
     <path d="M 1247.4925 109.105 
L 1279.4925 109.105 
" style="fill:none;stroke:#2ca02c;stroke-linecap:square;stroke-width:1.5;"/>
    </g>
    <g id="line2d_24"/>
    <g id="text_18">
     <!-- v(L2) -->
     <g transform="translate(1292.2925 114.705)scale(0.16 -0.16)">
      <use xlink:href="#DejaVuSans-118"/>
      <use x="59.179688" xlink:href="#DejaVuSans-40"/>
      <use x="98.193359" xlink:href="#DejaVuSans-76"/>
      <use x="153.90625" xlink:href="#DejaVuSans-50"/>
      <use x="217.529297" xlink:href="#DejaVuSans-41"/>
     </g>
    </g>
    <g id="line2d_25">
     <path d="M 1247.4925 132.59 
L 1279.4925 132.59 
" style="fill:none;stroke:#d62728;stroke-linecap:square;stroke-width:1.5;"/>
    </g>
    <g id="line2d_26"/>
    <g id="text_19">
     <!-- v(L3) -->
     <g transform="translate(1292.2925 138.19)scale(0.16 -0.16)">
      <use xlink:href="#DejaVuSans-118"/>
      <use x="59.179688" xlink:href="#DejaVuSans-40"/>
      <use x="98.193359" xlink:href="#DejaVuSans-76"/>
      <use x="153.90625" xlink:href="#DejaVuSans-51"/>
      <use x="217.529297" xlink:href="#DejaVuSans-41"/>
     </g>
    </g>
    <g id="line2d_27">
     <path d="M 1247.4925 156.075 
L 1279.4925 156.075 
" style="fill:none;stroke:#9467bd;stroke-linecap:square;stroke-width:1.5;"/>
    </g>
    <g id="line2d_28"/>
    <g id="text_20">
     <!-- v(C1) -->
     <defs>
      <path d="M 64.40625 67.28125 
L 64.40625 56.890625 
Q 59.421875 61.53125 53.78125 63.8125 
Q 48.140625 66.109375 41.796875 66.109375 
Q 29.296875 66.109375 22.65625 58.46875 
Q 16.015625 50.828125 16.015625 36.375 
Q 16.015625 21.96875 22.65625 14.328125 
Q 29.296875 6.6875 41.796875 6.6875 
Q 48.140625 6.6875 53.78125 8.984375 
Q 59.421875 11.28125 64.40625 15.921875 
L 64.40625 5.609375 
Q 59.234375 2.09375 53.4375 0.328125 
Q 47.65625 -1.421875 41.21875 -1.421875 
Q 24.65625 -1.421875 15.125 8.703125 
Q 5.609375 18.84375 5.609375 36.375 
Q 5.609375 53.953125 15.125 64.078125 
Q 24.65625 74.21875 41.21875 74.21875 
Q 47.75 74.21875 53.53125 72.484375 
Q 59.328125 70.75 64.40625 67.28125 
z
" id="DejaVuSans-67"/>
     </defs>
     <g transform="translate(1292.2925 161.675)scale(0.16 -0.16)">
      <use xlink:href="#DejaVuSans-118"/>
      <use x="59.179688" xlink:href="#DejaVuSans-40"/>
      <use x="98.193359" xlink:href="#DejaVuSans-67"/>
      <use x="168.017578" xlink:href="#DejaVuSans-49"/>
      <use x="231.640625" xlink:href="#DejaVuSans-41"/>
     </g>
    </g>
    <g id="line2d_29">
     <path d="M 1247.4925 179.56 
L 1279.4925 179.56 
" style="fill:none;stroke:#8c564b;stroke-linecap:square;stroke-width:1.5;"/>
    </g>
    <g id="line2d_30"/>
    <g id="text_21">
     <!-- v(C2) -->
     <g transform="translate(1292.2925 185.16)scale(0.16 -0.16)">
      <use xlink:href="#DejaVuSans-118"/>
      <use x="59.179688" xlink:href="#DejaVuSans-40"/>
      <use x="98.193359" xlink:href="#DejaVuSans-67"/>
      <use x="168.017578" xlink:href="#DejaVuSans-50"/>
      <use x="231.640625" xlink:href="#DejaVuSans-41"/>
     </g>
    </g>
    <g id="line2d_31">
     <path d="M 1247.4925 203.045 
L 1279.4925 203.045 
" style="fill:none;stroke:#e377c2;stroke-linecap:square;stroke-width:1.5;"/>
    </g>
    <g id="line2d_32"/>
    <g id="text_22">
     <!-- v(V1) -->
     <g transform="translate(1292.2925 208.645)scale(0.16 -0.16)">
      <use xlink:href="#DejaVuSans-118"/>
      <use x="59.179688" xlink:href="#DejaVuSans-40"/>
      <use x="98.193359" xlink:href="#DejaVuSans-86"/>
      <use x="166.601562" xlink:href="#DejaVuSans-49"/>
      <use x="230.224609" xlink:href="#DejaVuSans-41"/>
     </g>
    </g>
   </g>
  </g>
 </g>
 <defs>
  <clipPath id="p5797954b82">
   <rect height="519.458333" width="1182" x="168" y="41.1775"/>
  </clipPath>
 </defs>
</svg>
