<?xml version="1.0" encoding="utf-8" standalone="no"?>
<!DOCTYPE svg PUBLIC "-//W3C//DTD SVG 1.1//EN"
  "http://www.w3.org/Graphics/SVG/1.1/DTD/svg11.dtd">
<!-- Created with matplotlib (https://matplotlib.org/) -->
<svg height="655.2pt" version="1.1" viewBox="0 0 1382.4 655.2" width="1382.4pt" xmlns="http://www.w3.org/2000/svg" xmlns:xlink="http://www.w3.org/1999/xlink">
 <defs>
  <style type="text/css">
*{stroke-linecap:butt;stroke-linejoin:round;}
  </style>
 </defs>
 <g id="figure_1">
  <g id="patch_1">
   <path d="M 0 655.2 
L 1382.4 655.2 
L 1382.4 0 
L 0 0 
z
" style="fill:#ffffff;"/>
  </g>
  <g id="axes_1">
   <g id="patch_2">
    <path d="M 62.3 605.32 
L 1371.6 605.32 
L 1371.6 10.8 
L 62.3 10.8 
z
" style="fill:#ffffff;"/>
   </g>
   <g id="matplotlib.axis_1">
    <g id="xtick_1">
     <g id="line2d_1">
      <defs>
       <path d="M 0 0 
L 0 3.5 
" id="m2cbec0e0bd" style="stroke:#000000;stroke-width:0.8;"/>
      </defs>
      <g>
       <use style="stroke:#000000;stroke-width:0.8;" x="324.081426" xlink:href="#m2cbec0e0bd" y="605.32"/>
      </g>
     </g>
     <g id="text_1">
      <!-- 2 -->
      <defs>
       <path d="M 19.1875 8.296875 
L 53.609375 8.296875 
L 53.609375 0 
L 7.328125 0 
L 7.328125 8.296875 
Q 12.9375 14.109375 22.625 23.890625 
Q 32.328125 33.6875 34.8125 36.53125 
Q 39.546875 41.84375 41.421875 45.53125 
Q 43.3125 49.21875 43.3125 52.78125 
Q 43.3125 58.59375 39.234375 62.25 
Q 35.15625 65.921875 28.609375 65.921875 
Q 23.96875 65.921875 18.8125 64.3125 
Q 13.671875 62.703125 7.8125 59.421875 
L 7.8125 69.390625 
Q 13.765625 71.78125 18.9375 73 
Q 24.125 74.21875 28.421875 74.21875 
Q 39.75 74.21875 46.484375 68.546875 
Q 53.21875 62.890625 53.21875 53.421875 
Q 53.21875 48.921875 51.53125 44.890625 
Q 49.859375 40.875 45.40625 35.40625 
Q 44.1875 33.984375 37.640625 27.21875 
Q 31.109375 20.453125 19.1875 8.296875 
z
" id="DejaVuSans-50"/>
      </defs>
      <g transform="translate(320.900176 619.918437)scale(0.1 -0.1)">
       <use xlink:href="#DejaVuSans-50"/>
      </g>
     </g>
    </g>
    <g id="xtick_2">
     <g id="line2d_2">
      <g>
       <use style="stroke:#000000;stroke-width:0.8;" x="585.993809" xlink:href="#m2cbec0e0bd" y="605.32"/>
      </g>
     </g>
     <g id="text_2">
      <!-- 4 -->
      <defs>
       <path d="M 37.796875 64.3125 
L 12.890625 25.390625 
L 37.796875 25.390625 
z
M 35.203125 72.90625 
L 47.609375 72.90625 
L 47.609375 25.390625 
L 58.015625 25.390625 
L 58.015625 17.1875 
L 47.609375 17.1875 
L 47.609375 0 
L 37.796875 0 
L 37.796875 17.1875 
L 4.890625 17.1875 
L 4.890625 26.703125 
z
" id="DejaVuSans-52"/>
      </defs>
      <g transform="translate(582.812559 619.918437)scale(0.1 -0.1)">
       <use xlink:href="#DejaVuSans-52"/>
      </g>
     </g>
    </g>
    <g id="xtick_3">
     <g id="line2d_3">
      <g>
       <use style="stroke:#000000;stroke-width:0.8;" x="847.906191" xlink:href="#m2cbec0e0bd" y="605.32"/>
      </g>
     </g>
     <g id="text_3">
      <!-- 6 -->
      <defs>
       <path d="M 33.015625 40.375 
Q 26.375 40.375 22.484375 35.828125 
Q 18.609375 31.296875 18.609375 23.390625 
Q 18.609375 15.53125 22.484375 10.953125 
Q 26.375 6.390625 33.015625 6.390625 
Q 39.65625 6.390625 43.53125 10.953125 
Q 47.40625 15.53125 47.40625 23.390625 
Q 47.40625 31.296875 43.53125 35.828125 
Q 39.65625 40.375 33.015625 40.375 
z
M 52.59375 71.296875 
L 52.59375 62.3125 
Q 48.875 64.0625 45.09375 64.984375 
Q 41.3125 65.921875 37.59375 65.921875 
Q 27.828125 65.921875 22.671875 59.328125 
Q 17.53125 52.734375 16.796875 39.40625 
Q 19.671875 43.65625 24.015625 45.921875 
Q 28.375 48.1875 33.59375 48.1875 
Q 44.578125 48.1875 50.953125 41.515625 
Q 57.328125 34.859375 57.328125 23.390625 
Q 57.328125 12.15625 50.6875 5.359375 
Q 44.046875 -1.421875 33.015625 -1.421875 
Q 20.359375 -1.421875 13.671875 8.265625 
Q 6.984375 17.96875 6.984375 36.375 
Q 6.984375 53.65625 15.1875 63.9375 
Q 23.390625 74.21875 37.203125 74.21875 
Q 40.921875 74.21875 44.703125 73.484375 
Q 48.484375 72.75 52.59375 71.296875 
z
" id="DejaVuSans-54"/>
      </defs>
      <g transform="translate(844.724941 619.918437)scale(0.1 -0.1)">
       <use xlink:href="#DejaVuSans-54"/>
      </g>
     </g>
    </g>
    <g id="xtick_4">
     <g id="line2d_4">
      <g>
       <use style="stroke:#000000;stroke-width:0.8;" x="1109.818574" xlink:href="#m2cbec0e0bd" y="605.32"/>
      </g>
     </g>
     <g id="text_4">
      <!-- 8 -->
      <defs>
       <path d="M 31.78125 34.625 
Q 24.75 34.625 20.71875 30.859375 
Q 16.703125 27.09375 16.703125 20.515625 
Q 16.703125 13.921875 20.71875 10.15625 
Q 24.75 6.390625 31.78125 6.390625 
Q 38.8125 6.390625 42.859375 10.171875 
Q 46.921875 13.96875 46.921875 20.515625 
Q 46.921875 27.09375 42.890625 30.859375 
Q 38.875 34.625 31.78125 34.625 
z
M 21.921875 38.8125 
Q 15.578125 40.375 12.03125 44.71875 
Q 8.5 49.078125 8.5 55.328125 
Q 8.5 64.0625 14.71875 69.140625 
Q 20.953125 74.21875 31.78125 74.21875 
Q 42.671875 74.21875 48.875 69.140625 
Q 55.078125 64.0625 55.078125 55.328125 
Q 55.078125 49.078125 51.53125 44.71875 
Q 48 40.375 41.703125 38.8125 
Q 48.828125 37.15625 52.796875 32.3125 
Q 56.78125 27.484375 56.78125 20.515625 
Q 56.78125 9.90625 50.3125 4.234375 
Q 43.84375 -1.421875 31.78125 -1.421875 
Q 19.734375 -1.421875 13.25 4.234375 
Q 6.78125 9.90625 6.78125 20.515625 
Q 6.78125 27.484375 10.78125 32.3125 
Q 14.796875 37.15625 21.921875 38.8125 
z
M 18.3125 54.390625 
Q 18.3125 48.734375 21.84375 45.5625 
Q 25.390625 42.390625 31.78125 42.390625 
Q 38.140625 42.390625 41.71875 45.5625 
Q 45.3125 48.734375 45.3125 54.390625 
Q 45.3125 60.0625 41.71875 63.234375 
Q 38.140625 66.40625 31.78125 66.40625 
Q 25.390625 66.40625 21.84375 63.234375 
Q 18.3125 60.0625 18.3125 54.390625 
z
" id="DejaVuSans-56"/>
      </defs>
      <g transform="translate(1106.637324 619.918437)scale(0.1 -0.1)">
       <use xlink:href="#DejaVuSans-56"/>
      </g>
     </g>
    </g>
    <g id="text_5">
     <!-- Time [$s$] -->
     <defs>
      <path d="M -0.296875 72.90625 
L 61.375 72.90625 
L 61.375 64.59375 
L 35.5 64.59375 
L 35.5 0 
L 25.59375 0 
L 25.59375 64.59375 
L -0.296875 64.59375 
z
" id="DejaVuSans-84"/>
      <path d="M 9.421875 54.6875 
L 18.40625 54.6875 
L 18.40625 0 
L 9.421875 0 
z
M 9.421875 75.984375 
L 18.40625 75.984375 
L 18.40625 64.59375 
L 9.421875 64.59375 
z
" id="DejaVuSans-105"/>
      <path d="M 52 44.1875 
Q 55.375 50.25 60.0625 53.125 
Q 64.75 56 71.09375 56 
Q 79.640625 56 84.28125 50.015625 
Q 88.921875 44.046875 88.921875 33.015625 
L 88.921875 0 
L 79.890625 0 
L 79.890625 32.71875 
Q 79.890625 40.578125 77.09375 44.375 
Q 74.3125 48.1875 68.609375 48.1875 
Q 61.625 48.1875 57.5625 43.546875 
Q 53.515625 38.921875 53.515625 30.90625 
L 53.515625 0 
L 44.484375 0 
L 44.484375 32.71875 
Q 44.484375 40.625 41.703125 44.40625 
Q 38.921875 48.1875 33.109375 48.1875 
Q 26.21875 48.1875 22.15625 43.53125 
Q 18.109375 38.875 18.109375 30.90625 
L 18.109375 0 
L 9.078125 0 
L 9.078125 54.6875 
L 18.109375 54.6875 
L 18.109375 46.1875 
Q 21.1875 51.21875 25.484375 53.609375 
Q 29.78125 56 35.6875 56 
Q 41.65625 56 45.828125 52.96875 
Q 50 49.953125 52 44.1875 
z
" id="DejaVuSans-109"/>
      <path d="M 56.203125 29.59375 
L 56.203125 25.203125 
L 14.890625 25.203125 
Q 15.484375 15.921875 20.484375 11.0625 
Q 25.484375 6.203125 34.421875 6.203125 
Q 39.59375 6.203125 44.453125 7.46875 
Q 49.3125 8.734375 54.109375 11.28125 
L 54.109375 2.78125 
Q 49.265625 0.734375 44.1875 -0.34375 
Q 39.109375 -1.421875 33.890625 -1.421875 
Q 20.796875 -1.421875 13.15625 6.1875 
Q 5.515625 13.8125 5.515625 26.8125 
Q 5.515625 40.234375 12.765625 48.109375 
Q 20.015625 56 32.328125 56 
Q 43.359375 56 49.78125 48.890625 
Q 56.203125 41.796875 56.203125 29.59375 
z
M 47.21875 32.234375 
Q 47.125 39.59375 43.09375 43.984375 
Q 39.0625 48.390625 32.421875 48.390625 
Q 24.90625 48.390625 20.390625 44.140625 
Q 15.875 39.890625 15.1875 32.171875 
z
" id="DejaVuSans-101"/>
      <path id="DejaVuSans-32"/>
      <path d="M 8.59375 75.984375 
L 29.296875 75.984375 
L 29.296875 69 
L 17.578125 69 
L 17.578125 -6.203125 
L 29.296875 -6.203125 
L 29.296875 -13.1875 
L 8.59375 -13.1875 
z
" id="DejaVuSans-91"/>
      <path d="M 50 53.078125 
L 48.296875 44.578125 
Q 44.734375 46.53125 40.765625 47.5 
Q 36.8125 48.484375 32.625 48.484375 
Q 25.53125 48.484375 21.453125 46.0625 
Q 17.390625 43.65625 17.390625 39.5 
Q 17.390625 34.671875 26.859375 32.078125 
Q 27.59375 31.890625 27.9375 31.78125 
L 30.8125 30.90625 
Q 39.796875 28.421875 42.796875 25.6875 
Q 45.796875 22.953125 45.796875 18.21875 
Q 45.796875 9.515625 38.890625 4.046875 
Q 31.984375 -1.421875 20.796875 -1.421875 
Q 16.453125 -1.421875 11.671875 -0.578125 
Q 6.890625 0.25 1.125 2 
L 2.875 11.28125 
Q 7.8125 8.734375 12.59375 7.421875 
Q 17.390625 6.109375 21.78125 6.109375 
Q 28.375 6.109375 32.5 8.9375 
Q 36.625 11.765625 36.625 16.109375 
Q 36.625 20.796875 25.78125 23.6875 
L 24.859375 23.921875 
L 21.78125 24.703125 
Q 14.9375 26.515625 11.765625 29.46875 
Q 8.59375 32.421875 8.59375 37.015625 
Q 8.59375 45.75 15.15625 50.875 
Q 21.734375 56 33.015625 56 
Q 37.453125 56 41.671875 55.265625 
Q 45.90625 54.546875 50 53.078125 
z
" id="DejaVuSans-Oblique-115"/>
      <path d="M 30.421875 75.984375 
L 30.421875 -13.1875 
L 9.71875 -13.1875 
L 9.71875 -6.203125 
L 21.390625 -6.203125 
L 21.390625 69 
L 9.71875 69 
L 9.71875 75.984375 
z
" id="DejaVuSans-93"/>
     </defs>
     <g transform="translate(684.15 638.155625)scale(0.16 -0.16)">
      <use transform="translate(0 0.015625)" xlink:href="#DejaVuSans-84"/>
      <use transform="translate(61.083984 0.015625)" xlink:href="#DejaVuSans-105"/>
      <use transform="translate(88.867188 0.015625)" xlink:href="#DejaVuSans-109"/>
      <use transform="translate(186.279297 0.015625)" xlink:href="#DejaVuSans-101"/>
      <use transform="translate(247.802734 0.015625)" xlink:href="#DejaVuSans-32"/>
      <use transform="translate(279.589844 0.015625)" xlink:href="#DejaVuSans-91"/>
      <use transform="translate(318.603516 0.015625)" xlink:href="#DejaVuSans-Oblique-115"/>
      <use transform="translate(370.703125 0.015625)" xlink:href="#DejaVuSans-93"/>
     </g>
    </g>
    <g id="text_6">
     <!-- 1e−3 -->
     <defs>
      <path d="M 12.40625 8.296875 
L 28.515625 8.296875 
L 28.515625 63.921875 
L 10.984375 60.40625 
L 10.984375 69.390625 
L 28.421875 72.90625 
L 38.28125 72.90625 
L 38.28125 8.296875 
L 54.390625 8.296875 
L 54.390625 0 
L 12.40625 0 
z
" id="DejaVuSans-49"/>
      <path d="M 10.59375 35.5 
L 73.1875 35.5 
L 73.1875 27.203125 
L 10.59375 27.203125 
z
" id="DejaVuSans-8722"/>
      <path d="M 40.578125 39.3125 
Q 47.65625 37.796875 51.625 33 
Q 55.609375 28.21875 55.609375 21.1875 
Q 55.609375 10.40625 48.1875 4.484375 
Q 40.765625 -1.421875 27.09375 -1.421875 
Q 22.515625 -1.421875 17.65625 -0.515625 
Q 12.796875 0.390625 7.625 2.203125 
L 7.625 11.71875 
Q 11.71875 9.328125 16.59375 8.109375 
Q 21.484375 6.890625 26.8125 6.890625 
Q 36.078125 6.890625 40.9375 10.546875 
Q 45.796875 14.203125 45.796875 21.1875 
Q 45.796875 27.640625 41.28125 31.265625 
Q 36.765625 34.90625 28.71875 34.90625 
L 20.21875 34.90625 
L 20.21875 43.015625 
L 29.109375 43.015625 
Q 36.375 43.015625 40.234375 45.921875 
Q 44.09375 48.828125 44.09375 54.296875 
Q 44.09375 59.90625 40.109375 62.90625 
Q 36.140625 65.921875 28.71875 65.921875 
Q 24.65625 65.921875 20.015625 65.03125 
Q 15.375 64.15625 9.8125 62.3125 
L 9.8125 71.09375 
Q 15.4375 72.65625 20.34375 73.4375 
Q 25.25 74.21875 29.59375 74.21875 
Q 40.828125 74.21875 47.359375 69.109375 
Q 53.90625 64.015625 53.90625 55.328125 
Q 53.90625 49.265625 50.4375 45.09375 
Q 46.96875 40.921875 40.578125 39.3125 
z
" id="DejaVuSans-51"/>
     </defs>
     <g transform="translate(1344.342187 632.596562)scale(0.1 -0.1)">
      <use xlink:href="#DejaVuSans-49"/>
      <use x="63.623047" xlink:href="#DejaVuSans-101"/>
      <use x="125.146484" xlink:href="#DejaVuSans-8722"/>
      <use x="208.935547" xlink:href="#DejaVuSans-51"/>
     </g>
    </g>
   </g>
   <g id="matplotlib.axis_2">
    <g id="ytick_1">
     <g id="line2d_5">
      <defs>
       <path d="M 0 0 
L -3.5 0 
" id="m3a970ede5b" style="stroke:#000000;stroke-width:0.8;"/>
      </defs>
      <g>
       <use style="stroke:#000000;stroke-width:0.8;" x="62.3" xlink:href="#m3a970ede5b" y="553.133694"/>
      </g>
     </g>
     <g id="text_7">
      <!-- −10 -->
      <defs>
       <path d="M 31.78125 66.40625 
Q 24.171875 66.40625 20.328125 58.90625 
Q 16.5 51.421875 16.5 36.375 
Q 16.5 21.390625 20.328125 13.890625 
Q 24.171875 6.390625 31.78125 6.390625 
Q 39.453125 6.390625 43.28125 13.890625 
Q 47.125 21.390625 47.125 36.375 
Q 47.125 51.421875 43.28125 58.90625 
Q 39.453125 66.40625 31.78125 66.40625 
z
M 31.78125 74.21875 
Q 44.046875 74.21875 50.515625 64.515625 
Q 56.984375 54.828125 56.984375 36.375 
Q 56.984375 17.96875 50.515625 8.265625 
Q 44.046875 -1.421875 31.78125 -1.421875 
Q 19.53125 -1.421875 13.0625 8.265625 
Q 6.59375 17.96875 6.59375 36.375 
Q 6.59375 54.828125 13.0625 64.515625 
Q 19.53125 74.21875 31.78125 74.21875 
z
" id="DejaVuSans-48"/>
      </defs>
      <g transform="translate(34.195312 556.932913)scale(0.1 -0.1)">
       <use xlink:href="#DejaVuSans-8722"/>
       <use x="83.789062" xlink:href="#DejaVuSans-49"/>
       <use x="147.412109" xlink:href="#DejaVuSans-48"/>
      </g>
     </g>
    </g>
    <g id="ytick_2">
     <g id="line2d_6">
      <g>
       <use style="stroke:#000000;stroke-width:0.8;" x="62.3" xlink:href="#m3a970ede5b" y="424.306179"/>
      </g>
     </g>
     <g id="text_8">
      <!-- −5 -->
      <defs>
       <path d="M 10.796875 72.90625 
L 49.515625 72.90625 
L 49.515625 64.59375 
L 19.828125 64.59375 
L 19.828125 46.734375 
Q 21.96875 47.46875 24.109375 47.828125 
Q 26.265625 48.1875 28.421875 48.1875 
Q 40.625 48.1875 47.75 41.5 
Q 54.890625 34.8125 54.890625 23.390625 
Q 54.890625 11.625 47.5625 5.09375 
Q 40.234375 -1.421875 26.90625 -1.421875 
Q 22.3125 -1.421875 17.546875 -0.640625 
Q 12.796875 0.140625 7.71875 1.703125 
L 7.71875 11.625 
Q 12.109375 9.234375 16.796875 8.0625 
Q 21.484375 6.890625 26.703125 6.890625 
Q 35.15625 6.890625 40.078125 11.328125 
Q 45.015625 15.765625 45.015625 23.390625 
Q 45.015625 31 40.078125 35.4375 
Q 35.15625 39.890625 26.703125 39.890625 
Q 22.75 39.890625 18.8125 39.015625 
Q 14.890625 38.140625 10.796875 36.28125 
z
" id="DejaVuSans-53"/>
      </defs>
      <g transform="translate(40.557812 428.105398)scale(0.1 -0.1)">
       <use xlink:href="#DejaVuSans-8722"/>
       <use x="83.789062" xlink:href="#DejaVuSans-53"/>
      </g>
     </g>
    </g>
    <g id="ytick_3">
     <g id="line2d_7">
      <g>
       <use style="stroke:#000000;stroke-width:0.8;" x="62.3" xlink:href="#m3a970ede5b" y="295.478665"/>
      </g>
     </g>
     <g id="text_9">
      <!-- 0 -->
      <g transform="translate(48.9375 299.277884)scale(0.1 -0.1)">
       <use xlink:href="#DejaVuSans-48"/>
      </g>
     </g>
    </g>
    <g id="ytick_4">
     <g id="line2d_8">
      <g>
       <use style="stroke:#000000;stroke-width:0.8;" x="62.3" xlink:href="#m3a970ede5b" y="166.651151"/>
      </g>
     </g>
     <g id="text_10">
      <!-- 5 -->
      <g transform="translate(48.9375 170.450369)scale(0.1 -0.1)">
       <use xlink:href="#DejaVuSans-53"/>
      </g>
     </g>
    </g>
    <g id="ytick_5">
     <g id="line2d_9">
      <g>
       <use style="stroke:#000000;stroke-width:0.8;" x="62.3" xlink:href="#m3a970ede5b" y="37.823636"/>
      </g>
     </g>
     <g id="text_11">
      <!-- 10 -->
      <g transform="translate(42.575 41.622855)scale(0.1 -0.1)">
       <use xlink:href="#DejaVuSans-49"/>
       <use x="63.623047" xlink:href="#DejaVuSans-48"/>
      </g>
     </g>
    </g>
    <g id="text_12">
     <!-- Voltage [$V$] -->
     <defs>
      <path d="M 28.609375 0 
L 0.78125 72.90625 
L 11.078125 72.90625 
L 34.1875 11.53125 
L 57.328125 72.90625 
L 67.578125 72.90625 
L 39.796875 0 
z
" id="DejaVuSans-86"/>
      <path d="M 30.609375 48.390625 
Q 23.390625 48.390625 19.1875 42.75 
Q 14.984375 37.109375 14.984375 27.296875 
Q 14.984375 17.484375 19.15625 11.84375 
Q 23.34375 6.203125 30.609375 6.203125 
Q 37.796875 6.203125 41.984375 11.859375 
Q 46.1875 17.53125 46.1875 27.296875 
Q 46.1875 37.015625 41.984375 42.703125 
Q 37.796875 48.390625 30.609375 48.390625 
z
M 30.609375 56 
Q 42.328125 56 49.015625 48.375 
Q 55.71875 40.765625 55.71875 27.296875 
Q 55.71875 13.875 49.015625 6.21875 
Q 42.328125 -1.421875 30.609375 -1.421875 
Q 18.84375 -1.421875 12.171875 6.21875 
Q 5.515625 13.875 5.515625 27.296875 
Q 5.515625 40.765625 12.171875 48.375 
Q 18.84375 56 30.609375 56 
z
" id="DejaVuSans-111"/>
      <path d="M 9.421875 75.984375 
L 18.40625 75.984375 
L 18.40625 0 
L 9.421875 0 
z
" id="DejaVuSans-108"/>
      <path d="M 18.3125 70.21875 
L 18.3125 54.6875 
L 36.8125 54.6875 
L 36.8125 47.703125 
L 18.3125 47.703125 
L 18.3125 18.015625 
Q 18.3125 11.328125 20.140625 9.421875 
Q 21.96875 7.515625 27.59375 7.515625 
L 36.8125 7.515625 
L 36.8125 0 
L 27.59375 0 
Q 17.1875 0 13.234375 3.875 
Q 9.28125 7.765625 9.28125 18.015625 
L 9.28125 47.703125 
L 2.6875 47.703125 
L 2.6875 54.6875 
L 9.28125 54.6875 
L 9.28125 70.21875 
z
" id="DejaVuSans-116"/>
      <path d="M 34.28125 27.484375 
Q 23.390625 27.484375 19.1875 25 
Q 14.984375 22.515625 14.984375 16.5 
Q 14.984375 11.71875 18.140625 8.90625 
Q 21.296875 6.109375 26.703125 6.109375 
Q 34.1875 6.109375 38.703125 11.40625 
Q 43.21875 16.703125 43.21875 25.484375 
L 43.21875 27.484375 
z
M 52.203125 31.203125 
L 52.203125 0 
L 43.21875 0 
L 43.21875 8.296875 
Q 40.140625 3.328125 35.546875 0.953125 
Q 30.953125 -1.421875 24.3125 -1.421875 
Q 15.921875 -1.421875 10.953125 3.296875 
Q 6 8.015625 6 15.921875 
Q 6 25.140625 12.171875 29.828125 
Q 18.359375 34.515625 30.609375 34.515625 
L 43.21875 34.515625 
L 43.21875 35.40625 
Q 43.21875 41.609375 39.140625 45 
Q 35.0625 48.390625 27.6875 48.390625 
Q 23 48.390625 18.546875 47.265625 
Q 14.109375 46.140625 10.015625 43.890625 
L 10.015625 52.203125 
Q 14.9375 54.109375 19.578125 55.046875 
Q 24.21875 56 28.609375 56 
Q 40.484375 56 46.34375 49.84375 
Q 52.203125 43.703125 52.203125 31.203125 
z
" id="DejaVuSans-97"/>
      <path d="M 45.40625 27.984375 
Q 45.40625 37.75 41.375 43.109375 
Q 37.359375 48.484375 30.078125 48.484375 
Q 22.859375 48.484375 18.828125 43.109375 
Q 14.796875 37.75 14.796875 27.984375 
Q 14.796875 18.265625 18.828125 12.890625 
Q 22.859375 7.515625 30.078125 7.515625 
Q 37.359375 7.515625 41.375 12.890625 
Q 45.40625 18.265625 45.40625 27.984375 
z
M 54.390625 6.78125 
Q 54.390625 -7.171875 48.1875 -13.984375 
Q 42 -20.796875 29.203125 -20.796875 
Q 24.46875 -20.796875 20.265625 -20.09375 
Q 16.0625 -19.390625 12.109375 -17.921875 
L 12.109375 -9.1875 
Q 16.0625 -11.328125 19.921875 -12.34375 
Q 23.78125 -13.375 27.78125 -13.375 
Q 36.625 -13.375 41.015625 -8.765625 
Q 45.40625 -4.15625 45.40625 5.171875 
L 45.40625 9.625 
Q 42.625 4.78125 38.28125 2.390625 
Q 33.9375 0 27.875 0 
Q 17.828125 0 11.671875 7.65625 
Q 5.515625 15.328125 5.515625 27.984375 
Q 5.515625 40.671875 11.671875 48.328125 
Q 17.828125 56 27.875 56 
Q 33.9375 56 38.28125 53.609375 
Q 42.625 51.21875 45.40625 46.390625 
L 45.40625 54.6875 
L 54.390625 54.6875 
z
" id="DejaVuSans-103"/>
      <path d="M 20.609375 0 
L 7.8125 72.90625 
L 17.484375 72.90625 
L 28.078125 10.203125 
L 63.484375 72.90625 
L 74.21875 72.90625 
L 32.078125 0 
z
" id="DejaVuSans-Oblique-86"/>
     </defs>
     <g transform="translate(26.835312 353.02)rotate(-90)scale(0.16 -0.16)">
      <use transform="translate(0 0.015625)" xlink:href="#DejaVuSans-86"/>
      <use transform="translate(68.408203 0.015625)" xlink:href="#DejaVuSans-111"/>
      <use transform="translate(129.589844 0.015625)" xlink:href="#DejaVuSans-108"/>
      <use transform="translate(157.373047 0.015625)" xlink:href="#DejaVuSans-116"/>
      <use transform="translate(196.582031 0.015625)" xlink:href="#DejaVuSans-97"/>
      <use transform="translate(257.861328 0.015625)" xlink:href="#DejaVuSans-103"/>
      <use transform="translate(321.337891 0.015625)" xlink:href="#DejaVuSans-101"/>
      <use transform="translate(382.861328 0.015625)" xlink:href="#DejaVuSans-32"/>
      <use transform="translate(414.648438 0.015625)" xlink:href="#DejaVuSans-91"/>
      <use transform="translate(453.662109 0.015625)" xlink:href="#DejaVuSans-Oblique-86"/>
      <use transform="translate(522.070312 0.015625)" xlink:href="#DejaVuSans-93"/>
     </g>
    </g>
   </g>
   <g id="line2d_10">
    <path clip-path="url(#p1b76c4329f)" d="M 62.3 526.012183 
L 62.823825 443.229584 
L 63.34765 390.191026 
L 63.871474 356.222636 
L 64.395299 334.480887 
L 64.919124 320.578047 
L 65.442949 311.700898 
L 65.966773 306.045707 
L 66.490598 302.45597 
L 67.014423 300.190143 
L 67.538248 298.772736 
L 68.062072 297.898834 
L 68.716853 297.279937 
L 69.371634 296.974797 
L 70.288328 296.829366 
L 71.59789 296.87748 
L 75.133707 297.328691 
L 79.717173 297.810359 
L 83.645859 298.001872 
L 87.574545 297.967645 
L 91.503231 297.711327 
L 95.824785 297.201501 
L 101.063033 296.343574 
L 116.908732 293.57827 
L 121.230286 293.154798 
L 125.158972 292.987805 
L 129.087658 293.043672 
L 133.147299 293.329353 
L 137.59981 293.875504 
L 143.09997 294.792044 
L 156.85037 297.1977 
L 161.302881 297.68676 
L 165.362523 297.911969 
L 169.291208 297.908577 
L 173.35085 297.677377 
L 177.672404 297.202774 
L 182.779696 296.409548 
L 199.934957 293.546188 
L 204.256511 293.177249 
L 208.316153 293.05747 
L 212.244839 293.161588 
L 216.435437 293.499704 
L 221.14986 294.11623 
L 227.435757 295.189122 
L 237.781296 296.964814 
L 242.495719 297.527437 
L 246.686317 297.807039 
L 250.745959 297.851886 
L 254.805601 297.670501 
L 259.127155 297.249362 
L 264.103491 296.533542 
L 272.615643 295.034393 
L 279.294409 293.961377 
L 284.008832 293.426717 
L 288.19943 293.172343 
L 292.259072 293.14975 
L 296.318714 293.3491 
L 300.771224 293.799021 
L 306.009472 294.567091 
L 323.557602 297.349359 
L 327.879156 297.688356 
L 331.938798 297.78906 
L 335.99844 297.669346 
L 340.319994 297.313629 
L 345.165373 296.683591 
L 352.106051 295.52787 
L 361.011072 294.079711 
L 365.856451 293.524386 
L 370.178006 293.252256 
L 374.237648 293.215946 
L 378.428246 293.404547 
L 382.880756 293.834014 
L 388.119004 294.57319 
L 406.060002 297.317281 
L 410.512513 297.638926 
L 414.703111 297.715187 
L 418.893709 297.564297 
L 423.346219 297.1734 
L 428.453511 296.491749 
L 437.096619 295.06346 
L 444.037297 294.021304 
L 448.882677 293.520487 
L 453.204231 293.297478 
L 457.394829 293.3065 
L 461.716383 293.546387 
L 466.29985 294.026662 
L 472.061922 294.868269 
L 486.205191 297.039115 
L 490.919614 297.471542 
L 495.241168 297.643097 
L 499.431766 297.586013 
L 503.753321 297.303659 
L 508.5987 296.756478 
L 515.015553 295.784855 
L 526.015873 294.099347 
L 530.992208 293.591046 
L 535.313763 293.367846 
L 539.504361 293.36943 
L 543.825915 293.594998 
L 548.540338 294.070419 
L 554.433367 294.906429 
L 568.445679 296.990471 
L 573.160102 297.409945 
L 577.481656 297.576575 
L 581.803211 297.516437 
L 586.255721 297.225125 
L 591.232056 296.666713 
L 598.041778 295.651855 
L 608.125405 294.15845 
L 613.10174 293.659322 
L 617.554251 293.432805 
L 621.875805 293.437446 
L 626.328316 293.672222 
L 631.173695 294.160068 
L 637.328636 295.022896 
L 650.162342 296.88521 
L 655.007722 297.325036 
L 659.460232 297.508491 
L 663.781786 297.463901 
L 668.234297 297.194457 
L 673.210632 296.664416 
L 679.889398 295.708067 
L 690.496849 294.184289 
L 695.604141 293.696742 
L 700.056651 293.489808 
L 704.378206 293.507173 
L 708.830716 293.747143 
L 713.807051 294.246639 
L 720.223905 295.133788 
L 732.009962 296.797572 
L 736.986297 297.25072 
L 741.569764 297.444031 
L 746.022274 297.403192 
L 750.605741 297.131582 
L 755.713033 296.596546 
L 762.784667 295.6042 
L 772.737337 294.224778 
L 777.844629 293.751896 
L 782.428096 293.548387 
L 786.880606 293.575267 
L 791.464073 293.830051 
L 796.571364 294.345888 
L 803.512042 295.296756 
L 813.988538 296.727436 
L 819.095829 297.187283 
L 823.679296 297.381406 
L 828.131806 297.348625 
L 832.715273 297.091787 
L 837.822565 296.578727 
L 844.894199 295.6203 
L 855.108782 294.249574 
L 860.347029 293.788211 
L 864.930496 293.603251 
L 869.383007 293.641739 
L 874.097429 293.910884 
L 879.335677 294.441895 
L 886.80018 295.451041 
L 896.229026 296.688387 
L 901.467273 297.142762 
L 906.181696 297.326968 
L 910.765163 297.278455 
L 915.479586 297.001523 
L 920.84879 296.452947 
L 928.837117 295.377333 
L 937.480226 294.274137 
L 942.718474 293.832449 
L 947.432897 293.657257 
L 952.016363 293.711207 
L 956.730786 293.989622 
L 962.09999 294.534621 
L 970.35023 295.63226 
L 978.731426 296.677757 
L 983.969674 297.107 
L 988.684097 297.273397 
L 993.267564 297.214195 
L 998.112943 296.923786 
L 1003.613103 296.361999 
L 1012.64908 295.168646 
L 1020.244539 294.259178 
L 1025.482787 293.853684 
L 1030.197209 293.708235 
L 1034.911632 293.790077 
L 1039.757011 294.098956 
L 1045.388128 294.686582 
L 1065.555381 297.017314 
L 1070.40076 297.211191 
L 1075.115183 297.174312 
L 1079.960562 296.910479 
L 1085.460722 296.38071 
L 1093.972875 295.298937 
L 1102.354071 294.309825 
L 1107.723275 293.903913 
L 1112.568654 293.76183 
L 1117.283077 293.846945 
L 1122.259412 294.162548 
L 1128.15244 294.771937 
L 1147.141088 296.927773 
L 1152.117423 297.148353 
L 1156.831846 297.137133 
L 1161.677225 296.904504 
L 1167.177385 296.410757 
L 1175.165713 295.439251 
L 1184.463603 294.358639 
L 1189.963763 293.95259 
L 1194.809142 293.814565 
L 1199.654521 293.902056 
L 1204.761812 294.224017 
L 1210.785797 294.838504 
L 1228.857752 296.847787 
L 1233.965043 297.088292 
L 1238.810422 297.09252 
L 1243.786757 296.869919 
L 1249.286917 296.396427 
L 1257.275245 295.457558 
L 1266.835047 294.381686 
L 1272.335207 293.993351 
L 1277.311542 293.86464 
L 1282.156921 293.960879 
L 1287.395169 294.294298 
L 1293.681066 294.932311 
L 1310.443459 296.759785 
L 1315.681706 297.025298 
L 1320.658042 297.050841 
L 1325.634377 296.852212 
L 1331.265493 296.394992 
L 1339.122865 295.506338 
L 1349.075535 294.415943 
L 1354.706651 294.033178 
L 1359.682987 293.913924 
L 1364.659322 294.018135 
L 1370.028526 294.362438 
L 1371.6 294.501375 
L 1371.6 294.501375 
" style="fill:none;stroke:#1f77b4;stroke-linecap:square;stroke-width:1.5;"/>
   </g>
   <g id="line2d_11">
    <path clip-path="url(#p1b76c4329f)" d="M 62.3 298.190748 
L 62.823825 306.463788 
L 63.34765 311.745293 
L 63.871474 315.094042 
L 64.395299 317.188928 
L 64.919124 318.465309 
L 65.442949 319.202422 
L 65.966773 319.579436 
L 66.490598 319.711379 
L 67.145379 319.64165 
L 67.931116 319.325286 
L 68.978766 318.6396 
L 70.288328 317.486236 
L 71.859802 315.769745 
L 73.562232 313.568356 
L 75.526575 310.650277 
L 77.752831 306.939067 
L 80.633867 301.671669 
L 90.979406 282.297932 
L 93.205661 278.823872 
L 95.170004 276.159234 
L 96.872434 274.202207 
L 98.443909 272.716091 
L 99.884427 271.642625 
L 101.193989 270.917605 
L 102.503551 270.438805 
L 103.813113 270.210764 
L 104.991718 270.221658 
L 106.170324 270.437074 
L 107.479886 270.913898 
L 108.789448 271.635784 
L 110.229966 272.703934 
L 111.670484 274.046305 
L 113.241958 275.80395 
L 115.075345 278.207613 
L 117.170644 281.361394 
L 119.527856 285.330104 
L 122.670804 291.096946 
L 130.921044 306.478304 
L 133.409212 310.515085 
L 135.504511 313.494203 
L 137.337898 315.721798 
L 139.040328 317.433555 
L 140.480846 318.591738 
L 141.921364 319.469179 
L 143.230926 320.014496 
L 144.540488 320.314025 
L 145.719094 320.371127 
L 146.8977 320.226599 
L 148.207261 319.831229 
L 149.516823 319.192837 
L 150.957341 318.217888 
L 152.39786 316.969045 
L 153.969334 315.312475 
L 155.671764 313.198939 
L 157.636107 310.394499 
L 159.862362 306.819911 
L 162.743399 301.733782 
L 173.35085 282.503663 
L 175.577105 279.160122 
L 177.541448 276.602531 
L 179.243879 274.730176 
L 180.815353 273.31424 
L 182.255871 272.297496 
L 183.565433 271.617132 
L 184.874995 271.175951 
L 186.184557 270.978125 
L 187.494119 271.025389 
L 188.803681 271.317029 
L 190.113243 271.849886 
L 191.422805 272.618394 
L 192.863323 273.726417 
L 194.434797 275.233208 
L 196.137227 277.191435 
L 197.970614 279.641615 
L 200.065913 282.814087 
L 202.685037 287.217218 
L 206.35181 293.878109 
L 212.244839 304.580971 
L 214.863963 308.858829 
L 217.090218 312.075081 
L 218.923605 314.364044 
L 220.626035 316.156538 
L 222.19751 317.499875 
L 223.638028 318.451932 
L 224.94759 319.075711 
L 226.257151 319.463007 
L 227.566713 319.610185 
L 228.876275 319.516011 
L 230.185837 319.181665 
L 231.495399 318.610729 
L 232.935917 317.716597 
L 234.376435 316.554544 
L 235.94791 314.998225 
L 237.65034 312.998214 
L 239.614683 310.328666 
L 241.840938 306.908337 
L 244.591018 302.247827 
L 249.174485 293.948475 
L 253.365083 286.52276 
L 255.984207 282.310496 
L 258.210462 279.143345 
L 260.174805 276.741713 
L 261.877235 275.00193 
L 263.44871 273.704196 
L 264.889228 272.79079 
L 266.19879 272.199128 
L 267.508352 271.840744 
L 268.817914 271.718987 
L 270.127475 271.83484 
L 271.437037 272.186909 
L 272.746599 272.771441 
L 274.187117 273.675604 
L 275.627636 274.842418 
L 277.19911 276.397863 
L 278.90154 278.389808 
L 280.865883 281.041043 
L 283.092138 284.429485 
L 285.842218 289.035664 
L 290.687598 297.684002 
L 294.616283 304.507898 
L 297.235407 308.633092 
L 299.461662 311.726662 
L 301.295049 313.922144 
L 302.997479 315.635659 
L 304.568954 316.913958 
L 306.009472 317.813849 
L 307.44999 318.442686 
L 308.759552 318.772929 
L 310.069114 318.870007 
L 311.378676 318.733182 
L 312.688238 318.364052 
L 313.9978 317.766539 
L 315.438318 316.852956 
L 317.009792 315.563167 
L 318.581266 313.985964 
L 320.414653 311.813574 
L 322.378996 309.135857 
L 324.736207 305.528775 
L 327.7482 300.473509 
L 337.177045 284.304794 
L 339.534257 280.866737 
L 341.4986 278.362804 
L 343.331986 276.375016 
L 345.034417 274.865762 
L 346.605891 273.782688 
L 348.046409 273.064914 
L 349.355971 272.648099 
L 350.665533 272.4599 
L 351.975095 272.501971 
L 353.284657 272.773663 
L 354.594219 273.272032 
L 356.034737 274.075771 
L 357.475255 275.137432 
L 359.046729 276.574272 
L 360.74916 278.435079 
L 362.713503 280.934402 
L 364.939758 284.154028 
L 367.689838 288.563534 
L 371.880436 295.779931 
L 376.594859 303.797697 
L 379.344939 308.030777 
L 381.571194 311.055073 
L 383.535537 313.34891 
L 385.237968 315.011071 
L 386.809442 316.251367 
L 388.24996 317.124826 
L 389.690478 317.73559 
L 391.00004 318.056836 
L 392.309602 318.152085 
L 393.619164 318.020607 
L 394.928726 317.663943 
L 396.238288 317.08588 
L 397.678806 316.201519 
L 399.25028 314.952541 
L 400.952711 313.285672 
L 402.786097 311.157762 
L 404.881396 308.356465 
L 407.238608 304.820996 
L 410.381556 299.668576 
L 419.024665 285.251063 
L 421.512833 281.673418 
L 423.608132 279.046529 
L 425.441518 277.093776 
L 427.143949 275.604424 
L 428.715423 274.528636 
L 430.155941 273.808105 
L 431.465503 273.380984 
L 432.775065 273.175164 
L 434.084627 273.192482 
L 435.394189 273.432544 
L 436.703751 273.892729 
L 438.144269 274.647359 
L 439.584787 275.653054 
L 441.156261 277.021825 
L 442.858692 278.801748 
L 444.823035 281.200276 
L 447.04929 284.298757 
L 449.668414 288.34267 
L 453.597099 294.873093 
L 458.835347 303.531911 
L 461.585427 307.636155 
L 463.811682 310.568812 
L 465.776025 312.793485 
L 467.478456 314.405831 
L 469.04993 315.609252 
L 470.490448 316.457052 
L 471.930966 317.050261 
L 473.240528 317.362752 
L 474.55009 317.456191 
L 475.859652 317.329862 
L 477.169214 316.985246 
L 478.609732 316.358479 
L 480.05025 315.479922 
L 481.621724 314.247214 
L 483.324155 312.60939 
L 485.157542 310.525464 
L 487.252841 307.789451 
L 489.741008 304.143831 
L 493.014913 298.905003 
L 500.872284 286.159181 
L 503.360452 282.624139 
L 505.455751 280.006551 
L 507.289138 278.041796 
L 508.991568 276.524689 
L 510.563043 275.40951 
L 512.003561 274.641761 
L 513.444079 274.126806 
L 514.753641 273.883099 
L 516.063203 273.855491 
L 517.372765 274.044044 
L 518.682326 274.446659 
L 520.122845 275.131658 
L 521.563363 276.061941 
L 523.134837 277.342933 
L 524.837267 279.022708 
L 526.80161 281.301318 
L 529.027866 284.261513 
L 531.646989 288.144706 
L 535.313763 294.022259 
L 541.206791 303.473516 
L 543.825915 307.25393 
L 546.05217 310.097723 
L 548.016513 312.255316 
L 549.718944 313.819338 
L 551.290418 314.98698 
L 552.861892 315.872569 
L 554.30241 316.425916 
L 555.611972 316.708747 
L 556.921534 316.779092 
L 558.231096 316.636461 
L 559.540658 316.282488 
L 560.981176 315.653556 
L 562.421694 314.781359 
L 563.993169 313.565209 
L 565.695599 311.956362 
L 567.528986 309.915909 
L 569.624285 307.244053 
L 572.112452 303.692426 
L 575.386357 298.601126 
L 582.981816 286.645628 
L 585.60094 283.027312 
L 587.696239 280.488944 
L 589.529626 278.583353 
L 591.232056 277.111643 
L 592.803531 276.029537 
L 594.244049 275.284243 
L 595.684567 274.783949 
L 596.994129 274.546664 
L 598.303691 274.518839 
L 599.613253 274.700545 
L 601.053771 275.139952 
L 602.494289 275.824811 
L 604.065763 276.841745 
L 605.637237 278.125592 
L 607.339668 279.795754 
L 609.304011 282.047095 
L 611.530266 284.956234 
L 614.280346 288.952022 
L 618.339988 295.304977 
L 623.447279 303.218347 
L 626.197359 307.055994 
L 628.423615 309.791399 
L 630.387958 311.860746 
L 632.090388 313.355498 
L 633.661862 314.466202 
L 635.233337 315.302414 
L 636.673855 315.81774 
L 638.114373 316.086567 
L 639.423935 316.114486 
L 640.733497 315.936112 
L 642.174015 315.504066 
L 643.614533 314.830348 
L 645.186007 313.829717 
L 646.757481 312.566264 
L 648.459912 310.922469 
L 650.424255 308.706492 
L 652.65051 305.842853 
L 655.40059 301.90931 
L 659.460232 295.654865 
L 664.567524 287.863502 
L 667.317604 284.084696 
L 669.543859 281.391043 
L 671.508202 279.353122 
L 673.210632 277.88093 
L 674.782106 276.78685 
L 676.353581 275.962987 
L 677.794099 275.455078 
L 679.234617 275.189845 
L 680.544179 275.161842 
L 681.853741 275.336944 
L 683.294259 275.761751 
L 684.734777 276.424508 
L 686.306251 277.409099 
L 688.008682 278.767231 
L 689.842068 280.542577 
L 691.806411 282.765338 
L 694.032667 285.622687 
L 696.782747 289.528305 
L 701.235257 296.308709 
L 705.818724 303.157508 
L 708.437848 306.692175 
L 710.664103 309.344713 
L 712.628446 311.351685 
L 714.461832 312.901281 
L 716.033307 313.957347 
L 717.604781 314.746308 
L 719.045299 315.225383 
L 720.485817 315.465162 
L 721.926335 315.463007 
L 723.366853 315.219207 
L 724.807371 314.736975 
L 726.24789 314.022401 
L 727.819364 312.988406 
L 729.521794 311.585926 
L 731.355181 309.774308 
L 733.45048 307.366718 
L 735.807692 304.303115 
L 738.819684 299.995993 
L 748.641398 285.616839 
L 750.99861 282.710797 
L 753.093909 280.475739 
L 754.927295 278.835693 
L 756.629726 277.605917 
L 758.2012 276.739543 
L 759.641718 276.182877 
L 761.082236 275.86014 
L 762.522755 275.774978 
L 763.963273 275.928162 
L 765.403791 276.31758 
L 766.844309 276.938264 
L 768.415783 277.869946 
L 770.118214 279.163376 
L 771.9516 280.86169 
L 773.915943 282.995149 
L 776.142198 285.745322 
L 778.892278 289.51426 
L 783.213833 295.882406 
L 787.928256 302.732142 
L 790.678336 306.339781 
L 792.904591 308.911961 
L 794.868934 310.858436 
L 796.70232 312.361622 
L 798.404751 313.460219 
L 799.976225 314.203974 
L 801.416743 314.648498 
L 802.857261 314.86074 
L 804.29778 314.838386 
L 805.738298 314.581962 
L 807.178816 314.094825 
L 808.619334 313.383117 
L 810.190808 312.361056 
L 811.893239 310.981665 
L 813.726625 309.206271 
L 815.821924 306.853578 
L 818.310092 303.692574 
L 821.453041 299.301177 
L 830.489018 286.430784 
L 832.977185 283.404787 
L 835.072484 281.194054 
L 836.905871 279.560215 
L 838.608302 278.323496 
L 840.179776 277.439964 
L 841.75125 276.817002 
L 843.191768 276.482316 
L 844.632286 276.377695 
L 846.072805 276.504154 
L 847.513323 276.85991 
L 848.953841 277.440413 
L 850.525315 278.321403 
L 852.227746 279.552682 
L 854.061132 281.176838 
L 856.025475 283.224151 
L 858.25173 285.87074 
L 861.00181 289.507303 
L 865.192408 295.481248 
L 870.168744 302.500596 
L 872.918824 305.998452 
L 875.145079 308.492708 
L 877.109422 310.380508 
L 878.942809 311.838673 
L 880.645239 312.90467 
L 882.216713 313.626683 
L 883.657231 314.058591 
L 885.09775 314.265363 
L 886.538268 314.244744 
L 887.978786 313.997232 
L 889.419304 313.526068 
L 890.990778 312.764048 
L 892.562252 311.754254 
L 894.264683 310.397978 
L 896.09807 308.658448 
L 898.193369 306.359758 
L 900.681536 303.279023 
L 903.824485 299.009653 
L 912.59855 286.881137 
L 915.086717 283.927364 
L 917.182016 281.762844 
L 919.146359 280.054051 
L 920.84879 278.854229 
L 922.420264 277.996773 
L 923.991738 277.391846 
L 925.432256 277.066411 
L 926.872775 276.963969 
L 928.313293 277.085515 
L 929.753811 277.429335 
L 931.194329 277.991028 
L 932.765803 278.843939 
L 934.468234 280.036369 
L 936.30162 281.609635 
L 938.265963 283.593132 
L 940.492218 286.157577 
L 943.242298 289.681723 
L 947.432897 295.471847 
L 952.409232 302.276428 
L 955.159312 305.667841 
L 957.385567 308.086532 
L 959.34991 309.917427 
L 961.183297 311.331917 
L 962.885727 312.366279 
L 964.457201 313.067184 
L 966.028676 313.514213 
L 967.469194 313.695665 
L 968.909712 313.656643 
L 970.35023 313.397859 
L 971.790748 312.922682 
L 973.362222 312.164609 
L 975.064653 311.07392 
L 976.89804 309.607138 
L 978.862382 307.731879 
L 981.088638 305.279803 
L 983.707762 302.044385 
L 987.374535 297.116961 
L 993.791388 288.456847 
L 996.541468 285.154027 
L 998.767724 282.81147 
L 1000.732066 281.049139 
L 1002.565453 279.698393 
L 1004.267884 278.72189 
L 1005.839358 278.072388 
L 1007.410832 277.674079 
L 1008.85135 277.534334 
L 1010.291868 277.61172 
L 1011.732386 277.905066 
L 1013.303861 278.466865 
L 1014.875335 279.272741 
L 1016.577766 280.40734 
L 1018.411152 281.911438 
L 1020.375495 283.814418 
L 1022.60175 286.281848 
L 1025.35183 289.681745 
L 1029.411472 295.106717 
L 1034.780676 302.223912 
L 1037.530756 305.494278 
L 1039.757011 307.82051 
L 1041.721354 309.57624 
L 1043.554741 310.927561 
L 1045.257171 311.910407 
L 1046.828646 312.570631 
L 1048.40012 312.98417 
L 1049.840638 313.141648 
L 1051.281156 313.085376 
L 1052.721674 312.816269 
L 1054.293149 312.284125 
L 1055.864623 311.510838 
L 1057.567053 310.414303 
L 1059.40044 308.953686 
L 1061.364783 307.099206 
L 1063.591038 304.68778 
L 1066.341118 301.356272 
L 1070.269804 296.200021 
L 1075.90092 288.841849 
L 1078.651 285.621619 
L 1080.877255 283.330886 
L 1082.841598 281.601812 
L 1084.674985 280.270872 
L 1086.377415 279.302707 
L 1087.94889 278.65219 
L 1089.520364 278.244527 
L 1090.960882 278.089001 
L 1092.4014 278.143917 
L 1093.841918 278.408381 
L 1095.413393 278.931784 
L 1096.984867 279.692619 
L 1098.687297 280.771691 
L 1100.520684 282.209222 
L 1102.485027 284.034552 
L 1104.711282 286.408241 
L 1107.461362 289.68783 
L 1111.390048 294.76409 
L 1117.021164 302.00879 
L 1119.771244 305.179653 
L 1121.997499 307.435428 
L 1123.961842 309.138251 
L 1125.795229 310.449117 
L 1127.49766 311.40282 
L 1129.069134 312.043772 
L 1130.640608 312.445642 
L 1132.212082 312.602933 
L 1133.652601 312.530515 
L 1135.224075 312.216552 
L 1136.795549 311.662159 
L 1138.367023 310.875597 
L 1140.069454 309.775016 
L 1141.902841 308.322113 
L 1143.99814 306.358235 
L 1146.355351 303.82317 
L 1149.236387 300.373764 
L 1154.081766 294.148355 
L 1158.403321 288.74143 
L 1161.153401 285.654114 
L 1163.379656 283.470001 
L 1165.343999 281.831621 
L 1167.177385 280.580589 
L 1168.879816 279.681128 
L 1170.45129 279.088308 
L 1172.022765 278.731997 
L 1173.594239 278.617041 
L 1175.034757 278.724918 
L 1176.606231 279.073394 
L 1178.177706 279.657473 
L 1179.880136 280.545948 
L 1181.582567 281.685343 
L 1183.546909 283.286077 
L 1185.642208 285.291742 
L 1188.130376 288.002721 
L 1191.273325 291.791057 
L 1200.964083 303.746191 
L 1203.45225 306.325838 
L 1205.54755 308.194984 
L 1207.511892 309.650346 
L 1209.214323 310.65341 
L 1210.916753 311.399028 
L 1212.488228 311.848117 
L 1214.059702 312.061168 
L 1215.631176 312.035396 
L 1217.202651 311.771457 
L 1218.774125 311.273432 
L 1220.345599 310.548764 
L 1222.04803 309.520428 
L 1223.881416 308.149992 
L 1225.976715 306.284248 
L 1228.333927 303.861531 
L 1231.214963 300.547121 
L 1235.667473 295.019789 
L 1240.381896 289.25845 
L 1243.131976 286.231194 
L 1245.489188 283.960209 
L 1247.584487 282.255412 
L 1249.417874 281.04179 
L 1251.120304 280.168952 
L 1252.691778 279.593375 
L 1254.263253 279.24702 
L 1255.834727 279.134599 
L 1257.406201 279.25745 
L 1258.977676 279.613526 
L 1260.54915 280.197425 
L 1262.25158 281.076942 
L 1264.084967 282.294191 
L 1266.04931 283.882114 
L 1268.275565 285.991591 
L 1270.763733 288.665581 
L 1274.037638 292.533151 
L 1282.680746 302.918086 
L 1285.29987 305.615029 
L 1287.526125 307.589298 
L 1289.490468 309.040175 
L 1291.323855 310.118105 
L 1293.026285 310.861504 
L 1294.59776 311.316603 
L 1296.169234 311.543303 
L 1297.740708 311.538614 
L 1299.312182 311.302881 
L 1300.883657 310.839769 
L 1302.586087 310.089592 
L 1304.288518 309.093749 
L 1306.121904 307.766295 
L 1308.217203 305.958739 
L 1310.574415 303.61123 
L 1313.455451 300.399274 
L 1317.907962 295.04197 
L 1322.753341 289.309863 
L 1325.503421 286.390953 
L 1327.860632 284.207242 
L 1329.955931 282.573272 
L 1331.789318 281.414928 
L 1333.491748 280.586831 
L 1335.194179 280.011178 
L 1336.765653 279.712064 
L 1338.337127 279.640137 
L 1339.908602 279.79616 
L 1341.480076 280.177618 
L 1343.05155 280.778755 
L 1344.753981 281.667479 
L 1346.587367 282.883483 
L 1348.55171 284.45728 
L 1350.777966 286.535186 
L 1353.397089 289.300416 
L 1356.932907 293.393357 
L 1364.266453 301.978803 
L 1367.016533 304.803325 
L 1369.242789 306.79068 
L 1371.207131 308.272235 
L 1371.6 308.53474 
L 1371.6 308.53474 
" style="fill:none;stroke:#ff7f0e;stroke-linecap:square;stroke-width:1.5;"/>
   </g>
   <g id="line2d_12">
    <path clip-path="url(#p1b76c4329f)" d="M 62.3 295.478665 
L 1371.6 295.478665 
L 1371.6 295.478665 
" style="fill:none;stroke:#2ca02c;stroke-linecap:square;stroke-width:1.5;"/>
   </g>
   <g id="line2d_13">
    <path clip-path="url(#p1b76c4329f)" d="M 62.3 319.888092 
L 62.823825 394.397651 
L 63.34765 442.154705 
L 63.871474 472.774347 
L 64.395299 492.421209 
L 64.919124 505.047668 
L 65.442949 513.187704 
L 65.966773 518.465881 
L 66.490598 521.923675 
L 67.145379 524.678863 
L 67.80016 526.417085 
L 68.585897 527.792531 
L 69.633547 529.084595 
L 73.955101 533.904292 
L 75.788488 536.445091 
L 77.883787 539.733574 
L 80.371954 544.067191 
L 83.907772 550.731998 
L 90.193669 562.648788 
L 92.812793 567.10667 
L 95.039048 570.457336 
L 96.872434 572.841231 
L 98.574865 574.707386 
L 100.146339 576.105234 
L 101.586857 577.095206 
L 102.896419 577.743058 
L 104.205981 578.144286 
L 105.515543 578.295122 
L 106.694149 578.215698 
L 108.003711 577.889403 
L 109.313273 577.315986 
L 110.622835 576.501426 
L 112.063353 575.33696 
L 113.634827 573.76247 
L 115.337257 571.724805 
L 117.170644 569.183493 
L 119.265943 565.902036 
L 121.885067 561.359522 
L 125.682797 554.257994 
L 131.182957 544.00267 
L 133.80208 539.589711 
L 136.028336 536.263764 
L 137.992679 533.734901 
L 139.695109 531.896936 
L 141.266583 530.520037 
L 142.707101 529.544729 
L 144.016663 528.906288 
L 145.326225 528.510646 
L 146.635787 528.361515 
L 147.814393 528.439145 
L 149.123955 528.759771 
L 150.433517 529.323707 
L 151.743079 530.125076 
L 153.183597 531.270906 
L 154.755071 532.820403 
L 156.457502 534.825918 
L 158.290888 537.327321 
L 160.517143 540.770744 
L 163.136267 545.262579 
L 167.064953 552.512235 
L 172.303201 562.117703 
L 174.922324 566.462983 
L 177.14858 569.738142 
L 179.112923 572.228576 
L 180.815353 574.038778 
L 182.386827 575.395041 
L 183.827345 576.355902 
L 185.136907 576.985067 
L 186.446469 577.375202 
L 187.756031 577.522644 
L 189.065593 577.426161 
L 190.375155 577.086959 
L 191.684717 576.50867 
L 192.994279 575.697311 
L 194.434797 574.545642 
L 196.006271 572.996001 
L 197.708702 570.997649 
L 199.673045 568.322793 
L 201.8993 564.887265 
L 204.64938 560.195193 
L 208.970934 552.299321 
L 213.423445 544.294338 
L 216.042569 540.015698 
L 218.268824 536.790552 
L 220.233167 534.337963 
L 221.935597 532.555105 
L 223.507071 531.219168 
L 224.94759 530.272542 
L 226.257151 529.652518 
L 227.566713 529.267816 
L 228.876275 529.122045 
L 230.185837 529.216428 
L 231.495399 529.54978 
L 232.804961 530.118534 
L 234.245479 531.00892 
L 235.685997 532.165862 
L 237.257471 533.715125 
L 238.959902 535.705866 
L 240.924245 538.36282 
L 243.1505 541.766767 
L 245.90058 546.404637 
L 250.484047 554.662973 
L 254.674645 562.051283 
L 257.293769 566.241976 
L 259.520024 569.39267 
L 261.484367 571.781619 
L 263.186797 573.512034 
L 264.758272 574.802602 
L 266.19879 575.710779 
L 267.508352 576.298853 
L 268.817914 576.654796 
L 270.127475 576.775283 
L 271.437037 576.65934 
L 272.746599 576.308363 
L 274.056161 575.726093 
L 275.496679 574.825739 
L 276.937197 573.664072 
L 278.508672 572.115694 
L 280.211102 570.132995 
L 282.175445 567.494282 
L 284.4017 564.122082 
L 287.15178 559.538294 
L 291.997159 550.932744 
L 295.925845 544.143262 
L 298.544969 540.039208 
L 300.771224 536.961726 
L 302.604611 534.777845 
L 304.307041 533.073557 
L 305.878516 531.802316 
L 307.319034 530.907576 
L 308.759552 530.282566 
L 310.069114 529.954615 
L 311.378676 529.858674 
L 312.688238 529.995474 
L 313.9978 530.363415 
L 315.307361 530.958591 
L 316.74788 531.868305 
L 318.319354 533.152377 
L 320.021784 534.865438 
L 321.855171 537.051708 
L 323.95047 539.929183 
L 326.307682 543.560079 
L 329.45063 548.850524 
L 337.962783 563.443766 
L 340.45095 567.138217 
L 342.546249 569.857899 
L 344.379636 571.885681 
L 346.082066 573.438205 
L 347.653541 574.565809 
L 349.094059 575.327707 
L 350.403621 575.786914 
L 351.713183 576.019236 
L 353.022745 576.022575 
L 354.332306 575.797126 
L 355.641868 575.345369 
L 357.082386 574.592774 
L 358.522905 573.581522 
L 360.094379 572.19812 
L 361.796809 570.392512 
L 363.630196 568.125803 
L 365.725495 565.182724 
L 368.344619 561.087206 
L 372.011392 554.873717 
L 378.035377 544.63952 
L 380.654501 540.638659 
L 382.880756 537.630075 
L 384.845099 535.348352 
L 386.54753 533.695139 
L 388.119004 532.461691 
L 389.559522 531.593231 
L 391.00004 530.986183 
L 392.309602 530.667163 
L 393.619164 530.573023 
L 394.928726 530.704482 
L 396.238288 531.06 
L 397.54785 531.635802 
L 398.988368 532.516419 
L 400.559842 533.759863 
L 402.262272 535.419123 
L 404.095659 537.537108 
L 406.190958 540.325115 
L 408.54817 543.843564 
L 411.691118 548.970818 
L 420.203271 563.117178 
L 422.691438 566.699383 
L 424.786737 569.336806 
L 426.620124 571.303578 
L 428.322555 572.809704 
L 429.894029 573.903934 
L 431.334547 574.643631 
L 432.775065 575.122426 
L 434.084627 575.3266 
L 435.394189 575.308742 
L 436.703751 575.069252 
L 438.013313 574.610743 
L 439.453831 573.85921 
L 440.894349 572.857889 
L 442.465823 571.495281 
L 444.168254 569.723569 
L 446.132597 567.336317 
L 448.358852 564.252637 
L 450.977976 560.228321 
L 454.906661 553.730046 
L 460.144909 545.114715 
L 462.894989 541.03148 
L 465.121244 538.114059 
L 467.085587 535.901134 
L 468.788018 534.297468 
L 470.359492 533.10069 
L 471.80001 532.257741 
L 473.240528 531.66814 
L 474.55009 531.357812 
L 475.859652 531.265453 
L 477.169214 531.391769 
L 478.478776 531.735281 
L 479.919294 532.359585 
L 481.359812 533.234404 
L 482.931286 534.461634 
L 484.633717 536.091968 
L 486.467103 538.166163 
L 488.562402 540.889184 
L 491.05057 544.517233 
L 494.324475 549.730434 
L 502.181846 562.412355 
L 504.670014 565.929223 
L 506.765313 568.533156 
L 508.5987 570.487493 
L 510.30113 571.99639 
L 511.872605 573.105365 
L 513.313123 573.868664 
L 514.753641 574.380407 
L 516.063203 574.6223 
L 517.372765 574.649164 
L 518.682326 574.460944 
L 519.991888 574.059735 
L 521.432406 573.377504 
L 522.872925 572.451233 
L 524.444399 571.17598 
L 526.146829 569.503927 
L 528.111172 567.236004 
L 530.337427 564.289924 
L 532.956551 560.425521 
L 536.623325 554.576852 
L 542.516353 545.173018 
L 545.135477 541.411962 
L 547.361732 538.582943 
L 549.326075 536.436742 
L 551.028506 534.881139 
L 552.59998 533.719942 
L 554.171454 532.839429 
L 555.611972 532.289473 
L 556.921534 532.008641 
L 558.231096 531.939242 
L 559.540658 532.08176 
L 560.85022 532.434561 
L 562.290738 533.060999 
L 563.731256 533.929468 
L 565.302731 535.140199 
L 567.005161 536.741676 
L 568.838548 538.772589 
L 570.933847 541.431746 
L 573.422014 544.966244 
L 576.695919 550.032623 
L 584.291378 561.928184 
L 586.910502 565.527905 
L 589.005801 568.053033 
L 590.970144 570.071613 
L 592.672575 571.512281 
L 594.244049 572.565582 
L 595.684567 573.284709 
L 597.125085 573.75939 
L 598.434647 573.974131 
L 599.744209 573.980349 
L 601.053771 573.778189 
L 602.494289 573.317856 
L 603.934807 572.613963 
L 605.506281 571.57869 
L 607.077756 570.279285 
L 608.911142 568.455038 
L 610.875485 566.17162 
L 613.10174 563.236903 
L 615.85182 559.226311 
L 620.304331 552.2653 
L 624.756841 545.427088 
L 627.506921 541.609099 
L 629.733177 538.887916 
L 631.69752 536.829507 
L 633.39995 535.342815 
L 634.971424 534.238256 
L 636.542899 533.406856 
L 637.983417 532.894714 
L 639.423935 532.627855 
L 640.733497 532.600655 
L 642.043059 532.778718 
L 643.483577 533.209241 
L 644.924095 533.880216 
L 646.495569 534.876506 
L 648.067043 536.134272 
L 649.90043 537.90739 
L 651.864773 540.134069 
L 654.091028 543.003613 
L 656.841108 546.93512 
L 661.162663 553.575913 
L 665.877085 560.716316 
L 668.627165 564.475766 
L 670.853421 567.155414 
L 672.817764 569.182563 
L 674.520194 570.646818 
L 676.091668 571.734846 
L 677.663143 572.553968 
L 679.103661 573.05874 
L 680.544179 573.322032 
L 681.984697 573.340923 
L 683.425215 573.115452 
L 684.865733 572.648611 
L 686.306251 571.94631 
L 687.877726 570.921975 
L 689.580156 569.525422 
L 691.413543 567.714809 
L 693.377886 565.46204 
L 695.735097 562.402565 
L 698.616133 558.274717 
L 709.354541 542.473157 
L 711.580796 539.770944 
L 713.545139 537.708103 
L 715.378526 536.097341 
L 717.080956 534.90163 
L 718.65243 534.07206 
L 720.092949 533.553183 
L 721.533467 533.271637 
L 722.973985 533.230565 
L 724.414503 533.430203 
L 725.855021 533.867874 
L 727.295539 534.538025 
L 728.867013 535.52435 
L 730.569444 536.876888 
L 732.402831 538.637641 
L 734.367173 540.835244 
L 736.724385 543.827852 
L 739.605421 547.875973 
L 745.105581 556.108849 
L 748.772354 561.378429 
L 751.391478 564.76261 
L 753.617734 567.274192 
L 755.582076 569.150278 
L 757.284507 570.484259 
L 758.855981 571.454569 
L 760.427455 572.160145 
L 761.867974 572.565892 
L 763.308492 572.736225 
L 764.74901 572.669343 
L 766.189528 572.366313 
L 767.630046 571.831057 
L 769.20152 570.990264 
L 770.772995 569.893574 
L 772.475425 568.435457 
L 774.439768 566.436204 
L 776.535067 563.978859 
L 779.023235 560.711569 
L 782.428096 555.833787 
L 789.892599 545.020949 
L 792.511722 541.688607 
L 794.737978 539.215317 
L 796.70232 537.367679 
L 798.404751 536.053785 
L 799.976225 535.097946 
L 801.5477 534.402721 
L 802.988218 534.00272 
L 804.428736 533.834484 
L 805.869254 533.899793 
L 807.309772 534.197603 
L 808.75029 534.72406 
L 810.321764 535.551301 
L 811.893239 536.630511 
L 813.595669 538.065557 
L 815.560012 540.033354 
L 817.655311 542.452212 
L 820.143479 545.668534 
L 823.54834 550.470545 
L 831.012843 561.116559 
L 833.631966 564.397856 
L 835.858222 566.833436 
L 837.822565 568.653058 
L 839.524995 569.947166 
L 841.096469 570.88875 
L 842.667944 571.573776 
L 844.108462 571.968111 
L 845.54898 572.134275 
L 846.989498 572.070506 
L 848.430016 571.777826 
L 849.870534 571.260025 
L 851.442008 570.446117 
L 853.013483 569.384109 
L 854.715913 567.97177 
L 856.680256 566.034934 
L 858.906511 563.495676 
L 861.525635 560.137396 
L 865.061452 555.198113 
L 871.871174 545.62159 
L 874.490298 542.352515 
L 876.716553 539.912164 
L 878.680896 538.076874 
L 880.514283 536.670815 
L 882.216713 535.654961 
L 883.788188 534.979987 
L 885.228706 534.591236 
L 886.669224 534.427122 
L 888.109742 534.489383 
L 889.55026 534.77702 
L 890.990778 535.286307 
L 892.562252 536.087095 
L 894.133727 537.132176 
L 895.836157 538.522167 
L 897.8005 540.428529 
L 900.026755 542.928022 
L 902.645879 546.23393 
L 906.181696 551.096519 
L 912.991418 560.525302 
L 915.610542 563.74428 
L 917.836797 566.147401 
L 919.80114 567.95484 
L 921.634527 569.339706 
L 923.336957 570.340401 
L 924.908432 571.005472 
L 926.34895 571.388715 
L 927.789468 571.550804 
L 929.229986 571.49002 
L 930.670504 571.207341 
L 932.111022 570.706428 
L 933.682496 569.918547 
L 935.384927 568.794015 
L 937.218314 567.289624 
L 939.182657 565.37355 
L 941.408912 562.875703 
L 944.028036 559.588815 
L 947.694809 554.597336 
L 953.980706 546.028029 
L 956.730786 542.691004 
L 958.957041 540.324543 
L 960.921384 538.544535 
L 962.754771 537.180541 
L 964.457201 536.194779 
L 966.028676 535.539466 
L 967.469194 535.161653 
L 968.909712 535.001567 
L 970.35023 535.060905 
L 971.790748 535.338711 
L 973.231266 535.831387 
L 974.802741 536.606567 
L 976.505171 537.713181 
L 978.338558 539.193784 
L 980.302901 541.07973 
L 982.529156 543.538479 
L 985.14828 546.77413 
L 988.946009 551.867804 
L 994.969994 559.959738 
L 997.720074 563.263998 
L 999.946329 565.613988 
L 1001.910672 567.387353 
L 1003.744059 568.751952 
L 1005.446489 569.744149 
L 1007.017964 570.410318 
L 1008.589438 570.827139 
L 1010.029956 570.985246 
L 1011.470474 570.927324 
L 1012.910992 570.654307 
L 1014.482466 570.115381 
L 1016.053941 569.332786 
L 1017.756371 568.223475 
L 1019.589758 566.746214 
L 1021.554101 564.87095 
L 1023.780356 562.432867 
L 1026.530436 559.064996 
L 1030.459122 553.853258 
L 1036.090238 546.417374 
L 1038.840318 543.163768 
L 1041.066573 540.849639 
L 1043.030916 539.103198 
L 1044.864303 537.759178 
L 1046.566733 536.781802 
L 1048.138208 536.125427 
L 1049.709682 535.714527 
L 1051.1502 535.558376 
L 1052.590718 535.614912 
L 1054.031236 535.88322 
L 1055.602711 536.413294 
L 1057.174185 537.183288 
L 1058.876615 538.274934 
L 1060.710002 539.728846 
L 1062.674345 541.574633 
L 1064.9006 543.974563 
L 1067.65068 547.289949 
L 1071.579366 552.420836 
L 1077.210482 559.742051 
L 1079.960562 562.945778 
L 1082.186817 565.224593 
L 1084.15116 566.94452 
L 1085.984547 568.268269 
L 1087.686977 569.231046 
L 1089.258452 569.877771 
L 1090.829926 570.282833 
L 1092.270444 570.437051 
L 1093.710962 570.381872 
L 1095.15148 570.118191 
L 1096.722955 569.596825 
L 1098.294429 568.839229 
L 1099.996859 567.764967 
L 1101.830246 566.334035 
L 1103.794589 564.517262 
L 1106.020844 562.154888 
L 1108.770924 558.891171 
L 1112.69961 553.839881 
L 1118.330726 546.631567 
L 1121.080806 543.476953 
L 1123.307061 541.232914 
L 1125.271404 539.5391 
L 1127.104791 538.235316 
L 1128.807221 537.28692 
L 1130.378696 536.649704 
L 1131.95017 536.250397 
L 1133.521644 536.094462 
L 1134.962162 536.167048 
L 1136.533637 536.480019 
L 1138.105111 537.03221 
L 1139.676585 537.815392 
L 1141.379016 538.911041 
L 1143.212402 540.357253 
L 1145.307702 542.311897 
L 1147.664913 544.834841 
L 1150.545949 548.267502 
L 1155.391328 554.462137 
L 1159.712883 559.841795 
L 1162.462963 562.913268 
L 1164.689218 565.085996 
L 1166.653561 566.715688 
L 1168.486947 567.959937 
L 1170.189378 568.854364 
L 1171.760852 569.443694 
L 1173.332326 569.797674 
L 1174.903801 569.911491 
L 1176.475275 569.783796 
L 1178.046749 569.416711 
L 1179.618224 568.815803 
L 1181.320654 567.911385 
L 1183.154041 566.660273 
L 1185.118384 565.028711 
L 1187.213683 562.997594 
L 1189.70185 560.267201 
L 1192.975755 556.308394 
L 1201.74982 545.485224 
L 1204.237988 542.847368 
L 1206.464243 540.802662 
L 1208.428586 539.294948 
L 1210.261972 538.169642 
L 1211.964403 537.38798 
L 1213.535877 536.90303 
L 1215.107351 536.652165 
L 1216.678826 536.638714 
L 1218.2503 536.862588 
L 1219.821774 537.320284 
L 1221.393249 538.004939 
L 1223.095679 538.990952 
L 1224.929066 540.317797 
L 1226.893409 542.014916 
L 1229.119664 544.23486 
L 1231.869744 547.318549 
L 1235.667473 551.955932 
L 1241.822414 559.478091 
L 1244.572494 562.473142 
L 1246.929706 564.713301 
L 1248.894049 566.29392 
L 1250.727435 567.500962 
L 1252.429866 568.368916 
L 1254.00134 568.941105 
L 1255.572815 569.285196 
L 1257.144289 569.396509 
L 1258.715763 569.27372 
L 1260.287237 568.918875 
L 1261.858712 568.337355 
L 1263.561142 567.46167 
L 1265.394529 566.249932 
L 1267.358872 564.669385 
L 1269.585127 562.569895 
L 1272.073295 559.908767 
L 1275.347199 556.060088 
L 1283.990308 545.727233 
L 1286.609432 543.044198 
L 1288.835687 541.080279 
L 1290.80003 539.637159 
L 1292.633417 538.565144 
L 1294.335847 537.82599 
L 1295.907321 537.373681 
L 1297.478796 537.148646 
L 1299.05027 537.153852 
L 1300.621744 537.38895 
L 1302.193219 537.850285 
L 1303.895649 538.597277 
L 1305.59808 539.588683 
L 1307.431466 540.910046 
L 1309.526765 542.709123 
L 1311.883977 545.045429 
L 1314.765013 548.241816 
L 1319.217524 553.572691 
L 1324.062903 559.275944 
L 1326.812983 562.179887 
L 1329.170194 564.352222 
L 1331.265493 565.977522 
L 1333.09888 567.129575 
L 1334.80131 567.953025 
L 1336.503741 568.525261 
L 1338.075215 568.822361 
L 1339.646689 568.893398 
L 1341.218164 568.737619 
L 1342.789638 568.357536 
L 1344.361112 567.758884 
L 1346.063543 566.874059 
L 1347.896929 565.663584 
L 1349.861272 564.097116 
L 1352.087528 562.029066 
L 1354.706651 559.277163 
L 1358.242468 555.204263 
L 1365.576015 546.661872 
L 1368.326095 543.851864 
L 1370.55235 541.874887 
L 1371.6 541.054909 
L 1371.6 541.054909 
" style="fill:none;stroke:#d62728;stroke-linecap:square;stroke-width:1.5;"/>
   </g>
   <g id="line2d_14">
    <path clip-path="url(#p1b76c4329f)" d="M 62.3 298.190748 
L 62.823825 306.463788 
L 63.34765 311.745293 
L 63.871474 315.094042 
L 64.395299 317.188928 
L 64.919124 318.465309 
L 65.442949 319.202422 
L 65.966773 319.579436 
L 66.490598 319.711379 
L 67.145379 319.64165 
L 67.931116 319.325286 
L 68.978766 318.6396 
L 70.288328 317.486236 
L 71.859802 315.769745 
L 73.562232 313.568356 
L 75.526575 310.650277 
L 77.752831 306.939067 
L 80.633867 301.671669 
L 90.979406 282.297932 
L 93.205661 278.823872 
L 95.170004 276.159234 
L 96.872434 274.202207 
L 98.443909 272.716091 
L 99.884427 271.642625 
L 101.193989 270.917605 
L 102.503551 270.438805 
L 103.813113 270.210764 
L 104.991718 270.221658 
L 106.170324 270.437074 
L 107.479886 270.913898 
L 108.789448 271.635784 
L 110.229966 272.703934 
L 111.670484 274.046305 
L 113.241958 275.80395 
L 115.075345 278.207613 
L 117.170644 281.361394 
L 119.527856 285.330104 
L 122.670804 291.096946 
L 130.921044 306.478304 
L 133.409212 310.515085 
L 135.504511 313.494203 
L 137.337898 315.721798 
L 139.040328 317.433555 
L 140.480846 318.591738 
L 141.921364 319.469179 
L 143.230926 320.014496 
L 144.540488 320.314025 
L 145.719094 320.371127 
L 146.8977 320.226599 
L 148.207261 319.831229 
L 149.516823 319.192837 
L 150.957341 318.217888 
L 152.39786 316.969045 
L 153.969334 315.312475 
L 155.671764 313.198939 
L 157.636107 310.394499 
L 159.862362 306.819911 
L 162.743399 301.733782 
L 173.35085 282.503663 
L 175.577105 279.160122 
L 177.541448 276.602531 
L 179.243879 274.730176 
L 180.815353 273.31424 
L 182.255871 272.297496 
L 183.565433 271.617132 
L 184.874995 271.175951 
L 186.184557 270.978125 
L 187.494119 271.025389 
L 188.803681 271.317029 
L 190.113243 271.849886 
L 191.422805 272.618394 
L 192.863323 273.726417 
L 194.434797 275.233208 
L 196.137227 277.191435 
L 197.970614 279.641615 
L 200.065913 282.814087 
L 202.685037 287.217218 
L 206.35181 293.878109 
L 212.244839 304.580971 
L 214.863963 308.858829 
L 217.090218 312.075081 
L 218.923605 314.364044 
L 220.626035 316.156538 
L 222.19751 317.499875 
L 223.638028 318.451932 
L 224.94759 319.075711 
L 226.257151 319.463007 
L 227.566713 319.610185 
L 228.876275 319.516011 
L 230.185837 319.181665 
L 231.495399 318.610729 
L 232.935917 317.716597 
L 234.376435 316.554544 
L 235.94791 314.998225 
L 237.65034 312.998214 
L 239.614683 310.328666 
L 241.840938 306.908337 
L 244.591018 302.247827 
L 249.174485 293.948475 
L 253.365083 286.52276 
L 255.984207 282.310496 
L 258.210462 279.143345 
L 260.174805 276.741713 
L 261.877235 275.00193 
L 263.44871 273.704196 
L 264.889228 272.79079 
L 266.19879 272.199128 
L 267.508352 271.840744 
L 268.817914 271.718987 
L 270.127475 271.83484 
L 271.437037 272.186909 
L 272.746599 272.771441 
L 274.187117 273.675604 
L 275.627636 274.842418 
L 277.19911 276.397863 
L 278.90154 278.389808 
L 280.865883 281.041043 
L 283.092138 284.429485 
L 285.842218 289.035664 
L 290.687598 297.684002 
L 294.616283 304.507898 
L 297.235407 308.633092 
L 299.461662 311.726662 
L 301.295049 313.922144 
L 302.997479 315.635659 
L 304.568954 316.913958 
L 306.009472 317.813849 
L 307.44999 318.442686 
L 308.759552 318.772929 
L 310.069114 318.870007 
L 311.378676 318.733182 
L 312.688238 318.364052 
L 313.9978 317.766539 
L 315.438318 316.852956 
L 317.009792 315.563167 
L 318.581266 313.985964 
L 320.414653 311.813574 
L 322.378996 309.135857 
L 324.736207 305.528775 
L 327.7482 300.473509 
L 337.177045 284.304794 
L 339.534257 280.866737 
L 341.4986 278.362804 
L 343.331986 276.375016 
L 345.034417 274.865762 
L 346.605891 273.782688 
L 348.046409 273.064914 
L 349.355971 272.648099 
L 350.665533 272.4599 
L 351.975095 272.501971 
L 353.284657 272.773663 
L 354.594219 273.272032 
L 356.034737 274.075771 
L 357.475255 275.137432 
L 359.046729 276.574272 
L 360.74916 278.435079 
L 362.713503 280.934402 
L 364.939758 284.154028 
L 367.689838 288.563534 
L 371.880436 295.779931 
L 376.594859 303.797697 
L 379.344939 308.030777 
L 381.571194 311.055073 
L 383.535537 313.34891 
L 385.237968 315.011071 
L 386.809442 316.251367 
L 388.24996 317.124826 
L 389.690478 317.73559 
L 391.00004 318.056836 
L 392.309602 318.152085 
L 393.619164 318.020607 
L 394.928726 317.663943 
L 396.238288 317.08588 
L 397.678806 316.201519 
L 399.25028 314.952541 
L 400.952711 313.285672 
L 402.786097 311.157762 
L 404.881396 308.356465 
L 407.238608 304.820996 
L 410.381556 299.668576 
L 419.024665 285.251063 
L 421.512833 281.673418 
L 423.608132 279.046529 
L 425.441518 277.093776 
L 427.143949 275.604424 
L 428.715423 274.528636 
L 430.155941 273.808105 
L 431.465503 273.380984 
L 432.775065 273.175164 
L 434.084627 273.192482 
L 435.394189 273.432544 
L 436.703751 273.892729 
L 438.144269 274.647359 
L 439.584787 275.653054 
L 441.156261 277.021825 
L 442.858692 278.801748 
L 444.823035 281.200276 
L 447.04929 284.298757 
L 449.668414 288.34267 
L 453.597099 294.873093 
L 458.835347 303.531911 
L 461.585427 307.636155 
L 463.811682 310.568812 
L 465.776025 312.793485 
L 467.478456 314.405831 
L 469.04993 315.609252 
L 470.490448 316.457052 
L 471.930966 317.050261 
L 473.240528 317.362752 
L 474.55009 317.456191 
L 475.859652 317.329862 
L 477.169214 316.985246 
L 478.609732 316.358479 
L 480.05025 315.479922 
L 481.621724 314.247214 
L 483.324155 312.60939 
L 485.157542 310.525464 
L 487.252841 307.789451 
L 489.741008 304.143831 
L 493.014913 298.905003 
L 500.872284 286.159181 
L 503.360452 282.624139 
L 505.455751 280.006551 
L 507.289138 278.041796 
L 508.991568 276.524689 
L 510.563043 275.40951 
L 512.003561 274.641761 
L 513.444079 274.126806 
L 514.753641 273.883099 
L 516.063203 273.855491 
L 517.372765 274.044044 
L 518.682326 274.446659 
L 520.122845 275.131658 
L 521.563363 276.061941 
L 523.134837 277.342933 
L 524.837267 279.022708 
L 526.80161 281.301318 
L 529.027866 284.261513 
L 531.646989 288.144706 
L 535.313763 294.022259 
L 541.206791 303.473516 
L 543.825915 307.25393 
L 546.05217 310.097723 
L 548.016513 312.255316 
L 549.718944 313.819338 
L 551.290418 314.98698 
L 552.861892 315.872569 
L 554.30241 316.425916 
L 555.611972 316.708747 
L 556.921534 316.779092 
L 558.231096 316.636461 
L 559.540658 316.282488 
L 560.981176 315.653556 
L 562.421694 314.781359 
L 563.993169 313.565209 
L 565.695599 311.956362 
L 567.528986 309.915909 
L 569.624285 307.244053 
L 572.112452 303.692426 
L 575.386357 298.601126 
L 582.981816 286.645628 
L 585.60094 283.027312 
L 587.696239 280.488944 
L 589.529626 278.583353 
L 591.232056 277.111643 
L 592.803531 276.029537 
L 594.244049 275.284243 
L 595.684567 274.783949 
L 596.994129 274.546664 
L 598.303691 274.518839 
L 599.613253 274.700545 
L 601.053771 275.139952 
L 602.494289 275.824811 
L 604.065763 276.841745 
L 605.637237 278.125592 
L 607.339668 279.795754 
L 609.304011 282.047095 
L 611.530266 284.956234 
L 614.280346 288.952022 
L 618.339988 295.304977 
L 623.447279 303.218347 
L 626.197359 307.055994 
L 628.423615 309.791399 
L 630.387958 311.860746 
L 632.090388 313.355498 
L 633.661862 314.466202 
L 635.233337 315.302414 
L 636.673855 315.81774 
L 638.114373 316.086567 
L 639.423935 316.114486 
L 640.733497 315.936112 
L 642.174015 315.504066 
L 643.614533 314.830348 
L 645.186007 313.829717 
L 646.757481 312.566264 
L 648.459912 310.922469 
L 650.424255 308.706492 
L 652.65051 305.842853 
L 655.40059 301.90931 
L 659.460232 295.654865 
L 664.567524 287.863502 
L 667.317604 284.084696 
L 669.543859 281.391043 
L 671.508202 279.353122 
L 673.210632 277.88093 
L 674.782106 276.78685 
L 676.353581 275.962987 
L 677.794099 275.455078 
L 679.234617 275.189845 
L 680.544179 275.161842 
L 681.853741 275.336944 
L 683.294259 275.761751 
L 684.734777 276.424508 
L 686.306251 277.409099 
L 688.008682 278.767231 
L 689.842068 280.542577 
L 691.806411 282.765338 
L 694.032667 285.622687 
L 696.782747 289.528305 
L 701.235257 296.308709 
L 705.818724 303.157508 
L 708.437848 306.692175 
L 710.664103 309.344713 
L 712.628446 311.351685 
L 714.461832 312.901281 
L 716.033307 313.957347 
L 717.604781 314.746308 
L 719.045299 315.225383 
L 720.485817 315.465162 
L 721.926335 315.463007 
L 723.366853 315.219207 
L 724.807371 314.736975 
L 726.24789 314.022401 
L 727.819364 312.988406 
L 729.521794 311.585926 
L 731.355181 309.774308 
L 733.45048 307.366718 
L 735.807692 304.303115 
L 738.819684 299.995993 
L 748.641398 285.616839 
L 750.99861 282.710797 
L 753.093909 280.475739 
L 754.927295 278.835693 
L 756.629726 277.605917 
L 758.2012 276.739543 
L 759.641718 276.182877 
L 761.082236 275.86014 
L 762.522755 275.774978 
L 763.963273 275.928162 
L 765.403791 276.31758 
L 766.844309 276.938264 
L 768.415783 277.869946 
L 770.118214 279.163376 
L 771.9516 280.86169 
L 773.915943 282.995149 
L 776.142198 285.745322 
L 778.892278 289.51426 
L 783.213833 295.882406 
L 787.928256 302.732142 
L 790.678336 306.339781 
L 792.904591 308.911961 
L 794.868934 310.858436 
L 796.70232 312.361622 
L 798.404751 313.460219 
L 799.976225 314.203974 
L 801.416743 314.648498 
L 802.857261 314.86074 
L 804.29778 314.838386 
L 805.738298 314.581962 
L 807.178816 314.094825 
L 808.619334 313.383117 
L 810.190808 312.361056 
L 811.893239 310.981665 
L 813.726625 309.206271 
L 815.821924 306.853578 
L 818.310092 303.692574 
L 821.453041 299.301177 
L 830.489018 286.430784 
L 832.977185 283.404787 
L 835.072484 281.194054 
L 836.905871 279.560215 
L 838.608302 278.323496 
L 840.179776 277.439964 
L 841.75125 276.817002 
L 843.191768 276.482316 
L 844.632286 276.377695 
L 846.072805 276.504154 
L 847.513323 276.85991 
L 848.953841 277.440413 
L 850.525315 278.321403 
L 852.227746 279.552682 
L 854.061132 281.176838 
L 856.025475 283.224151 
L 858.25173 285.87074 
L 861.00181 289.507303 
L 865.192408 295.481248 
L 870.168744 302.500596 
L 872.918824 305.998452 
L 875.145079 308.492708 
L 877.109422 310.380508 
L 878.942809 311.838673 
L 880.645239 312.90467 
L 882.216713 313.626683 
L 883.657231 314.058591 
L 885.09775 314.265363 
L 886.538268 314.244744 
L 887.978786 313.997232 
L 889.419304 313.526068 
L 890.990778 312.764048 
L 892.562252 311.754254 
L 894.264683 310.397978 
L 896.09807 308.658448 
L 898.193369 306.359758 
L 900.681536 303.279023 
L 903.824485 299.009653 
L 912.59855 286.881137 
L 915.086717 283.927364 
L 917.182016 281.762844 
L 919.146359 280.054051 
L 920.84879 278.854229 
L 922.420264 277.996773 
L 923.991738 277.391846 
L 925.432256 277.066411 
L 926.872775 276.963969 
L 928.313293 277.085515 
L 929.753811 277.429335 
L 931.194329 277.991028 
L 932.765803 278.843939 
L 934.468234 280.036369 
L 936.30162 281.609635 
L 938.265963 283.593132 
L 940.492218 286.157577 
L 943.242298 289.681723 
L 947.432897 295.471847 
L 952.409232 302.276428 
L 955.159312 305.667841 
L 957.385567 308.086532 
L 959.34991 309.917427 
L 961.183297 311.331917 
L 962.885727 312.366279 
L 964.457201 313.067184 
L 966.028676 313.514213 
L 967.469194 313.695665 
L 968.909712 313.656643 
L 970.35023 313.397859 
L 971.790748 312.922682 
L 973.362222 312.164609 
L 975.064653 311.07392 
L 976.89804 309.607138 
L 978.862382 307.731879 
L 981.088638 305.279803 
L 983.707762 302.044385 
L 987.374535 297.116961 
L 993.791388 288.456847 
L 996.541468 285.154027 
L 998.767724 282.81147 
L 1000.732066 281.049139 
L 1002.565453 279.698393 
L 1004.267884 278.72189 
L 1005.839358 278.072388 
L 1007.410832 277.674079 
L 1008.85135 277.534334 
L 1010.291868 277.61172 
L 1011.732386 277.905066 
L 1013.303861 278.466865 
L 1014.875335 279.272741 
L 1016.577766 280.40734 
L 1018.411152 281.911438 
L 1020.375495 283.814418 
L 1022.60175 286.281848 
L 1025.35183 289.681745 
L 1029.411472 295.106717 
L 1034.780676 302.223912 
L 1037.530756 305.494278 
L 1039.757011 307.82051 
L 1041.721354 309.57624 
L 1043.554741 310.927561 
L 1045.257171 311.910407 
L 1046.828646 312.570631 
L 1048.40012 312.98417 
L 1049.840638 313.141648 
L 1051.281156 313.085376 
L 1052.721674 312.816269 
L 1054.293149 312.284125 
L 1055.864623 311.510838 
L 1057.567053 310.414303 
L 1059.40044 308.953686 
L 1061.364783 307.099206 
L 1063.591038 304.68778 
L 1066.341118 301.356272 
L 1070.269804 296.200021 
L 1075.90092 288.841849 
L 1078.651 285.621619 
L 1080.877255 283.330886 
L 1082.841598 281.601812 
L 1084.674985 280.270872 
L 1086.377415 279.302707 
L 1087.94889 278.65219 
L 1089.520364 278.244527 
L 1090.960882 278.089001 
L 1092.4014 278.143917 
L 1093.841918 278.408381 
L 1095.413393 278.931784 
L 1096.984867 279.692619 
L 1098.687297 280.771691 
L 1100.520684 282.209222 
L 1102.485027 284.034552 
L 1104.711282 286.408241 
L 1107.461362 289.68783 
L 1111.390048 294.76409 
L 1117.021164 302.00879 
L 1119.771244 305.179653 
L 1121.997499 307.435428 
L 1123.961842 309.138251 
L 1125.795229 310.449117 
L 1127.49766 311.40282 
L 1129.069134 312.043772 
L 1130.640608 312.445642 
L 1132.212082 312.602933 
L 1133.652601 312.530515 
L 1135.224075 312.216552 
L 1136.795549 311.662159 
L 1138.367023 310.875597 
L 1140.069454 309.775016 
L 1141.902841 308.322113 
L 1143.99814 306.358235 
L 1146.355351 303.82317 
L 1149.236387 300.373764 
L 1154.081766 294.148355 
L 1158.403321 288.74143 
L 1161.153401 285.654114 
L 1163.379656 283.470001 
L 1165.343999 281.831621 
L 1167.177385 280.580589 
L 1168.879816 279.681128 
L 1170.45129 279.088308 
L 1172.022765 278.731997 
L 1173.594239 278.617041 
L 1175.034757 278.724918 
L 1176.606231 279.073394 
L 1178.177706 279.657473 
L 1179.880136 280.545948 
L 1181.582567 281.685343 
L 1183.546909 283.286077 
L 1185.642208 285.291742 
L 1188.130376 288.002721 
L 1191.273325 291.791057 
L 1200.964083 303.746191 
L 1203.45225 306.325838 
L 1205.54755 308.194984 
L 1207.511892 309.650346 
L 1209.214323 310.65341 
L 1210.916753 311.399028 
L 1212.488228 311.848117 
L 1214.059702 312.061168 
L 1215.631176 312.035396 
L 1217.202651 311.771457 
L 1218.774125 311.273432 
L 1220.345599 310.548764 
L 1222.04803 309.520428 
L 1223.881416 308.149992 
L 1225.976715 306.284248 
L 1228.333927 303.861531 
L 1231.214963 300.547121 
L 1235.667473 295.019789 
L 1240.381896 289.25845 
L 1243.131976 286.231194 
L 1245.489188 283.960209 
L 1247.584487 282.255412 
L 1249.417874 281.04179 
L 1251.120304 280.168952 
L 1252.691778 279.593375 
L 1254.263253 279.24702 
L 1255.834727 279.134599 
L 1257.406201 279.25745 
L 1258.977676 279.613526 
L 1260.54915 280.197425 
L 1262.25158 281.076942 
L 1264.084967 282.294191 
L 1266.04931 283.882114 
L 1268.275565 285.991591 
L 1270.763733 288.665581 
L 1274.037638 292.533151 
L 1282.680746 302.918086 
L 1285.29987 305.615029 
L 1287.526125 307.589298 
L 1289.490468 309.040175 
L 1291.323855 310.118105 
L 1293.026285 310.861504 
L 1294.59776 311.316603 
L 1296.169234 311.543303 
L 1297.740708 311.538614 
L 1299.312182 311.302881 
L 1300.883657 310.839769 
L 1302.586087 310.089592 
L 1304.288518 309.093749 
L 1306.121904 307.766295 
L 1308.217203 305.958739 
L 1310.574415 303.61123 
L 1313.455451 300.399274 
L 1317.907962 295.04197 
L 1322.753341 289.309863 
L 1325.503421 286.390953 
L 1327.860632 284.207242 
L 1329.955931 282.573272 
L 1331.789318 281.414928 
L 1333.491748 280.586831 
L 1335.194179 280.011178 
L 1336.765653 279.712064 
L 1338.337127 279.640137 
L 1339.908602 279.79616 
L 1341.480076 280.177618 
L 1343.05155 280.778755 
L 1344.753981 281.667479 
L 1346.587367 282.883483 
L 1348.55171 284.45728 
L 1350.777966 286.535186 
L 1353.397089 289.300416 
L 1356.932907 293.393357 
L 1364.266453 301.978803 
L 1367.016533 304.803325 
L 1369.242789 306.79068 
L 1371.207131 308.272235 
L 1371.6 308.53474 
L 1371.6 308.53474 
" style="fill:none;stroke:#9467bd;stroke-linecap:square;stroke-width:1.5;"/>
   </g>
   <g id="line2d_15">
    <path clip-path="url(#p1b76c4329f)" d="M 62.3 295.478665 
L 1371.6 295.478665 
L 1371.6 295.478665 
" style="fill:none;stroke:#8c564b;stroke-linecap:square;stroke-width:1.5;"/>
   </g>
   <g id="line2d_16">
    <path clip-path="url(#p1b76c4329f)" d="M 62.3 37.823636 
L 1371.6 37.823636 
L 1371.6 37.823636 
" style="fill:none;stroke:#e377c2;stroke-linecap:square;stroke-width:1.5;"/>
   </g>
   <g id="patch_3">
    <path d="M 62.3 605.32 
L 62.3 10.8 
" style="fill:none;stroke:#000000;stroke-linecap:square;stroke-linejoin:miter;stroke-width:0.8;"/>
   </g>
   <g id="patch_4">
    <path d="M 1371.6 605.32 
L 1371.6 10.8 
" style="fill:none;stroke:#000000;stroke-linecap:square;stroke-linejoin:miter;stroke-width:0.8;"/>
   </g>
   <g id="patch_5">
    <path d="M 62.3 605.32 
L 1371.6 605.32 
" style="fill:none;stroke:#000000;stroke-linecap:square;stroke-linejoin:miter;stroke-width:0.8;"/>
   </g>
   <g id="patch_6">
    <path d="M 62.3 10.8 
L 1371.6 10.8 
" style="fill:none;stroke:#000000;stroke-linecap:square;stroke-linejoin:miter;stroke-width:0.8;"/>
   </g>
   <g id="legend_1">
    <g id="patch_7">
     <path d="M 1265.8925 187.995 
L 1360.4 187.995 
Q 1363.6 187.995 1363.6 184.795 
L 1363.6 22 
Q 1363.6 18.8 1360.4 18.8 
L 1265.8925 18.8 
Q 1262.6925 18.8 1262.6925 22 
L 1262.6925 184.795 
Q 1262.6925 187.995 1265.8925 187.995 
z
" style="fill:#ffffff;opacity:0.8;stroke:#cccccc;stroke-linejoin:miter;"/>
    </g>
    <g id="line2d_17">
     <path d="M 1269.0925 31.7575 
L 1301.0925 31.7575 
" style="fill:none;stroke:#1f77b4;stroke-linecap:square;stroke-width:1.5;"/>
    </g>
    <g id="line2d_18"/>
    <g id="text_13">
     <!-- v(R1) -->
     <defs>
      <path d="M 2.984375 54.6875 
L 12.5 54.6875 
L 29.59375 8.796875 
L 46.6875 54.6875 
L 56.203125 54.6875 
L 35.6875 0 
L 23.484375 0 
z
" id="DejaVuSans-118"/>
      <path d="M 31 75.875 
Q 24.46875 64.65625 21.28125 53.65625 
Q 18.109375 42.671875 18.109375 31.390625 
Q 18.109375 20.125 21.3125 9.0625 
Q 24.515625 -2 31 -13.1875 
L 23.1875 -13.1875 
Q 15.875 -1.703125 12.234375 9.375 
Q 8.59375 20.453125 8.59375 31.390625 
Q 8.59375 42.28125 12.203125 53.3125 
Q 15.828125 64.359375 23.1875 75.875 
z
" id="DejaVuSans-40"/>
      <path d="M 44.390625 34.1875 
Q 47.5625 33.109375 50.5625 29.59375 
Q 53.5625 26.078125 56.59375 19.921875 
L 66.609375 0 
L 56 0 
L 46.6875 18.703125 
Q 43.0625 26.03125 39.671875 28.421875 
Q 36.28125 30.8125 30.421875 30.8125 
L 19.671875 30.8125 
L 19.671875 0 
L 9.8125 0 
L 9.8125 72.90625 
L 32.078125 72.90625 
Q 44.578125 72.90625 50.734375 67.671875 
Q 56.890625 62.453125 56.890625 51.90625 
Q 56.890625 45.015625 53.6875 40.46875 
Q 50.484375 35.9375 44.390625 34.1875 
z
M 19.671875 64.796875 
L 19.671875 38.921875 
L 32.078125 38.921875 
Q 39.203125 38.921875 42.84375 42.21875 
Q 46.484375 45.515625 46.484375 51.90625 
Q 46.484375 58.296875 42.84375 61.546875 
Q 39.203125 64.796875 32.078125 64.796875 
z
" id="DejaVuSans-82"/>
      <path d="M 8.015625 75.875 
L 15.828125 75.875 
Q 23.140625 64.359375 26.78125 53.3125 
Q 30.421875 42.28125 30.421875 31.390625 
Q 30.421875 20.453125 26.78125 9.375 
Q 23.140625 -1.703125 15.828125 -13.1875 
L 8.015625 -13.1875 
Q 14.5 -2 17.703125 9.0625 
Q 20.90625 20.125 20.90625 31.390625 
Q 20.90625 42.671875 17.703125 53.65625 
Q 14.5 64.65625 8.015625 75.875 
z
" id="DejaVuSans-41"/>
     </defs>
     <g transform="translate(1313.8925 37.3575)scale(0.16 -0.16)">
      <use xlink:href="#DejaVuSans-118"/>
      <use x="59.179688" xlink:href="#DejaVuSans-40"/>
      <use x="98.193359" xlink:href="#DejaVuSans-82"/>
      <use x="167.675781" xlink:href="#DejaVuSans-49"/>
      <use x="231.298828" xlink:href="#DejaVuSans-41"/>
     </g>
    </g>
    <g id="line2d_19">
     <path d="M 1269.0925 55.2425 
L 1301.0925 55.2425 
" style="fill:none;stroke:#ff7f0e;stroke-linecap:square;stroke-width:1.5;"/>
    </g>
    <g id="line2d_20"/>
    <g id="text_14">
     <!-- v(L1) -->
     <defs>
      <path d="M 9.8125 72.90625 
L 19.671875 72.90625 
L 19.671875 8.296875 
L 55.171875 8.296875 
L 55.171875 0 
L 9.8125 0 
z
" id="DejaVuSans-76"/>
     </defs>
     <g transform="translate(1313.8925 60.8425)scale(0.16 -0.16)">
      <use xlink:href="#DejaVuSans-118"/>
      <use x="59.179688" xlink:href="#DejaVuSans-40"/>
      <use x="98.193359" xlink:href="#DejaVuSans-76"/>
      <use x="153.90625" xlink:href="#DejaVuSans-49"/>
      <use x="217.529297" xlink:href="#DejaVuSans-41"/>
     </g>
    </g>
    <g id="line2d_21">
     <path d="M 1269.0925 78.7275 
L 1301.0925 78.7275 
" style="fill:none;stroke:#2ca02c;stroke-linecap:square;stroke-width:1.5;"/>
    </g>
    <g id="line2d_22"/>
    <g id="text_15">
     <!-- v(L2) -->
     <g transform="translate(1313.8925 84.3275)scale(0.16 -0.16)">
      <use xlink:href="#DejaVuSans-118"/>
      <use x="59.179688" xlink:href="#DejaVuSans-40"/>
      <use x="98.193359" xlink:href="#DejaVuSans-76"/>
      <use x="153.90625" xlink:href="#DejaVuSans-50"/>
      <use x="217.529297" xlink:href="#DejaVuSans-41"/>
     </g>
    </g>
    <g id="line2d_23">
     <path d="M 1269.0925 102.2125 
L 1301.0925 102.2125 
" style="fill:none;stroke:#d62728;stroke-linecap:square;stroke-width:1.5;"/>
    </g>
    <g id="line2d_24"/>
    <g id="text_16">
     <!-- v(C1) -->
     <defs>
      <path d="M 64.40625 67.28125 
L 64.40625 56.890625 
Q 59.421875 61.53125 53.78125 63.8125 
Q 48.140625 66.109375 41.796875 66.109375 
Q 29.296875 66.109375 22.65625 58.46875 
Q 16.015625 50.828125 16.015625 36.375 
Q 16.015625 21.96875 22.65625 14.328125 
Q 29.296875 6.6875 41.796875 6.6875 
Q 48.140625 6.6875 53.78125 8.984375 
Q 59.421875 11.28125 64.40625 15.921875 
L 64.40625 5.609375 
Q 59.234375 2.09375 53.4375 0.328125 
Q 47.65625 -1.421875 41.21875 -1.421875 
Q 24.65625 -1.421875 15.125 8.703125 
Q 5.609375 18.84375 5.609375 36.375 
Q 5.609375 53.953125 15.125 64.078125 
Q 24.65625 74.21875 41.21875 74.21875 
Q 47.75 74.21875 53.53125 72.484375 
Q 59.328125 70.75 64.40625 67.28125 
z
" id="DejaVuSans-67"/>
     </defs>
     <g transform="translate(1313.8925 107.8125)scale(0.16 -0.16)">
      <use xlink:href="#DejaVuSans-118"/>
      <use x="59.179688" xlink:href="#DejaVuSans-40"/>
      <use x="98.193359" xlink:href="#DejaVuSans-67"/>
      <use x="168.017578" xlink:href="#DejaVuSans-49"/>
      <use x="231.640625" xlink:href="#DejaVuSans-41"/>
     </g>
    </g>
    <g id="line2d_25">
     <path d="M 1269.0925 125.6975 
L 1301.0925 125.6975 
" style="fill:none;stroke:#9467bd;stroke-linecap:square;stroke-width:1.5;"/>
    </g>
    <g id="line2d_26"/>
    <g id="text_17">
     <!-- v(C2) -->
     <g transform="translate(1313.8925 131.2975)scale(0.16 -0.16)">
      <use xlink:href="#DejaVuSans-118"/>
      <use x="59.179688" xlink:href="#DejaVuSans-40"/>
      <use x="98.193359" xlink:href="#DejaVuSans-67"/>
      <use x="168.017578" xlink:href="#DejaVuSans-50"/>
      <use x="231.640625" xlink:href="#DejaVuSans-41"/>
     </g>
    </g>
    <g id="line2d_27">
     <path d="M 1269.0925 149.1825 
L 1301.0925 149.1825 
" style="fill:none;stroke:#8c564b;stroke-linecap:square;stroke-width:1.5;"/>
    </g>
    <g id="line2d_28"/>
    <g id="text_18">
     <!-- v(C3) -->
     <g transform="translate(1313.8925 154.7825)scale(0.16 -0.16)">
      <use xlink:href="#DejaVuSans-118"/>
      <use x="59.179688" xlink:href="#DejaVuSans-40"/>
      <use x="98.193359" xlink:href="#DejaVuSans-67"/>
      <use x="168.017578" xlink:href="#DejaVuSans-51"/>
      <use x="231.640625" xlink:href="#DejaVuSans-41"/>
     </g>
    </g>
    <g id="line2d_29">
     <path d="M 1269.0925 172.6675 
L 1301.0925 172.6675 
" style="fill:none;stroke:#e377c2;stroke-linecap:square;stroke-width:1.5;"/>
    </g>
    <g id="line2d_30"/>
    <g id="text_19">
     <!-- v(V1) -->
     <g transform="translate(1313.8925 178.2675)scale(0.16 -0.16)">
      <use xlink:href="#DejaVuSans-118"/>
      <use x="59.179688" xlink:href="#DejaVuSans-40"/>
      <use x="98.193359" xlink:href="#DejaVuSans-86"/>
      <use x="166.601562" xlink:href="#DejaVuSans-49"/>
      <use x="230.224609" xlink:href="#DejaVuSans-41"/>
     </g>
    </g>
   </g>
  </g>
 </g>
 <defs>
  <clipPath id="p1b76c4329f">
   <rect height="594.52" width="1309.3" x="62.3" y="10.8"/>
  </clipPath>
 </defs>
</svg>
