<?xml version="1.0" encoding="utf-8" standalone="no"?>
<!DOCTYPE svg PUBLIC "-//W3C//DTD SVG 1.1//EN"
  "http://www.w3.org/Graphics/SVG/1.1/DTD/svg11.dtd">
<!-- Created with matplotlib (https://matplotlib.org/) -->
<svg height="655.2pt" version="1.1" viewBox="0 0 1382.4 655.2" width="1382.4pt" xmlns="http://www.w3.org/2000/svg" xmlns:xlink="http://www.w3.org/1999/xlink">
 <defs>
  <style type="text/css">
*{stroke-linecap:butt;stroke-linejoin:round;}
  </style>
 </defs>
 <g id="figure_1">
  <g id="patch_1">
   <path d="M 0 655.2 
L 1382.4 655.2 
L 1382.4 0 
L 0 0 
z
" style="fill:#ffffff;"/>
  </g>
  <g id="axes_1">
   <g id="patch_2">
    <path d="M 196.62 560.635833 
L 1350 560.635833 
L 1350 41.1775 
L 196.62 41.1775 
z
" style="fill:#ffffff;"/>
   </g>
   <g id="matplotlib.axis_1">
    <g id="xtick_1">
     <g id="line2d_1">
      <defs>
       <path d="M 0 0 
L 0 3.5 
" id="md89f640d23" style="stroke:#000000;stroke-width:0.8;"/>
      </defs>
      <g>
       <use style="stroke:#000000;stroke-width:0.8;" x="427.948821" xlink:href="#md89f640d23" y="560.635833"/>
      </g>
     </g>
     <g id="text_1">
      <!-- 2 -->
      <defs>
       <path d="M 19.1875 8.296875 
L 53.609375 8.296875 
L 53.609375 0 
L 7.328125 0 
L 7.328125 8.296875 
Q 12.9375 14.109375 22.625 23.890625 
Q 32.328125 33.6875 34.8125 36.53125 
Q 39.546875 41.84375 41.421875 45.53125 
Q 43.3125 49.21875 43.3125 52.78125 
Q 43.3125 58.59375 39.234375 62.25 
Q 35.15625 65.921875 28.609375 65.921875 
Q 23.96875 65.921875 18.8125 64.3125 
Q 13.671875 62.703125 7.8125 59.421875 
L 7.8125 69.390625 
Q 13.765625 71.78125 18.9375 73 
Q 24.125 74.21875 28.421875 74.21875 
Q 39.75 74.21875 46.484375 68.546875 
Q 53.21875 62.890625 53.21875 53.421875 
Q 53.21875 48.921875 51.53125 44.890625 
Q 49.859375 40.875 45.40625 35.40625 
Q 44.1875 33.984375 37.640625 27.21875 
Q 31.109375 20.453125 19.1875 8.296875 
z
" id="DejaVuSans-50"/>
      </defs>
      <g transform="translate(424.767571 575.234271)scale(0.1 -0.1)">
       <use xlink:href="#DejaVuSans-50"/>
      </g>
     </g>
    </g>
    <g id="xtick_2">
     <g id="line2d_2">
      <g>
       <use style="stroke:#000000;stroke-width:0.8;" x="659.393364" xlink:href="#md89f640d23" y="560.635833"/>
      </g>
     </g>
     <g id="text_2">
      <!-- 4 -->
      <defs>
       <path d="M 37.796875 64.3125 
L 12.890625 25.390625 
L 37.796875 25.390625 
z
M 35.203125 72.90625 
L 47.609375 72.90625 
L 47.609375 25.390625 
L 58.015625 25.390625 
L 58.015625 17.1875 
L 47.609375 17.1875 
L 47.609375 0 
L 37.796875 0 
L 37.796875 17.1875 
L 4.890625 17.1875 
L 4.890625 26.703125 
z
" id="DejaVuSans-52"/>
      </defs>
      <g transform="translate(656.212114 575.234271)scale(0.1 -0.1)">
       <use xlink:href="#DejaVuSans-52"/>
      </g>
     </g>
    </g>
    <g id="xtick_3">
     <g id="line2d_3">
      <g>
       <use style="stroke:#000000;stroke-width:0.8;" x="890.837907" xlink:href="#md89f640d23" y="560.635833"/>
      </g>
     </g>
     <g id="text_3">
      <!-- 6 -->
      <defs>
       <path d="M 33.015625 40.375 
Q 26.375 40.375 22.484375 35.828125 
Q 18.609375 31.296875 18.609375 23.390625 
Q 18.609375 15.53125 22.484375 10.953125 
Q 26.375 6.390625 33.015625 6.390625 
Q 39.65625 6.390625 43.53125 10.953125 
Q 47.40625 15.53125 47.40625 23.390625 
Q 47.40625 31.296875 43.53125 35.828125 
Q 39.65625 40.375 33.015625 40.375 
z
M 52.59375 71.296875 
L 52.59375 62.3125 
Q 48.875 64.0625 45.09375 64.984375 
Q 41.3125 65.921875 37.59375 65.921875 
Q 27.828125 65.921875 22.671875 59.328125 
Q 17.53125 52.734375 16.796875 39.40625 
Q 19.671875 43.65625 24.015625 45.921875 
Q 28.375 48.1875 33.59375 48.1875 
Q 44.578125 48.1875 50.953125 41.515625 
Q 57.328125 34.859375 57.328125 23.390625 
Q 57.328125 12.15625 50.6875 5.359375 
Q 44.046875 -1.421875 33.015625 -1.421875 
Q 20.359375 -1.421875 13.671875 8.265625 
Q 6.984375 17.96875 6.984375 36.375 
Q 6.984375 53.65625 15.1875 63.9375 
Q 23.390625 74.21875 37.203125 74.21875 
Q 40.921875 74.21875 44.703125 73.484375 
Q 48.484375 72.75 52.59375 71.296875 
z
" id="DejaVuSans-54"/>
      </defs>
      <g transform="translate(887.656657 575.234271)scale(0.1 -0.1)">
       <use xlink:href="#DejaVuSans-54"/>
      </g>
     </g>
    </g>
    <g id="xtick_4">
     <g id="line2d_4">
      <g>
       <use style="stroke:#000000;stroke-width:0.8;" x="1122.282451" xlink:href="#md89f640d23" y="560.635833"/>
      </g>
     </g>
     <g id="text_4">
      <!-- 8 -->
      <defs>
       <path d="M 31.78125 34.625 
Q 24.75 34.625 20.71875 30.859375 
Q 16.703125 27.09375 16.703125 20.515625 
Q 16.703125 13.921875 20.71875 10.15625 
Q 24.75 6.390625 31.78125 6.390625 
Q 38.8125 6.390625 42.859375 10.171875 
Q 46.921875 13.96875 46.921875 20.515625 
Q 46.921875 27.09375 42.890625 30.859375 
Q 38.875 34.625 31.78125 34.625 
z
M 21.921875 38.8125 
Q 15.578125 40.375 12.03125 44.71875 
Q 8.5 49.078125 8.5 55.328125 
Q 8.5 64.0625 14.71875 69.140625 
Q 20.953125 74.21875 31.78125 74.21875 
Q 42.671875 74.21875 48.875 69.140625 
Q 55.078125 64.0625 55.078125 55.328125 
Q 55.078125 49.078125 51.53125 44.71875 
Q 48 40.375 41.703125 38.8125 
Q 48.828125 37.15625 52.796875 32.3125 
Q 56.78125 27.484375 56.78125 20.515625 
Q 56.78125 9.90625 50.3125 4.234375 
Q 43.84375 -1.421875 31.78125 -1.421875 
Q 19.734375 -1.421875 13.25 4.234375 
Q 6.78125 9.90625 6.78125 20.515625 
Q 6.78125 27.484375 10.78125 32.3125 
Q 14.796875 37.15625 21.921875 38.8125 
z
M 18.3125 54.390625 
Q 18.3125 48.734375 21.84375 45.5625 
Q 25.390625 42.390625 31.78125 42.390625 
Q 38.140625 42.390625 41.71875 45.5625 
Q 45.3125 48.734375 45.3125 54.390625 
Q 45.3125 60.0625 41.71875 63.234375 
Q 38.140625 66.40625 31.78125 66.40625 
Q 25.390625 66.40625 21.84375 63.234375 
Q 18.3125 60.0625 18.3125 54.390625 
z
" id="DejaVuSans-56"/>
      </defs>
      <g transform="translate(1119.101201 575.234271)scale(0.1 -0.1)">
       <use xlink:href="#DejaVuSans-56"/>
      </g>
     </g>
    </g>
    <g id="text_5">
     <!-- Time [$s$] -->
     <defs>
      <path d="M -0.296875 72.90625 
L 61.375 72.90625 
L 61.375 64.59375 
L 35.5 64.59375 
L 35.5 0 
L 25.59375 0 
L 25.59375 64.59375 
L -0.296875 64.59375 
z
" id="DejaVuSans-84"/>
      <path d="M 9.421875 54.6875 
L 18.40625 54.6875 
L 18.40625 0 
L 9.421875 0 
z
M 9.421875 75.984375 
L 18.40625 75.984375 
L 18.40625 64.59375 
L 9.421875 64.59375 
z
" id="DejaVuSans-105"/>
      <path d="M 52 44.1875 
Q 55.375 50.25 60.0625 53.125 
Q 64.75 56 71.09375 56 
Q 79.640625 56 84.28125 50.015625 
Q 88.921875 44.046875 88.921875 33.015625 
L 88.921875 0 
L 79.890625 0 
L 79.890625 32.71875 
Q 79.890625 40.578125 77.09375 44.375 
Q 74.3125 48.1875 68.609375 48.1875 
Q 61.625 48.1875 57.5625 43.546875 
Q 53.515625 38.921875 53.515625 30.90625 
L 53.515625 0 
L 44.484375 0 
L 44.484375 32.71875 
Q 44.484375 40.625 41.703125 44.40625 
Q 38.921875 48.1875 33.109375 48.1875 
Q 26.21875 48.1875 22.15625 43.53125 
Q 18.109375 38.875 18.109375 30.90625 
L 18.109375 0 
L 9.078125 0 
L 9.078125 54.6875 
L 18.109375 54.6875 
L 18.109375 46.1875 
Q 21.1875 51.21875 25.484375 53.609375 
Q 29.78125 56 35.6875 56 
Q 41.65625 56 45.828125 52.96875 
Q 50 49.953125 52 44.1875 
z
" id="DejaVuSans-109"/>
      <path d="M 56.203125 29.59375 
L 56.203125 25.203125 
L 14.890625 25.203125 
Q 15.484375 15.921875 20.484375 11.0625 
Q 25.484375 6.203125 34.421875 6.203125 
Q 39.59375 6.203125 44.453125 7.46875 
Q 49.3125 8.734375 54.109375 11.28125 
L 54.109375 2.78125 
Q 49.265625 0.734375 44.1875 -0.34375 
Q 39.109375 -1.421875 33.890625 -1.421875 
Q 20.796875 -1.421875 13.15625 6.1875 
Q 5.515625 13.8125 5.515625 26.8125 
Q 5.515625 40.234375 12.765625 48.109375 
Q 20.015625 56 32.328125 56 
Q 43.359375 56 49.78125 48.890625 
Q 56.203125 41.796875 56.203125 29.59375 
z
M 47.21875 32.234375 
Q 47.125 39.59375 43.09375 43.984375 
Q 39.0625 48.390625 32.421875 48.390625 
Q 24.90625 48.390625 20.390625 44.140625 
Q 15.875 39.890625 15.1875 32.171875 
z
" id="DejaVuSans-101"/>
      <path id="DejaVuSans-32"/>
      <path d="M 8.59375 75.984375 
L 29.296875 75.984375 
L 29.296875 69 
L 17.578125 69 
L 17.578125 -6.203125 
L 29.296875 -6.203125 
L 29.296875 -13.1875 
L 8.59375 -13.1875 
z
" id="DejaVuSans-91"/>
      <path d="M 50 53.078125 
L 48.296875 44.578125 
Q 44.734375 46.53125 40.765625 47.5 
Q 36.8125 48.484375 32.625 48.484375 
Q 25.53125 48.484375 21.453125 46.0625 
Q 17.390625 43.65625 17.390625 39.5 
Q 17.390625 34.671875 26.859375 32.078125 
Q 27.59375 31.890625 27.9375 31.78125 
L 30.8125 30.90625 
Q 39.796875 28.421875 42.796875 25.6875 
Q 45.796875 22.953125 45.796875 18.21875 
Q 45.796875 9.515625 38.890625 4.046875 
Q 31.984375 -1.421875 20.796875 -1.421875 
Q 16.453125 -1.421875 11.671875 -0.578125 
Q 6.890625 0.25 1.125 2 
L 2.875 11.28125 
Q 7.8125 8.734375 12.59375 7.421875 
Q 17.390625 6.109375 21.78125 6.109375 
Q 28.375 6.109375 32.5 8.9375 
Q 36.625 11.765625 36.625 16.109375 
Q 36.625 20.796875 25.78125 23.6875 
L 24.859375 23.921875 
L 21.78125 24.703125 
Q 14.9375 26.515625 11.765625 29.46875 
Q 8.59375 32.421875 8.59375 37.015625 
Q 8.59375 45.75 15.15625 50.875 
Q 21.734375 56 33.015625 56 
Q 37.453125 56 41.671875 55.265625 
Q 45.90625 54.546875 50 53.078125 
z
" id="DejaVuSans-Oblique-115"/>
      <path d="M 30.421875 75.984375 
L 30.421875 -13.1875 
L 9.71875 -13.1875 
L 9.71875 -6.203125 
L 21.390625 -6.203125 
L 21.390625 69 
L 9.71875 69 
L 9.71875 75.984375 
z
" id="DejaVuSans-93"/>
     </defs>
     <g transform="translate(740.51 593.471458)scale(0.16 -0.16)">
      <use transform="translate(0 0.015625)" xlink:href="#DejaVuSans-84"/>
      <use transform="translate(61.083984 0.015625)" xlink:href="#DejaVuSans-105"/>
      <use transform="translate(88.867188 0.015625)" xlink:href="#DejaVuSans-109"/>
      <use transform="translate(186.279297 0.015625)" xlink:href="#DejaVuSans-101"/>
      <use transform="translate(247.802734 0.015625)" xlink:href="#DejaVuSans-32"/>
      <use transform="translate(279.589844 0.015625)" xlink:href="#DejaVuSans-91"/>
      <use transform="translate(318.603516 0.015625)" xlink:href="#DejaVuSans-Oblique-115"/>
      <use transform="translate(370.703125 0.015625)" xlink:href="#DejaVuSans-93"/>
     </g>
    </g>
    <g id="text_6">
     <!-- 1e−3 -->
     <defs>
      <path d="M 12.40625 8.296875 
L 28.515625 8.296875 
L 28.515625 63.921875 
L 10.984375 60.40625 
L 10.984375 69.390625 
L 28.421875 72.90625 
L 38.28125 72.90625 
L 38.28125 8.296875 
L 54.390625 8.296875 
L 54.390625 0 
L 12.40625 0 
z
" id="DejaVuSans-49"/>
      <path d="M 10.59375 35.5 
L 73.1875 35.5 
L 73.1875 27.203125 
L 10.59375 27.203125 
z
" id="DejaVuSans-8722"/>
      <path d="M 40.578125 39.3125 
Q 47.65625 37.796875 51.625 33 
Q 55.609375 28.21875 55.609375 21.1875 
Q 55.609375 10.40625 48.1875 4.484375 
Q 40.765625 -1.421875 27.09375 -1.421875 
Q 22.515625 -1.421875 17.65625 -0.515625 
Q 12.796875 0.390625 7.625 2.203125 
L 7.625 11.71875 
Q 11.71875 9.328125 16.59375 8.109375 
Q 21.484375 6.890625 26.8125 6.890625 
Q 36.078125 6.890625 40.9375 10.546875 
Q 45.796875 14.203125 45.796875 21.1875 
Q 45.796875 27.640625 41.28125 31.265625 
Q 36.765625 34.90625 28.71875 34.90625 
L 20.21875 34.90625 
L 20.21875 43.015625 
L 29.109375 43.015625 
Q 36.375 43.015625 40.234375 45.921875 
Q 44.09375 48.828125 44.09375 54.296875 
Q 44.09375 59.90625 40.109375 62.90625 
Q 36.140625 65.921875 28.71875 65.921875 
Q 24.65625 65.921875 20.015625 65.03125 
Q 15.375 64.15625 9.8125 62.3125 
L 9.8125 71.09375 
Q 15.4375 72.65625 20.34375 73.4375 
Q 25.25 74.21875 29.59375 74.21875 
Q 40.828125 74.21875 47.359375 69.109375 
Q 53.90625 64.015625 53.90625 55.328125 
Q 53.90625 49.265625 50.4375 45.09375 
Q 46.96875 40.921875 40.578125 39.3125 
z
" id="DejaVuSans-51"/>
     </defs>
     <g transform="translate(1322.742187 587.912396)scale(0.1 -0.1)">
      <use xlink:href="#DejaVuSans-49"/>
      <use x="63.623047" xlink:href="#DejaVuSans-101"/>
      <use x="125.146484" xlink:href="#DejaVuSans-8722"/>
      <use x="208.935547" xlink:href="#DejaVuSans-51"/>
     </g>
    </g>
   </g>
   <g id="matplotlib.axis_2">
    <g id="ytick_1">
     <g id="line2d_5">
      <defs>
       <path d="M 0 0 
L -3.5 0 
" id="mc0e705f017" style="stroke:#000000;stroke-width:0.8;"/>
      </defs>
      <g>
       <use style="stroke:#000000;stroke-width:0.8;" x="196.62" xlink:href="#mc0e705f017" y="528.567095"/>
      </g>
     </g>
     <g id="text_7">
      <!-- −6 -->
      <g transform="translate(174.877813 532.366314)scale(0.1 -0.1)">
       <use xlink:href="#DejaVuSans-8722"/>
       <use x="83.789062" xlink:href="#DejaVuSans-54"/>
      </g>
     </g>
    </g>
    <g id="ytick_2">
     <g id="line2d_6">
      <g>
       <use style="stroke:#000000;stroke-width:0.8;" x="196.62" xlink:href="#mc0e705f017" y="450.707711"/>
      </g>
     </g>
     <g id="text_8">
      <!-- −4 -->
      <g transform="translate(174.877813 454.50693)scale(0.1 -0.1)">
       <use xlink:href="#DejaVuSans-8722"/>
       <use x="83.789062" xlink:href="#DejaVuSans-52"/>
      </g>
     </g>
    </g>
    <g id="ytick_3">
     <g id="line2d_7">
      <g>
       <use style="stroke:#000000;stroke-width:0.8;" x="196.62" xlink:href="#mc0e705f017" y="372.848327"/>
      </g>
     </g>
     <g id="text_9">
      <!-- −2 -->
      <g transform="translate(174.877813 376.647546)scale(0.1 -0.1)">
       <use xlink:href="#DejaVuSans-8722"/>
       <use x="83.789062" xlink:href="#DejaVuSans-50"/>
      </g>
     </g>
    </g>
    <g id="ytick_4">
     <g id="line2d_8">
      <g>
       <use style="stroke:#000000;stroke-width:0.8;" x="196.62" xlink:href="#mc0e705f017" y="294.988944"/>
      </g>
     </g>
     <g id="text_10">
      <!-- 0 -->
      <defs>
       <path d="M 31.78125 66.40625 
Q 24.171875 66.40625 20.328125 58.90625 
Q 16.5 51.421875 16.5 36.375 
Q 16.5 21.390625 20.328125 13.890625 
Q 24.171875 6.390625 31.78125 6.390625 
Q 39.453125 6.390625 43.28125 13.890625 
Q 47.125 21.390625 47.125 36.375 
Q 47.125 51.421875 43.28125 58.90625 
Q 39.453125 66.40625 31.78125 66.40625 
z
M 31.78125 74.21875 
Q 44.046875 74.21875 50.515625 64.515625 
Q 56.984375 54.828125 56.984375 36.375 
Q 56.984375 17.96875 50.515625 8.265625 
Q 44.046875 -1.421875 31.78125 -1.421875 
Q 19.53125 -1.421875 13.0625 8.265625 
Q 6.59375 17.96875 6.59375 36.375 
Q 6.59375 54.828125 13.0625 64.515625 
Q 19.53125 74.21875 31.78125 74.21875 
z
" id="DejaVuSans-48"/>
      </defs>
      <g transform="translate(183.2575 298.788163)scale(0.1 -0.1)">
       <use xlink:href="#DejaVuSans-48"/>
      </g>
     </g>
    </g>
    <g id="ytick_5">
     <g id="line2d_9">
      <g>
       <use style="stroke:#000000;stroke-width:0.8;" x="196.62" xlink:href="#mc0e705f017" y="217.12956"/>
      </g>
     </g>
     <g id="text_11">
      <!-- 2 -->
      <g transform="translate(183.2575 220.928779)scale(0.1 -0.1)">
       <use xlink:href="#DejaVuSans-50"/>
      </g>
     </g>
    </g>
    <g id="ytick_6">
     <g id="line2d_10">
      <g>
       <use style="stroke:#000000;stroke-width:0.8;" x="196.62" xlink:href="#mc0e705f017" y="139.270176"/>
      </g>
     </g>
     <g id="text_12">
      <!-- 4 -->
      <g transform="translate(183.2575 143.069395)scale(0.1 -0.1)">
       <use xlink:href="#DejaVuSans-52"/>
      </g>
     </g>
    </g>
    <g id="ytick_7">
     <g id="line2d_11">
      <g>
       <use style="stroke:#000000;stroke-width:0.8;" x="196.62" xlink:href="#mc0e705f017" y="61.410793"/>
      </g>
     </g>
     <g id="text_13">
      <!-- 6 -->
      <g transform="translate(183.2575 65.210011)scale(0.1 -0.1)">
       <use xlink:href="#DejaVuSans-54"/>
      </g>
     </g>
    </g>
    <g id="text_14">
     <!-- Voltage [$V$] -->
     <defs>
      <path d="M 28.609375 0 
L 0.78125 72.90625 
L 11.078125 72.90625 
L 34.1875 11.53125 
L 57.328125 72.90625 
L 67.578125 72.90625 
L 39.796875 0 
z
" id="DejaVuSans-86"/>
      <path d="M 30.609375 48.390625 
Q 23.390625 48.390625 19.1875 42.75 
Q 14.984375 37.109375 14.984375 27.296875 
Q 14.984375 17.484375 19.15625 11.84375 
Q 23.34375 6.203125 30.609375 6.203125 
Q 37.796875 6.203125 41.984375 11.859375 
Q 46.1875 17.53125 46.1875 27.296875 
Q 46.1875 37.015625 41.984375 42.703125 
Q 37.796875 48.390625 30.609375 48.390625 
z
M 30.609375 56 
Q 42.328125 56 49.015625 48.375 
Q 55.71875 40.765625 55.71875 27.296875 
Q 55.71875 13.875 49.015625 6.21875 
Q 42.328125 -1.421875 30.609375 -1.421875 
Q 18.84375 -1.421875 12.171875 6.21875 
Q 5.515625 13.875 5.515625 27.296875 
Q 5.515625 40.765625 12.171875 48.375 
Q 18.84375 56 30.609375 56 
z
" id="DejaVuSans-111"/>
      <path d="M 9.421875 75.984375 
L 18.40625 75.984375 
L 18.40625 0 
L 9.421875 0 
z
" id="DejaVuSans-108"/>
      <path d="M 18.3125 70.21875 
L 18.3125 54.6875 
L 36.8125 54.6875 
L 36.8125 47.703125 
L 18.3125 47.703125 
L 18.3125 18.015625 
Q 18.3125 11.328125 20.140625 9.421875 
Q 21.96875 7.515625 27.59375 7.515625 
L 36.8125 7.515625 
L 36.8125 0 
L 27.59375 0 
Q 17.1875 0 13.234375 3.875 
Q 9.28125 7.765625 9.28125 18.015625 
L 9.28125 47.703125 
L 2.6875 47.703125 
L 2.6875 54.6875 
L 9.28125 54.6875 
L 9.28125 70.21875 
z
" id="DejaVuSans-116"/>
      <path d="M 34.28125 27.484375 
Q 23.390625 27.484375 19.1875 25 
Q 14.984375 22.515625 14.984375 16.5 
Q 14.984375 11.71875 18.140625 8.90625 
Q 21.296875 6.109375 26.703125 6.109375 
Q 34.1875 6.109375 38.703125 11.40625 
Q 43.21875 16.703125 43.21875 25.484375 
L 43.21875 27.484375 
z
M 52.203125 31.203125 
L 52.203125 0 
L 43.21875 0 
L 43.21875 8.296875 
Q 40.140625 3.328125 35.546875 0.953125 
Q 30.953125 -1.421875 24.3125 -1.421875 
Q 15.921875 -1.421875 10.953125 3.296875 
Q 6 8.015625 6 15.921875 
Q 6 25.140625 12.171875 29.828125 
Q 18.359375 34.515625 30.609375 34.515625 
L 43.21875 34.515625 
L 43.21875 35.40625 
Q 43.21875 41.609375 39.140625 45 
Q 35.0625 48.390625 27.6875 48.390625 
Q 23 48.390625 18.546875 47.265625 
Q 14.109375 46.140625 10.015625 43.890625 
L 10.015625 52.203125 
Q 14.9375 54.109375 19.578125 55.046875 
Q 24.21875 56 28.609375 56 
Q 40.484375 56 46.34375 49.84375 
Q 52.203125 43.703125 52.203125 31.203125 
z
" id="DejaVuSans-97"/>
      <path d="M 45.40625 27.984375 
Q 45.40625 37.75 41.375 43.109375 
Q 37.359375 48.484375 30.078125 48.484375 
Q 22.859375 48.484375 18.828125 43.109375 
Q 14.796875 37.75 14.796875 27.984375 
Q 14.796875 18.265625 18.828125 12.890625 
Q 22.859375 7.515625 30.078125 7.515625 
Q 37.359375 7.515625 41.375 12.890625 
Q 45.40625 18.265625 45.40625 27.984375 
z
M 54.390625 6.78125 
Q 54.390625 -7.171875 48.1875 -13.984375 
Q 42 -20.796875 29.203125 -20.796875 
Q 24.46875 -20.796875 20.265625 -20.09375 
Q 16.0625 -19.390625 12.109375 -17.921875 
L 12.109375 -9.1875 
Q 16.0625 -11.328125 19.921875 -12.34375 
Q 23.78125 -13.375 27.78125 -13.375 
Q 36.625 -13.375 41.015625 -8.765625 
Q 45.40625 -4.15625 45.40625 5.171875 
L 45.40625 9.625 
Q 42.625 4.78125 38.28125 2.390625 
Q 33.9375 0 27.875 0 
Q 17.828125 0 11.671875 7.65625 
Q 5.515625 15.328125 5.515625 27.984375 
Q 5.515625 40.671875 11.671875 48.328125 
Q 17.828125 56 27.875 56 
Q 33.9375 56 38.28125 53.609375 
Q 42.625 51.21875 45.40625 46.390625 
L 45.40625 54.6875 
L 54.390625 54.6875 
z
" id="DejaVuSans-103"/>
      <path d="M 20.609375 0 
L 7.8125 72.90625 
L 17.484375 72.90625 
L 28.078125 10.203125 
L 63.484375 72.90625 
L 74.21875 72.90625 
L 32.078125 0 
z
" id="DejaVuSans-Oblique-86"/>
     </defs>
     <g transform="translate(167.517813 345.866667)rotate(-90)scale(0.16 -0.16)">
      <use transform="translate(0 0.015625)" xlink:href="#DejaVuSans-86"/>
      <use transform="translate(68.408203 0.015625)" xlink:href="#DejaVuSans-111"/>
      <use transform="translate(129.589844 0.015625)" xlink:href="#DejaVuSans-108"/>
      <use transform="translate(157.373047 0.015625)" xlink:href="#DejaVuSans-116"/>
      <use transform="translate(196.582031 0.015625)" xlink:href="#DejaVuSans-97"/>
      <use transform="translate(257.861328 0.015625)" xlink:href="#DejaVuSans-103"/>
      <use transform="translate(321.337891 0.015625)" xlink:href="#DejaVuSans-101"/>
      <use transform="translate(382.861328 0.015625)" xlink:href="#DejaVuSans-32"/>
      <use transform="translate(414.648438 0.015625)" xlink:href="#DejaVuSans-91"/>
      <use transform="translate(453.662109 0.015625)" xlink:href="#DejaVuSans-Oblique-86"/>
      <use transform="translate(522.070312 0.015625)" xlink:href="#DejaVuSans-93"/>
     </g>
    </g>
    <g id="text_15">
     <!-- 1e3 -->
     <g transform="translate(196.62 38.1775)scale(0.1 -0.1)">
      <use xlink:href="#DejaVuSans-49"/>
      <use x="63.623047" xlink:href="#DejaVuSans-101"/>
      <use x="125.146484" xlink:href="#DejaVuSans-51"/>
     </g>
    </g>
   </g>
   <g id="line2d_12">
    <path clip-path="url(#p3ac2b1ed75)" d="M 196.62 286.360031 
L 196.967167 250.787398 
L 197.314334 237.263232 
L 197.545778 235.034464 
L 197.6615 235.18269 
L 197.892945 237.149386 
L 198.355834 244.696136 
L 199.744501 269.471477 
L 200.438835 277.892411 
L 201.133169 283.542423 
L 201.71178 286.514881 
L 202.174669 287.980438 
L 202.637558 288.789283 
L 202.984725 289.040136 
L 203.331892 289.037541 
L 203.679059 288.822325 
L 204.141948 288.266489 
L 204.836281 287.002442 
L 205.877782 284.517221 
L 209.465172 275.456472 
L 210.622395 273.231216 
L 211.663895 271.647363 
L 212.705396 270.462811 
L 213.631174 269.732198 
L 214.556952 269.285913 
L 215.48273 269.102045 
L 216.408508 269.157221 
L 217.334287 269.427944 
L 218.375787 269.961865 
L 219.53301 270.804343 
L 220.921677 272.109956 
L 222.541789 273.966631 
L 224.509067 276.597325 
L 226.939235 280.258136 
L 230.179459 285.578298 
L 242.098853 305.535834 
L 245.107632 309.970298 
L 247.769244 313.522334 
L 250.199412 316.414167 
L 252.513857 318.824432 
L 254.596858 320.686679 
L 256.564137 322.16551 
L 258.531415 323.363539 
L 260.382972 324.229333 
L 262.118806 324.808069 
L 263.85464 325.160931 
L 265.590474 325.289165 
L 267.326308 325.195626 
L 269.062142 324.88473 
L 270.913698 324.320227 
L 272.765255 323.524151 
L 274.732533 322.436608 
L 276.815534 321.029924 
L 279.12998 319.183081 
L 281.560147 316.954649 
L 284.337482 314.093892 
L 287.577705 310.412647 
L 291.627985 305.442524 
L 305.746102 287.78955 
L 308.986326 284.26023 
L 311.879383 281.427104 
L 314.540995 279.129133 
L 316.971162 277.31677 
L 319.285608 275.86262 
L 321.484331 274.73876 
L 323.567332 273.912725 
L 325.650333 273.322929 
L 327.733334 272.970743 
L 329.816335 272.855033 
L 331.899336 272.972224 
L 333.982336 273.316389 
L 336.18106 273.91685 
L 338.379783 274.748915 
L 340.694228 275.858911 
L 343.240118 277.334089 
L 346.017453 279.213285 
L 349.141954 281.612601 
L 352.729344 284.658213 
L 357.58968 289.101054 
L 368.004684 298.697626 
L 371.823519 301.866118 
L 375.063743 304.279944 
L 378.072522 306.246508 
L 380.849856 307.795763 
L 383.395746 308.972295 
L 385.941636 309.902823 
L 388.371804 310.553829 
L 390.801972 310.96927 
L 393.116417 311.145581 
L 395.546585 311.103212 
L 397.976753 310.833826 
L 400.522643 310.318135 
L 403.068533 309.577262 
L 405.845867 308.532325 
L 408.854646 307.150999 
L 412.09487 305.415477 
L 415.913705 303.108783 
L 420.889762 299.822367 
L 433.156323 291.608871 
L 437.206603 289.23206 
L 440.678271 287.443973 
L 443.918494 286.023664 
L 446.927274 284.945036 
L 449.82033 284.142042 
L 452.597665 283.596296 
L 455.374999 283.275325 
L 458.152334 283.179014 
L 460.929668 283.303103 
L 463.822725 283.657841 
L 466.831504 284.256392 
L 469.956006 285.104783 
L 473.427674 286.286155 
L 477.246509 287.826672 
L 481.8754 289.944449 
L 489.397347 293.675678 
L 496.68785 297.207871 
L 501.316741 299.205913 
L 505.251298 300.66978 
L 508.838689 301.775226 
L 512.310357 302.611015 
L 515.666303 303.184573 
L 518.906526 303.512102 
L 522.14675 303.616034 
L 525.386974 303.500756 
L 528.74292 303.160706 
L 532.33031 302.567409 
L 536.149145 301.704116 
L 540.430869 300.499324 
L 545.522649 298.825155 
L 553.970375 295.768319 
L 561.723767 293.052012 
L 566.815547 291.502924 
L 571.212993 290.394544 
L 575.263273 289.600313 
L 579.082108 289.071578 
L 582.900943 288.767275 
L 586.719778 288.689701 
L 590.538613 288.833212 
L 594.588892 289.212296 
L 598.870616 289.840808 
L 603.615229 290.766391 
L 609.401343 292.135409 
L 619.816347 294.888104 
L 627.454017 296.789908 
L 633.008686 297.945997 
L 637.869022 298.733522 
L 642.38219 299.24561 
L 646.779637 299.526091 
L 651.177083 299.587095 
L 655.690252 299.428339 
L 660.434865 299.038735 
L 665.642367 298.385158 
L 671.775647 297.383767 
L 681.264874 295.574188 
L 691.679878 293.64922 
L 698.044603 292.702755 
L 703.599272 292.098227 
L 708.806774 291.75041 
L 714.014276 291.626605 
L 719.337501 291.728121 
L 724.89217 292.059781 
L 731.141173 292.663225 
L 739.010287 293.664038 
L 759.840296 296.431171 
L 766.552188 297.024549 
L 772.685468 297.347768 
L 778.703026 297.444933 
L 784.952029 297.319917 
L 791.663921 296.958133 
L 799.648757 296.29424 
L 816.08132 294.62481 
L 825.570546 293.813526 
L 833.208216 293.383135 
L 840.382997 293.204034 
L 847.557778 293.250246 
L 855.31117 293.528889 
L 864.684674 294.102225 
L 893.383797 296.022401 
L 901.831523 296.264084 
L 910.163527 296.278928 
L 919.074142 296.066784 
L 930.067758 295.568624 
L 957.262491 294.240221 
L 967.214607 294.045072 
L 977.051 294.078319 
L 988.044616 294.345583 
L 1007.023068 295.080991 
L 1021.951241 295.549256 
L 1033.523468 295.687137 
L 1045.211418 295.599542 
L 1059.908146 295.250292 
L 1087.797214 294.553669 
L 1101.220997 294.481759 
L 1115.686281 294.636629 
L 1164.173913 295.361331 
L 1181.069365 295.229559 
L 1228.284052 294.716951 
L 1248.419727 294.846237 
L 1291.236967 295.188052 
L 1314.844311 295.07467 
L 1350.023881 294.84809 
L 1350.023881 294.84809 
" style="fill:none;stroke:#1f77b4;stroke-linecap:square;stroke-width:1.5;"/>
   </g>
   <g id="line2d_13">
    <path clip-path="url(#p3ac2b1ed75)" d="M 198.368274 656.2 
L 198.818723 444.274051 
L 199.281612 339.422198 
L 199.744501 288.489012 
L 200.20739 263.288318 
L 200.67028 250.680729 
L 201.133169 244.480409 
L 201.480335 242.186422 
L 201.827502 241.147521 
L 202.058947 240.950249 
L 202.290391 241.054791 
L 202.637558 241.654926 
L 203.100447 243.076746 
L 203.794781 246.120993 
L 204.836281 251.888132 
L 209.928061 281.736539 
L 211.432451 288.571992 
L 212.821118 293.883712 
L 214.209785 298.318915 
L 215.598453 301.983165 
L 216.98712 304.986083 
L 218.375787 307.43023 
L 219.764454 309.406028 
L 221.153122 310.990204 
L 222.541789 312.246167 
L 224.046178 313.295798 
L 225.550568 314.072281 
L 227.17068 314.649093 
L 228.790792 314.994462 
L 230.526626 315.14096 
L 232.378182 315.072484 
L 234.345461 314.773438 
L 236.428461 314.228829 
L 238.627185 313.42495 
L 241.057352 312.291146 
L 243.718965 310.78816 
L 246.612021 308.888282 
L 249.967967 306.401133 
L 254.018247 303.103063 
L 260.730138 297.291832 
L 267.094863 291.88947 
L 271.145143 288.745717 
L 274.501089 286.413299 
L 277.509868 284.580582 
L 280.287202 283.135175 
L 282.948815 281.991355 
L 285.494705 281.130846 
L 288.040595 280.506608 
L 290.470762 280.134741 
L 292.90093 279.981812 
L 295.331098 280.044831 
L 297.876988 280.335921 
L 300.422878 280.847237 
L 303.08449 281.602722 
L 305.977547 282.658496 
L 309.102048 284.041622 
L 312.573716 285.826708 
L 316.739718 288.231445 
L 322.757276 291.996106 
L 331.436446 297.40726 
L 335.833893 299.872853 
L 339.537005 301.698782 
L 342.892951 303.109531 
L 346.017453 304.186575 
L 349.026232 304.990695 
L 351.919289 305.538054 
L 354.812345 305.859144 
L 357.705402 305.953869 
L 360.598459 305.826665 
L 363.607238 305.468399 
L 366.731739 304.867864 
L 370.087685 303.987381 
L 373.675076 302.811569 
L 377.841077 301.199775 
L 383.04858 298.925965 
L 399.018253 291.771464 
L 403.299977 290.194476 
L 407.118812 289.016789 
L 410.706203 288.137895 
L 414.177871 287.515852 
L 417.533817 287.138113 
L 420.889762 286.983262 
L 424.245708 287.048243 
L 427.717376 287.337318 
L 431.420489 287.87652 
L 435.355046 288.68172 
L 439.752493 289.817869 
L 444.959995 291.401996 
L 453.754888 294.356565 
L 461.50828 296.868865 
L 466.715782 298.324308 
L 471.228951 299.357328 
L 475.394952 300.085137 
L 479.445232 300.563938 
L 483.379789 300.803506 
L 487.314346 300.820333 
L 491.364626 300.613286 
L 495.64635 300.165667 
L 500.275241 299.450667 
L 505.598465 298.391658 
L 512.541802 296.764252 
L 527.23853 293.259827 
L 532.908921 292.177855 
L 537.884979 291.449435 
L 542.629592 290.979302 
L 547.258483 290.746573 
L 551.887374 290.738962 
L 556.631987 290.954675 
L 561.723767 291.413003 
L 567.394158 292.152041 
L 574.568939 293.326766 
L 594.357448 296.697269 
L 600.490728 297.434232 
L 606.045397 297.879905 
L 611.484344 298.09053 
L 616.923291 298.07462 
L 622.593682 297.830897 
L 628.842685 297.330921 
L 636.364632 296.491588 
L 662.517866 293.363545 
L 669.114035 292.9241 
L 675.47876 292.724464 
L 681.843485 292.751019 
L 688.555377 293.005901 
L 696.193047 293.526037 
L 706.955218 294.506351 
L 722.34628 295.887635 
L 730.562561 296.389018 
L 737.968787 296.622244 
L 745.375012 296.631682 
L 753.244127 296.413158 
L 762.501908 295.92151 
L 795.829922 293.928129 
L 804.509093 293.77554 
L 813.303985 293.847207 
L 823.140379 294.157163 
L 838.068552 294.884003 
L 854.153947 295.602437 
L 864.684674 295.845517 
L 874.752512 295.855231 
L 885.86185 295.636316 
L 902.525857 295.051456 
L 920.347087 294.492025 
L 932.382203 294.342255 
L 944.533042 294.41913 
L 959.808381 294.756645 
L 987.697449 295.39789 
L 1001.584121 295.457095 
L 1016.859461 295.288789 
L 1061.412536 294.642854 
L 1078.42371 294.740172 
L 1132.003122 295.232796 
L 1155.263298 295.045282 
L 1187.896979 294.805637 
L 1211.504322 294.888515 
L 1259.760509 295.119744 
L 1296.213025 294.949022 
L 1328.730983 294.901736 
L 1350.023881 294.977541 
L 1350.023881 294.977541 
" style="fill:none;stroke:#ff7f0e;stroke-linecap:square;stroke-width:1.5;"/>
   </g>
   <g id="line2d_14">
    <path clip-path="url(#p3ac2b1ed75)" d="M 198.278536 656.2 
L 198.703001 423.525256 
L 199.16589 301.194525 
L 199.628779 242.820509 
L 200.091668 214.02827 
L 200.554557 198.961961 
L 201.017446 190.29982 
L 201.596058 183.506932 
L 202.406114 176.961725 
L 203.679059 168.790493 
L 205.993504 155.549309 
L 208.655116 141.528429 
L 210.853839 131.039893 
L 212.705396 123.205749 
L 214.325508 117.248079 
L 215.829897 112.559387 
L 217.102842 109.277011 
L 218.260065 106.866303 
L 219.301565 105.179152 
L 220.227343 104.071612 
L 221.037399 103.409443 
L 221.847455 103.036135 
L 222.541789 102.947083 
L 223.236122 103.071537 
L 223.930456 103.409352 
L 224.740512 104.072351 
L 225.550568 105.023373 
L 226.476346 106.459961 
L 227.517847 108.516578 
L 228.675069 111.339273 
L 229.948014 115.082544 
L 231.336681 119.905308 
L 232.841071 125.96591 
L 234.461183 133.41614 
L 236.312739 143.027527 
L 238.39574 155.12076 
L 240.710185 169.969262 
L 243.371798 188.601141 
L 246.496299 212.132785 
L 250.778023 246.237188 
L 259.920083 319.498469 
L 263.276028 344.316974 
L 266.053363 363.272607 
L 268.483531 378.417719 
L 270.682254 390.800511 
L 272.765255 401.264623 
L 274.616811 409.461408 
L 276.352645 416.155986 
L 277.972757 421.510539 
L 279.361424 425.397395 
L 280.750091 428.625608 
L 282.023036 431.000938 
L 283.180259 432.673565 
L 284.22176 433.78235 
L 285.147538 434.453248 
L 285.957594 434.798349 
L 286.76765 434.91893 
L 287.577705 434.816573 
L 288.387761 434.493205 
L 289.31354 433.855931 
L 290.239318 432.936854 
L 291.280818 431.571609 
L 292.438041 429.651704 
L 293.710986 427.062653 
L 295.099653 423.686831 
L 296.604043 419.406995 
L 298.224154 414.110532 
L 300.075711 407.240826 
L 302.042989 399.065248 
L 304.241713 388.972039 
L 306.787603 376.201694 
L 309.796382 359.908701 
L 313.730939 337.261327 
L 325.071722 271.159264 
L 328.196223 254.649046 
L 330.857835 241.706205 
L 333.288003 230.964276 
L 335.486726 222.240784 
L 337.454005 215.30632 
L 339.305561 209.576764 
L 341.041395 204.937659 
L 342.545785 201.507736 
L 343.934452 198.838312 
L 345.323119 196.651854 
L 346.596064 195.075015 
L 347.753287 193.997309 
L 348.794787 193.316838 
L 349.836288 192.909579 
L 350.762066 192.775568 
L 351.687844 192.854427 
L 352.613622 193.144069 
L 353.655123 193.718736 
L 354.696623 194.552813 
L 355.853846 195.777928 
L 357.126791 197.479582 
L 358.515458 199.746025 
L 360.019848 202.665732 
L 361.639959 206.324349 
L 363.375793 210.801068 
L 365.343072 216.518641 
L 367.541795 223.639789 
L 369.971963 232.292446 
L 372.86502 243.472187 
L 376.45241 258.303183 
L 382.817135 285.805337 
L 387.908915 307.358919 
L 391.264861 320.651748 
L 394.157918 331.224322 
L 396.703808 339.689861 
L 398.902531 346.278498 
L 400.985532 351.842923 
L 402.837088 356.198687 
L 404.572922 359.753341 
L 406.193034 362.593676 
L 407.697423 364.80879 
L 409.086091 366.487026 
L 410.359036 367.713605 
L 411.631981 368.640783 
L 412.789203 369.223913 
L 413.946426 369.56057 
L 415.103649 369.652445 
L 416.260872 369.502002 
L 417.418094 369.112461 
L 418.575317 368.487777 
L 419.848262 367.53463 
L 421.236929 366.185265 
L 422.625596 364.523247 
L 424.129986 362.383797 
L 425.86582 359.498768 
L 427.717376 355.960429 
L 429.684655 351.721011 
L 431.883378 346.456836 
L 434.429268 339.760935 
L 437.438047 331.174286 
L 441.256882 319.536266 
L 454.102054 279.758736 
L 457.110833 271.44991 
L 459.772446 264.720462 
L 462.202613 259.173359 
L 464.401337 254.702179 
L 466.368615 251.177482 
L 468.220172 248.293349 
L 469.956006 245.985841 
L 471.576117 244.187578 
L 473.080507 242.83043 
L 474.584896 241.777469 
L 475.973564 241.076635 
L 477.362231 240.635842 
L 478.635176 240.458988 
L 479.908121 240.497419 
L 481.181066 240.748315 
L 482.569733 241.260065 
L 483.9584 242.014611 
L 485.46279 243.098124 
L 487.082902 244.563268 
L 488.818736 246.460576 
L 490.670292 248.836268 
L 492.637571 251.729747 
L 494.836294 255.372525 
L 497.266462 259.84077 
L 500.043796 265.423025 
L 503.399742 272.684609 
L 508.260077 283.788497 
L 515.782025 300.956605 
L 519.369416 308.56554 
L 522.378195 314.432182 
L 525.039807 319.132715 
L 527.354252 322.791214 
L 529.552975 325.860559 
L 531.520254 328.248519 
L 533.37181 330.172099 
L 535.107645 331.680849 
L 536.843479 332.8982 
L 538.46359 333.768007 
L 540.083702 334.379107 
L 541.588092 334.71507 
L 543.092481 334.829565 
L 544.596871 334.725208 
L 546.10126 334.405773 
L 547.721372 333.826867 
L 549.341484 333.011706 
L 551.077318 331.886254 
L 552.928874 330.412267 
L 554.896153 328.555755 
L 557.094876 326.15461 
L 559.409322 323.292591 
L 562.070934 319.634145 
L 565.195435 314.932195 
L 569.01427 308.759821 
L 583.016665 285.720255 
L 586.141166 281.220097 
L 588.918501 277.60053 
L 591.464391 274.648485 
L 593.778836 272.30102 
L 595.977559 270.389295 
L 598.06056 268.878774 
L 600.027839 267.729814 
L 601.879395 266.899943 
L 603.730952 266.316488 
L 605.466786 265.993658 
L 607.20262 265.886435 
L 608.938454 265.991958 
L 610.79001 266.334076 
L 612.641566 266.906195 
L 614.608845 267.756154 
L 616.691846 268.914093 
L 618.890569 270.405257 
L 621.205015 272.24812 
L 623.750905 274.563623 
L 626.643961 277.507838 
L 629.999907 281.253214 
L 634.397354 286.517388 
L 645.622414 300.110812 
L 649.209804 304.015016 
L 652.218583 306.976458 
L 654.995918 309.404845 
L 657.541808 311.340783 
L 659.971976 312.907765 
L 662.286421 314.130293 
L 664.485144 315.038702 
L 666.568145 315.66697 
L 668.651146 316.067143 
L 670.734147 316.239663 
L 672.817148 316.187332 
L 674.900149 315.915241 
L 677.098872 315.397693 
L 679.297595 314.654467 
L 681.61204 313.643115 
L 684.15793 312.280896 
L 686.935265 310.528109 
L 689.944044 308.360298 
L 693.531434 305.485043 
L 698.160325 301.461602 
L 710.311164 290.746549 
L 714.014276 287.854522 
L 717.2545 285.596778 
L 720.147557 283.837986 
L 722.924891 282.405312 
L 725.586504 281.286015 
L 728.132394 280.45957 
L 730.562561 279.899975 
L 732.992729 279.567059 
L 735.422897 279.460197 
L 737.853064 279.57558 
L 740.398954 279.927311 
L 742.944844 280.504114 
L 745.606457 281.332012 
L 748.499513 282.46954 
L 751.624015 283.942587 
L 755.211405 285.893635 
L 759.493129 288.492436 
L 766.205021 292.870286 
L 773.379802 297.475697 
L 777.661526 299.964568 
L 781.364639 301.863534 
L 784.720584 303.333636 
L 787.845086 304.458833 
L 790.853865 305.301965 
L 793.746922 305.879427 
L 796.524256 306.213721 
L 799.301591 306.332015 
L 802.194647 306.229494 
L 805.087704 305.905047 
L 808.096483 305.345889 
L 811.336707 304.512158 
L 814.808375 303.384098 
L 818.742932 301.86241 
L 823.487545 299.774428 
L 831.472382 295.965684 
L 838.531441 292.699787 
L 843.160332 290.800418 
L 847.094889 289.416032 
L 850.798002 288.347384 
L 854.26967 287.576392 
L 857.625616 287.057709 
L 860.981561 286.768633 
L 864.337507 286.709492 
L 867.693453 286.87443 
L 871.165121 287.268381 
L 874.868234 287.91769 
L 878.918514 288.864107 
L 883.431682 290.153731 
L 889.217796 292.055461 
L 905.418914 297.524906 
L 910.279249 298.844878 
L 914.560973 299.78045 
L 918.611253 300.438953 
L 922.54581 300.851111 
L 926.364645 301.03022 
L 930.299202 300.989045 
L 934.349482 300.718131 
L 938.631206 300.201316 
L 943.260097 299.413058 
L 948.699043 298.249541 
L 956.220991 296.387688 
L 968.256107 293.41033 
L 974.042221 292.229646 
L 979.018278 291.437152 
L 983.647169 290.919437 
L 988.160338 290.635096 
L 992.673507 290.572777 
L 997.302397 290.732505 
L 1002.162733 291.12407 
L 1007.485957 291.777709 
L 1013.850682 292.791071 
L 1024.612853 294.775762 
L 1033.870635 296.387655 
L 1040.23536 297.270675 
L 1045.905751 297.832202 
L 1051.228976 298.136846 
L 1056.5522 298.216224 
L 1061.991147 298.071157 
L 1067.777261 297.690655 
L 1074.37343 297.02689 
L 1083.284045 295.885533 
L 1099.137996 293.834208 
L 1106.312777 293.15849 
L 1112.677502 292.779124 
L 1118.810783 292.632882 
L 1125.059785 292.705687 
L 1131.771677 293.01014 
L 1139.525069 293.592106 
L 1151.560185 294.754114 
L 1164.289635 295.916718 
L 1172.390194 296.430508 
L 1179.680697 296.674037 
L 1186.971201 296.693184 
L 1194.608871 296.48721 
L 1203.519485 296.014801 
L 1218.910548 294.924291 
L 1231.177108 294.16217 
L 1240.203446 293.824576 
L 1248.651171 293.730727 
L 1257.446064 293.85959 
L 1267.629624 294.240936 
L 1304.429306 295.842019 
L 1314.381422 295.902705 
L 1324.912148 295.738312 
L 1338.683099 295.280001 
L 1350.023881 294.844761 
L 1350.023881 294.844761 
" style="fill:none;stroke:#2ca02c;stroke-linecap:square;stroke-width:1.5;"/>
   </g>
   <g id="line2d_15">
    <path clip-path="url(#p3ac2b1ed75)" d="M 198.393763 -1 
L 198.818723 187.016887 
L 199.281612 283.375846 
L 199.628779 319.139051 
L 199.975946 338.632339 
L 200.323113 348.995341 
L 200.67028 354.226944 
L 201.017446 356.569063 
L 201.248891 357.172696 
L 201.480335 357.288113 
L 201.71178 357.069363 
L 202.058947 356.335739 
L 202.75328 354.111184 
L 204.604837 346.970959 
L 207.035004 338.002653 
L 209.118005 331.172874 
L 211.316728 324.749314 
L 213.746896 318.37392 
L 216.524231 311.735041 
L 219.880177 304.312092 
L 223.699012 296.416183 
L 227.402124 289.261375 
L 230.642348 283.460525 
L 233.535405 278.714673 
L 236.197017 274.768595 
L 238.627185 271.560287 
L 240.825908 269.011034 
L 242.908909 266.925593 
L 244.876187 265.26393 
L 246.727744 263.981889 
L 248.463578 263.033234 
L 250.199412 262.332393 
L 251.935246 261.880197 
L 253.555358 261.681658 
L 255.175469 261.696726 
L 256.795581 261.921924 
L 258.531415 262.390975 
L 260.267249 263.088398 
L 262.118806 264.073964 
L 264.086084 265.380558 
L 266.169085 267.036466 
L 268.483531 269.177543 
L 271.029421 271.858714 
L 273.806755 275.115829 
L 277.162701 279.41713 
L 281.560147 285.454479 
L 292.438041 300.556545 
L 295.909709 304.914956 
L 298.918488 308.347613 
L 301.5801 311.062186 
L 304.010268 313.242563 
L 306.324714 315.031568 
L 308.523437 316.45574 
L 310.606438 317.547406 
L 312.689438 318.382023 
L 314.656717 318.93106 
L 316.623996 319.247006 
L 318.591274 319.331376 
L 320.558553 319.187808 
L 322.525832 318.821991 
L 324.608832 318.200939 
L 326.691833 317.350645 
L 328.890556 316.219351 
L 331.320724 314.711366 
L 333.982336 312.781381 
L 336.875393 310.399289 
L 340.231339 307.337334 
L 344.513063 303.106258 
L 358.052569 289.481947 
L 361.524237 286.427551 
L 364.533016 284.059278 
L 367.310351 282.14309 
L 369.971963 280.577041 
L 372.402131 279.395334 
L 374.832298 278.462091 
L 377.146744 277.811058 
L 379.461189 277.395244 
L 381.775635 277.214712 
L 384.09008 277.266505 
L 386.404525 277.544745 
L 388.834693 278.071107 
L 391.264861 278.824464 
L 393.926473 279.891001 
L 396.703808 281.247051 
L 399.828309 283.030319 
L 403.299977 285.273045 
L 407.697423 288.396563 
L 423.782819 300.099835 
L 427.37021 302.282944 
L 430.610433 303.999399 
L 433.619212 305.343867 
L 436.512269 306.388912 
L 439.289604 307.150307 
L 441.951216 307.650371 
L 444.612828 307.922943 
L 447.27444 307.969263 
L 449.936053 307.794371 
L 452.713387 307.385436 
L 455.606444 306.728264 
L 458.615223 305.815577 
L 461.855447 304.601478 
L 465.558559 302.968163 
L 469.956006 300.771753 
L 476.552175 297.190828 
L 484.768456 292.77434 
L 489.281625 290.601799 
L 493.10046 288.998669 
L 496.572128 287.771437 
L 499.928074 286.820777 
L 503.052575 286.1601 
L 506.177077 285.725003 
L 509.301578 285.518817 
L 512.426079 285.53944 
L 515.550581 285.77955 
L 518.790804 286.247281 
L 522.262472 286.97444 
L 526.081307 288.010581 
L 530.363031 289.412162 
L 535.686256 291.403422 
L 553.044597 298.088367 
L 557.442043 299.437839 
L 561.492322 300.451277 
L 565.311157 301.176388 
L 569.01427 301.649465 
L 572.601661 301.884624 
L 576.189051 301.900527 
L 579.892164 301.694535 
L 583.710999 301.261049 
L 587.877 300.559468 
L 592.505891 299.546004 
L 598.06056 298.090622 
L 608.012676 295.195897 
L 615.534623 293.121206 
L 620.857848 291.876884 
L 625.602461 290.994177 
L 629.999907 290.4009 
L 634.281631 290.048964 
L 638.447633 289.92632 
L 642.729357 290.022304 
L 647.242526 290.352273 
L 651.987139 290.923969 
L 657.426086 291.810308 
L 664.369422 293.185019 
L 681.959207 296.774733 
L 687.745321 297.6646 
L 692.952823 298.245201 
L 697.928881 298.579019 
L 702.904938 298.687385 
L 707.996718 298.56957 
L 713.319943 298.219182 
L 719.221779 297.601783 
L 726.512282 296.600727 
L 749.309569 293.296084 
L 755.674294 292.70496 
L 761.57613 292.381223 
L 767.362244 292.288018 
L 773.26408 292.416478 
L 779.628804 292.781073 
L 787.03503 293.436166 
L 798.491535 294.707124 
L 810.642373 295.989522 
L 818.395765 296.579752 
L 825.339102 296.88534 
L 832.050994 296.959664 
L 838.99433 296.814354 
L 846.747722 296.423877 
L 856.81556 295.675393 
L 877.529846 294.082211 
L 886.093294 293.689869 
L 894.078131 293.549065 
L 902.17869 293.633173 
L 911.205027 293.958276 
L 923.58731 294.650753 
L 942.102874 295.672214 
L 951.939267 295.974831 
L 961.197049 296.036598 
L 970.917719 295.875991 
L 983.068558 295.437934 
L 1010.610459 294.369553 
L 1021.604074 294.22219 
L 1032.713413 294.299856 
L 1046.137196 294.629619 
L 1077.613654 295.485997 
L 1090.343104 295.544591 
L 1104.229776 295.376133 
L 1152.138797 294.578788 
L 1167.992748 294.701751 
L 1218.794825 295.284773 
L 1238.583334 295.126564 
L 1277.350295 294.771225 
L 1298.99036 294.857445 
L 1348.403769 295.144577 
L 1350.023881 295.1412 
L 1350.023881 295.1412 
" style="fill:none;stroke:#d62728;stroke-linecap:square;stroke-width:1.5;"/>
   </g>
   <g id="line2d_16">
    <path clip-path="url(#p3ac2b1ed75)" d="M 196.62 286.360031 
L 196.967167 250.787398 
L 197.314334 237.263232 
L 197.545778 235.034464 
L 197.6615 235.18269 
L 197.892945 237.149386 
L 198.355834 244.696136 
L 199.744501 269.471477 
L 200.438835 277.892411 
L 201.133169 283.542423 
L 201.71178 286.514881 
L 202.174669 287.980438 
L 202.637558 288.789283 
L 202.984725 289.040136 
L 203.331892 289.037541 
L 203.679059 288.822325 
L 204.141948 288.266489 
L 204.836281 287.002442 
L 205.877782 284.517221 
L 209.465172 275.456472 
L 210.622395 273.231216 
L 211.663895 271.647363 
L 212.705396 270.462811 
L 213.631174 269.732198 
L 214.556952 269.285913 
L 215.48273 269.102045 
L 216.408508 269.157221 
L 217.334287 269.427944 
L 218.375787 269.961865 
L 219.53301 270.804343 
L 220.921677 272.109956 
L 222.541789 273.966631 
L 224.509067 276.597325 
L 226.939235 280.258136 
L 230.179459 285.578298 
L 242.098853 305.535834 
L 245.107632 309.970298 
L 247.769244 313.522334 
L 250.199412 316.414167 
L 252.513857 318.824432 
L 254.596858 320.686679 
L 256.564137 322.16551 
L 258.531415 323.363539 
L 260.382972 324.229333 
L 262.118806 324.808069 
L 263.85464 325.160931 
L 265.590474 325.289165 
L 267.326308 325.195626 
L 269.062142 324.88473 
L 270.913698 324.320227 
L 272.765255 323.524151 
L 274.732533 322.436608 
L 276.815534 321.029924 
L 279.12998 319.183081 
L 281.560147 316.954649 
L 284.337482 314.093892 
L 287.577705 310.412647 
L 291.627985 305.442524 
L 305.746102 287.78955 
L 308.986326 284.26023 
L 311.879383 281.427104 
L 314.540995 279.129133 
L 316.971162 277.31677 
L 319.285608 275.86262 
L 321.484331 274.73876 
L 323.567332 273.912725 
L 325.650333 273.322929 
L 327.733334 272.970743 
L 329.816335 272.855033 
L 331.899336 272.972224 
L 333.982336 273.316389 
L 336.18106 273.91685 
L 338.379783 274.748915 
L 340.694228 275.858911 
L 343.240118 277.334089 
L 346.017453 279.213285 
L 349.141954 281.612601 
L 352.729344 284.658213 
L 357.58968 289.101054 
L 368.004684 298.697626 
L 371.823519 301.866118 
L 375.063743 304.279944 
L 378.072522 306.246508 
L 380.849856 307.795763 
L 383.395746 308.972295 
L 385.941636 309.902823 
L 388.371804 310.553829 
L 390.801972 310.96927 
L 393.116417 311.145581 
L 395.546585 311.103212 
L 397.976753 310.833826 
L 400.522643 310.318135 
L 403.068533 309.577262 
L 405.845867 308.532325 
L 408.854646 307.150999 
L 412.09487 305.415477 
L 415.913705 303.108783 
L 420.889762 299.822367 
L 433.156323 291.608871 
L 437.206603 289.23206 
L 440.678271 287.443973 
L 443.918494 286.023664 
L 446.927274 284.945036 
L 449.82033 284.142042 
L 452.597665 283.596296 
L 455.374999 283.275325 
L 458.152334 283.179014 
L 460.929668 283.303103 
L 463.822725 283.657841 
L 466.831504 284.256392 
L 469.956006 285.104783 
L 473.427674 286.286155 
L 477.246509 287.826672 
L 481.8754 289.944449 
L 489.397347 293.675678 
L 496.68785 297.207871 
L 501.316741 299.205913 
L 505.251298 300.66978 
L 508.838689 301.775226 
L 512.310357 302.611015 
L 515.666303 303.184573 
L 518.906526 303.512102 
L 522.14675 303.616034 
L 525.386974 303.500756 
L 528.74292 303.160706 
L 532.33031 302.567409 
L 536.149145 301.704116 
L 540.430869 300.499324 
L 545.522649 298.825155 
L 553.970375 295.768319 
L 561.723767 293.052012 
L 566.815547 291.502924 
L 571.212993 290.394544 
L 575.263273 289.600313 
L 579.082108 289.071578 
L 582.900943 288.767275 
L 586.719778 288.689701 
L 590.538613 288.833212 
L 594.588892 289.212296 
L 598.870616 289.840808 
L 603.615229 290.766391 
L 609.401343 292.135409 
L 619.816347 294.888104 
L 627.454017 296.789908 
L 633.008686 297.945997 
L 637.869022 298.733522 
L 642.38219 299.24561 
L 646.779637 299.526091 
L 651.177083 299.587095 
L 655.690252 299.428339 
L 660.434865 299.038735 
L 665.642367 298.385158 
L 671.775647 297.383767 
L 681.264874 295.574188 
L 691.679878 293.64922 
L 698.044603 292.702755 
L 703.599272 292.098227 
L 708.806774 291.75041 
L 714.014276 291.626605 
L 719.337501 291.728121 
L 724.89217 292.059781 
L 731.141173 292.663225 
L 739.010287 293.664038 
L 759.840296 296.431171 
L 766.552188 297.024549 
L 772.685468 297.347768 
L 778.703026 297.444933 
L 784.952029 297.319917 
L 791.663921 296.958133 
L 799.648757 296.29424 
L 816.08132 294.62481 
L 825.570546 293.813526 
L 833.208216 293.383135 
L 840.382997 293.204034 
L 847.557778 293.250246 
L 855.31117 293.528889 
L 864.684674 294.102225 
L 893.383797 296.022401 
L 901.831523 296.264084 
L 910.163527 296.278928 
L 919.074142 296.066784 
L 930.067758 295.568624 
L 957.262491 294.240221 
L 967.214607 294.045072 
L 977.051 294.078319 
L 988.044616 294.345583 
L 1007.023068 295.080991 
L 1021.951241 295.549256 
L 1033.523468 295.687137 
L 1045.211418 295.599542 
L 1059.908146 295.250292 
L 1087.797214 294.553669 
L 1101.220997 294.481759 
L 1115.686281 294.636629 
L 1164.173913 295.361331 
L 1181.069365 295.229559 
L 1228.284052 294.716951 
L 1248.419727 294.846237 
L 1291.236967 295.188052 
L 1314.844311 295.07467 
L 1350.023881 294.84809 
L 1350.023881 294.84809 
" style="fill:none;stroke:#9467bd;stroke-linecap:square;stroke-width:1.5;"/>
   </g>
   <g id="line2d_17">
    <path clip-path="url(#p3ac2b1ed75)" d="M 196.62 295.048057 
L 196.851445 295.696129 
L 197.198611 297.819404 
L 197.892945 304.157335 
L 199.860224 325.549598 
L 202.984725 358.618212 
L 205.646337 384.494739 
L 208.076505 406.011453 
L 210.275228 423.578448 
L 212.358229 438.433471 
L 214.209785 450.096799 
L 215.945619 459.658518 
L 217.565731 467.347504 
L 219.070121 473.395812 
L 220.458788 478.032159 
L 221.616011 481.195428 
L 222.773233 483.71928 
L 223.814734 485.443594 
L 224.740512 486.541942 
L 225.550568 487.168876 
L 226.244902 487.459254 
L 226.939235 487.522945 
L 227.633569 487.361453 
L 228.327902 486.976523 
L 229.137958 486.247709 
L 229.948014 485.221071 
L 230.873792 483.688257 
L 231.915293 481.513498 
L 233.072516 478.550338 
L 234.345461 474.644828 
L 235.734128 469.639546 
L 237.238517 463.378531 
L 238.974351 455.130645 
L 240.825908 445.208856 
L 242.908909 432.785655 
L 245.223354 417.600165 
L 247.884966 398.62583 
L 251.12519 373.851728 
L 255.754081 336.549614 
L 263.507473 274.040531 
L 266.979141 248.003116 
L 269.872198 227.973606 
L 272.418088 211.908787 
L 274.616811 199.383854 
L 276.699812 188.785641 
L 278.551368 180.471256 
L 280.287202 173.668669 
L 281.907314 168.215941 
L 283.411704 163.946437 
L 284.800371 160.694641 
L 286.073316 158.300658 
L 287.230539 156.613567 
L 288.272039 155.493812 
L 289.197817 154.814799 
L 290.007873 154.463863 
L 290.817929 154.33863 
L 291.627985 154.437512 
L 292.438041 154.758582 
L 293.363819 155.394662 
L 294.289597 156.314063 
L 295.331098 157.681466 
L 296.48832 159.605969 
L 297.761265 162.202704 
L 299.149933 165.589973 
L 300.654322 169.885709 
L 302.274434 175.203208 
L 304.12599 182.101674 
L 306.093269 190.312972 
L 308.291992 200.451873 
L 310.837882 213.281889 
L 313.846661 229.653306 
L 317.781218 252.413044 
L 329.122001 318.861368 
L 332.246502 335.462521 
L 334.908115 348.47828 
L 337.338282 359.282113 
L 339.537005 368.057104 
L 341.504284 375.033582 
L 343.35584 380.798878 
L 345.091674 385.467934 
L 346.596064 388.920901 
L 347.984731 391.609119 
L 349.373399 393.811935 
L 350.646344 395.40159 
L 351.803566 396.48912 
L 352.845067 397.176931 
L 353.886567 397.590106 
L 354.812345 397.728177 
L 355.738123 397.652253 
L 356.663902 397.364424 
L 357.705402 396.790465 
L 358.746903 395.955697 
L 359.904125 394.728192 
L 361.17707 393.021971 
L 362.565738 390.748278 
L 364.070127 387.81812 
L 365.690239 384.14534 
L 367.426073 379.650248 
L 369.393352 373.90809 
L 371.592075 366.755098 
L 374.022242 358.062427 
L 376.915299 346.829385 
L 380.50269 331.925518 
L 386.751692 304.786579 
L 391.959195 282.615057 
L 395.31514 269.249611 
L 398.208197 258.617907 
L 400.754087 250.103912 
L 402.95281 243.476665 
L 405.035811 237.878798 
L 406.887368 233.496107 
L 408.623202 229.918765 
L 410.243313 227.059598 
L 411.747703 224.829097 
L 413.13637 223.138502 
L 414.409315 221.902178 
L 415.68226 220.966791 
L 416.839483 220.377543 
L 417.996706 220.036053 
L 419.153928 219.940632 
L 420.311151 220.088811 
L 421.468374 220.477366 
L 422.625596 221.102329 
L 423.898541 222.057225 
L 425.171486 223.285282 
L 426.560154 224.926874 
L 428.064543 227.047276 
L 429.684655 229.709744 
L 431.536211 233.204782 
L 433.50349 237.406389 
L 435.702213 242.638522 
L 438.248103 249.310968 
L 441.14116 257.547267 
L 444.844273 268.820554 
L 452.481943 293.051502 
L 456.879389 306.533222 
L 460.119612 315.79587 
L 462.896947 323.097628 
L 465.327115 328.904201 
L 467.525838 333.628167 
L 469.608839 337.59782 
L 471.576117 340.866184 
L 473.311951 343.344553 
L 474.932063 345.303944 
L 476.552175 346.914578 
L 478.056565 348.093758 
L 479.445232 348.909995 
L 480.833899 349.464589 
L 482.106844 349.743919 
L 483.379789 349.805816 
L 484.652734 349.652732 
L 485.925679 349.287933 
L 487.314346 348.653289 
L 488.703014 347.777812 
L 490.207403 346.566124 
L 491.827515 344.966973 
L 493.563349 342.931587 
L 495.414905 340.415881 
L 497.497906 337.193736 
L 499.812352 333.176259 
L 502.358242 328.297163 
L 505.367021 322.02668 
L 509.185856 313.5089 
L 522.609639 283.047514 
L 525.734141 276.785348 
L 528.395753 271.929715 
L 530.82592 267.945268 
L 533.024644 264.749732 
L 535.107645 262.108358 
L 537.074923 259.976957 
L 538.926479 258.305301 
L 540.662314 257.039888 
L 542.282425 256.126208 
L 543.902537 255.472455 
L 545.406927 255.098197 
L 546.911316 254.946866 
L 548.415706 255.016023 
L 549.920095 255.302063 
L 551.540207 255.847204 
L 553.160319 256.63105 
L 554.896153 257.725851 
L 556.747709 259.170641 
L 558.714988 261.000275 
L 560.797989 263.243368 
L 563.112434 266.068989 
L 565.658324 269.531163 
L 568.667103 274.017038 
L 572.370216 279.96952 
L 578.503496 290.336004 
L 584.28961 299.952201 
L 587.877 305.495599 
L 590.885779 309.755093 
L 593.547392 313.15621 
L 595.977559 315.917237 
L 598.292005 318.211446 
L 600.375006 319.977763 
L 602.342284 321.374333 
L 604.309563 322.49891 
L 606.161119 323.304124 
L 608.012676 323.8615 
L 609.74851 324.158804 
L 611.484344 324.239668 
L 613.220178 324.107156 
L 615.071734 323.735788 
L 616.923291 323.134186 
L 618.890569 322.252925 
L 620.97357 321.062183 
L 623.172293 319.537139 
L 625.486739 317.659844 
L 628.032629 315.308411 
L 630.925685 312.32646 
L 634.397354 308.406817 
L 639.026244 302.807841 
L 649.209804 290.388408 
L 652.797195 286.417029 
L 655.921696 283.280209 
L 658.699031 280.798559 
L 661.244921 278.811372 
L 663.675088 277.194116 
L 665.989534 275.923164 
L 668.188257 274.968851 
L 670.271258 274.297671 
L 672.354259 273.855592 
L 674.43726 273.642588 
L 676.52026 273.656248 
L 678.603261 273.891849 
L 680.801984 274.373617 
L 683.000708 275.084222 
L 685.315153 276.064989 
L 687.745321 277.332334 
L 690.406933 278.971875 
L 693.415712 281.099409 
L 696.88738 283.846821 
L 701.169104 287.539108 
L 715.750111 300.366096 
L 719.221779 302.992626 
L 722.34628 305.086685 
L 725.239337 306.760364 
L 727.900949 308.051416 
L 730.446839 309.04821 
L 732.992729 309.802253 
L 735.422897 310.290273 
L 737.853064 310.550294 
L 740.283232 310.584004 
L 742.7134 310.396253 
L 745.25929 309.970643 
L 747.920902 309.28855 
L 750.698237 308.337426 
L 753.707016 307.058888 
L 756.947239 305.432884 
L 760.650352 303.319734 
L 765.394965 300.336667 
L 779.975971 290.976994 
L 783.910529 288.829193 
L 787.382197 287.187578 
L 790.506698 285.947562 
L 793.515477 284.987667 
L 796.408534 284.294745 
L 799.301591 283.835065 
L 802.078925 283.615729 
L 804.85626 283.612044 
L 807.749316 283.831309 
L 810.758096 284.289347 
L 813.882597 284.995427 
L 817.238543 285.988633 
L 820.941655 287.326033 
L 825.223379 289.120712 
L 830.893771 291.760615 
L 843.044609 297.485549 
L 847.557778 299.325694 
L 851.492335 300.696868 
L 855.079726 301.719905 
L 858.551394 302.480243 
L 861.90734 302.986813 
L 865.147563 303.25674 
L 868.503509 303.309278 
L 871.859455 303.136852 
L 875.331123 302.73447 
L 879.034236 302.075696 
L 883.084515 301.118747 
L 887.597684 299.817659 
L 893.383797 297.902484 
L 909.353471 292.478742 
L 914.213806 291.145334 
L 918.49553 290.197849 
L 922.54581 289.528504 
L 926.480367 289.106601 
L 930.299202 288.919094 
L 934.233759 288.952977 
L 938.284039 289.218051 
L 942.450041 289.713962 
L 947.078931 290.494682 
L 952.402156 291.627499 
L 959.692659 293.430064 
L 972.537831 296.624392 
L 978.208223 297.78089 
L 983.18428 298.572766 
L 987.813171 299.088249 
L 992.32634 299.369056 
L 996.839508 299.426728 
L 1001.468399 299.261364 
L 1006.328735 298.863285 
L 1011.651959 298.202269 
L 1018.016684 297.180436 
L 1029.0103 295.141065 
L 1038.036637 293.567137 
L 1044.401362 292.683383 
L 1049.956031 292.132185 
L 1055.279255 291.82536 
L 1060.60248 291.744958 
L 1066.041427 291.890181 
L 1071.82754 292.2721 
L 1078.42371 292.93882 
L 1087.334325 294.085749 
L 1103.188276 296.148022 
L 1110.363057 296.8277 
L 1116.727782 297.209534 
L 1122.861062 297.357049 
L 1129.110065 297.284376 
L 1135.821957 296.978823 
L 1143.575349 296.394246 
L 1155.494743 295.238076 
L 1168.339915 294.057518 
L 1176.440474 293.540664 
L 1183.730977 293.295437 
L 1191.02148 293.275746 
L 1198.65915 293.482372 
L 1207.569765 293.956878 
L 1222.845105 295.044609 
L 1235.111666 295.813441 
L 1244.138003 296.156113 
L 1252.585729 296.253867 
L 1261.380621 296.127568 
L 1271.564181 295.74687 
L 1308.71103 294.127745 
L 1318.547423 294.071001 
L 1329.07815 294.238282 
L 1342.8491 294.700311 
L 1350.023881 294.98087 
L 1350.023881 294.98087 
" style="fill:none;stroke:#8c564b;stroke-linecap:square;stroke-width:1.5;"/>
   </g>
   <g id="line2d_18">
    <path clip-path="url(#p3ac2b1ed75)" d="M 196.62 294.988944 
L 1350.023881 294.988944 
L 1350.023881 294.988944 
" style="fill:none;stroke:#e377c2;stroke-linecap:square;stroke-width:1.5;"/>
   </g>
   <g id="patch_3">
    <path d="M 196.62 560.635833 
L 196.62 41.1775 
" style="fill:none;stroke:#000000;stroke-linecap:square;stroke-linejoin:miter;stroke-width:0.8;"/>
   </g>
   <g id="patch_4">
    <path d="M 1350 560.635833 
L 1350 41.1775 
" style="fill:none;stroke:#000000;stroke-linecap:square;stroke-linejoin:miter;stroke-width:0.8;"/>
   </g>
   <g id="patch_5">
    <path d="M 196.62 560.635833 
L 1350 560.635833 
" style="fill:none;stroke:#000000;stroke-linecap:square;stroke-linejoin:miter;stroke-width:0.8;"/>
   </g>
   <g id="patch_6">
    <path d="M 196.62 41.1775 
L 1350 41.1775 
" style="fill:none;stroke:#000000;stroke-linecap:square;stroke-linejoin:miter;stroke-width:0.8;"/>
   </g>
   <g id="legend_1">
    <g id="patch_7">
     <path d="M 1244.2925 218.3725 
L 1338.8 218.3725 
Q 1342 218.3725 1342 215.1725 
L 1342 52.3775 
Q 1342 49.1775 1338.8 49.1775 
L 1244.2925 49.1775 
Q 1241.0925 49.1775 1241.0925 52.3775 
L 1241.0925 215.1725 
Q 1241.0925 218.3725 1244.2925 218.3725 
z
" style="fill:#ffffff;opacity:0.8;stroke:#cccccc;stroke-linejoin:miter;"/>
    </g>
    <g id="line2d_19">
     <path d="M 1247.4925 62.135 
L 1279.4925 62.135 
" style="fill:none;stroke:#1f77b4;stroke-linecap:square;stroke-width:1.5;"/>
    </g>
    <g id="line2d_20"/>
    <g id="text_16">
     <!-- v(R1) -->
     <defs>
      <path d="M 2.984375 54.6875 
L 12.5 54.6875 
L 29.59375 8.796875 
L 46.6875 54.6875 
L 56.203125 54.6875 
L 35.6875 0 
L 23.484375 0 
z
" id="DejaVuSans-118"/>
      <path d="M 31 75.875 
Q 24.46875 64.65625 21.28125 53.65625 
Q 18.109375 42.671875 18.109375 31.390625 
Q 18.109375 20.125 21.3125 9.0625 
Q 24.515625 -2 31 -13.1875 
L 23.1875 -13.1875 
Q 15.875 -1.703125 12.234375 9.375 
Q 8.59375 20.453125 8.59375 31.390625 
Q 8.59375 42.28125 12.203125 53.3125 
Q 15.828125 64.359375 23.1875 75.875 
z
" id="DejaVuSans-40"/>
      <path d="M 44.390625 34.1875 
Q 47.5625 33.109375 50.5625 29.59375 
Q 53.5625 26.078125 56.59375 19.921875 
L 66.609375 0 
L 56 0 
L 46.6875 18.703125 
Q 43.0625 26.03125 39.671875 28.421875 
Q 36.28125 30.8125 30.421875 30.8125 
L 19.671875 30.8125 
L 19.671875 0 
L 9.8125 0 
L 9.8125 72.90625 
L 32.078125 72.90625 
Q 44.578125 72.90625 50.734375 67.671875 
Q 56.890625 62.453125 56.890625 51.90625 
Q 56.890625 45.015625 53.6875 40.46875 
Q 50.484375 35.9375 44.390625 34.1875 
z
M 19.671875 64.796875 
L 19.671875 38.921875 
L 32.078125 38.921875 
Q 39.203125 38.921875 42.84375 42.21875 
Q 46.484375 45.515625 46.484375 51.90625 
Q 46.484375 58.296875 42.84375 61.546875 
Q 39.203125 64.796875 32.078125 64.796875 
z
" id="DejaVuSans-82"/>
      <path d="M 8.015625 75.875 
L 15.828125 75.875 
Q 23.140625 64.359375 26.78125 53.3125 
Q 30.421875 42.28125 30.421875 31.390625 
Q 30.421875 20.453125 26.78125 9.375 
Q 23.140625 -1.703125 15.828125 -13.1875 
L 8.015625 -13.1875 
Q 14.5 -2 17.703125 9.0625 
Q 20.90625 20.125 20.90625 31.390625 
Q 20.90625 42.671875 17.703125 53.65625 
Q 14.5 64.65625 8.015625 75.875 
z
" id="DejaVuSans-41"/>
     </defs>
     <g transform="translate(1292.2925 67.735)scale(0.16 -0.16)">
      <use xlink:href="#DejaVuSans-118"/>
      <use x="59.179688" xlink:href="#DejaVuSans-40"/>
      <use x="98.193359" xlink:href="#DejaVuSans-82"/>
      <use x="167.675781" xlink:href="#DejaVuSans-49"/>
      <use x="231.298828" xlink:href="#DejaVuSans-41"/>
     </g>
    </g>
    <g id="line2d_21">
     <path d="M 1247.4925 85.62 
L 1279.4925 85.62 
" style="fill:none;stroke:#ff7f0e;stroke-linecap:square;stroke-width:1.5;"/>
    </g>
    <g id="line2d_22"/>
    <g id="text_17">
     <!-- v(L1) -->
     <defs>
      <path d="M 9.8125 72.90625 
L 19.671875 72.90625 
L 19.671875 8.296875 
L 55.171875 8.296875 
L 55.171875 0 
L 9.8125 0 
z
" id="DejaVuSans-76"/>
     </defs>
     <g transform="translate(1292.2925 91.22)scale(0.16 -0.16)">
      <use xlink:href="#DejaVuSans-118"/>
      <use x="59.179688" xlink:href="#DejaVuSans-40"/>
      <use x="98.193359" xlink:href="#DejaVuSans-76"/>
      <use x="153.90625" xlink:href="#DejaVuSans-49"/>
      <use x="217.529297" xlink:href="#DejaVuSans-41"/>
     </g>
    </g>
    <g id="line2d_23">
     <path d="M 1247.4925 109.105 
L 1279.4925 109.105 
" style="fill:none;stroke:#2ca02c;stroke-linecap:square;stroke-width:1.5;"/>
    </g>
    <g id="line2d_24"/>
    <g id="text_18">
     <!-- v(L2) -->
     <g transform="translate(1292.2925 114.705)scale(0.16 -0.16)">
      <use xlink:href="#DejaVuSans-118"/>
      <use x="59.179688" xlink:href="#DejaVuSans-40"/>
      <use x="98.193359" xlink:href="#DejaVuSans-76"/>
      <use x="153.90625" xlink:href="#DejaVuSans-50"/>
      <use x="217.529297" xlink:href="#DejaVuSans-41"/>
     </g>
    </g>
    <g id="line2d_25">
     <path d="M 1247.4925 132.59 
L 1279.4925 132.59 
" style="fill:none;stroke:#d62728;stroke-linecap:square;stroke-width:1.5;"/>
    </g>
    <g id="line2d_26"/>
    <g id="text_19">
     <!-- v(C1) -->
     <defs>
      <path d="M 64.40625 67.28125 
L 64.40625 56.890625 
Q 59.421875 61.53125 53.78125 63.8125 
Q 48.140625 66.109375 41.796875 66.109375 
Q 29.296875 66.109375 22.65625 58.46875 
Q 16.015625 50.828125 16.015625 36.375 
Q 16.015625 21.96875 22.65625 14.328125 
Q 29.296875 6.6875 41.796875 6.6875 
Q 48.140625 6.6875 53.78125 8.984375 
Q 59.421875 11.28125 64.40625 15.921875 
L 64.40625 5.609375 
Q 59.234375 2.09375 53.4375 0.328125 
Q 47.65625 -1.421875 41.21875 -1.421875 
Q 24.65625 -1.421875 15.125 8.703125 
Q 5.609375 18.84375 5.609375 36.375 
Q 5.609375 53.953125 15.125 64.078125 
Q 24.65625 74.21875 41.21875 74.21875 
Q 47.75 74.21875 53.53125 72.484375 
Q 59.328125 70.75 64.40625 67.28125 
z
" id="DejaVuSans-67"/>
     </defs>
     <g transform="translate(1292.2925 138.19)scale(0.16 -0.16)">
      <use xlink:href="#DejaVuSans-118"/>
      <use x="59.179688" xlink:href="#DejaVuSans-40"/>
      <use x="98.193359" xlink:href="#DejaVuSans-67"/>
      <use x="168.017578" xlink:href="#DejaVuSans-49"/>
      <use x="231.640625" xlink:href="#DejaVuSans-41"/>
     </g>
    </g>
    <g id="line2d_27">
     <path d="M 1247.4925 156.075 
L 1279.4925 156.075 
" style="fill:none;stroke:#9467bd;stroke-linecap:square;stroke-width:1.5;"/>
    </g>
    <g id="line2d_28"/>
    <g id="text_20">
     <!-- v(C2) -->
     <g transform="translate(1292.2925 161.675)scale(0.16 -0.16)">
      <use xlink:href="#DejaVuSans-118"/>
      <use x="59.179688" xlink:href="#DejaVuSans-40"/>
      <use x="98.193359" xlink:href="#DejaVuSans-67"/>
      <use x="168.017578" xlink:href="#DejaVuSans-50"/>
      <use x="231.640625" xlink:href="#DejaVuSans-41"/>
     </g>
    </g>
    <g id="line2d_29">
     <path d="M 1247.4925 179.56 
L 1279.4925 179.56 
" style="fill:none;stroke:#8c564b;stroke-linecap:square;stroke-width:1.5;"/>
    </g>
    <g id="line2d_30"/>
    <g id="text_21">
     <!-- v(C3) -->
     <g transform="translate(1292.2925 185.16)scale(0.16 -0.16)">
      <use xlink:href="#DejaVuSans-118"/>
      <use x="59.179688" xlink:href="#DejaVuSans-40"/>
      <use x="98.193359" xlink:href="#DejaVuSans-67"/>
      <use x="168.017578" xlink:href="#DejaVuSans-51"/>
      <use x="231.640625" xlink:href="#DejaVuSans-41"/>
     </g>
    </g>
    <g id="line2d_31">
     <path d="M 1247.4925 203.045 
L 1279.4925 203.045 
" style="fill:none;stroke:#e377c2;stroke-linecap:square;stroke-width:1.5;"/>
    </g>
    <g id="line2d_32"/>
    <g id="text_22">
     <!-- v(V1) -->
     <g transform="translate(1292.2925 208.645)scale(0.16 -0.16)">
      <use xlink:href="#DejaVuSans-118"/>
      <use x="59.179688" xlink:href="#DejaVuSans-40"/>
      <use x="98.193359" xlink:href="#DejaVuSans-86"/>
      <use x="166.601562" xlink:href="#DejaVuSans-49"/>
      <use x="230.224609" xlink:href="#DejaVuSans-41"/>
     </g>
    </g>
   </g>
  </g>
 </g>
 <defs>
  <clipPath id="p3ac2b1ed75">
   <rect height="519.458333" width="1153.38" x="196.62" y="41.1775"/>
  </clipPath>
 </defs>
</svg>
